<svg width="655" height="670" viewBox="0 0 655 670" xmlns="http://www.w3.org/2000/svg">
  <defs>
    <filter x="-4.9%" y="-2.1%" width="109.8%" height="107.8%" filterUnits="objectBoundingBox" id="filter-1">
      <feOffset dy="13" in="SourceAlpha" result="shadowOffsetOuter1"/>
      <feGaussianBlur stdDeviation="7" in="shadowOffsetOuter1" result="shadowBlurOuter1"/>
      <feColorMatrix values="0 0 0 0 0.7448 0 0 0 0 0.75088 0 0 0 0 0.76 0 0 0 0.413128397 0" in="shadowBlurOuter1" result="shadowMatrixOuter1"/>
      <feMerge>
        <feMergeNode in="shadowMatrixOuter1"/>
        <feMergeNode in="SourceGraphic"/>
      </feMerge>
    </filter>
  </defs>
  <g id="Icons" fill="none" fill-rule="evenodd">
    <g id="Blank_US_Map_(states_only)" filter="url(#filter-1)" transform="rotate(7 517.857 764.262)" fill-rule="nonzero">
      <g id="outlines">
        <path d="M331.437 567.247l4.243-9.485 1.247-11.98-15.723 2.745-14.475.75-9.49-41.933-5.74-13.728-3.75-11.48-55.41 10.73-93.84 18.97 4.99 25.96 11.98-12.232 6.24-1.747 3.49-3.744 4.49-6.74 3.99 1.748 6.49-.49 6.48-5.24 4.99-3.74 5.24-1.5 3.74 2.75 6.73 3.5 4.74 4.49 3.24 3.5 11.98 3.99-1.5 7.24 14.47 5.24 5.24-6.49 9.23 6.24-5.24 8.24-1.75 8.24-4.49 6.49v5.24l.75 2 4.99 3.25 8.48 2.75 10.73-.25L276 573l5.244.744 2.493-5.24-3.746-5.24v-4.495l-5.99-5.24-5.24-13.73 3.25-13.23-.5-5.24-3.24-3.25s3.74-3.99 3.74-5.74c0-1.5 1.25-5.24 1.25-5.24l4.74-3.25 4.74-4 1.25 2.49-3.74 3.99-3.24 9.23.75 2.74 4.49.75 1.25 13.73-5.24 2.5.75 8.98 1.25-.5 2.75-4.74 4 4.49-3.99 3.24-.75 8.48 6.49 8.48 9.73 1.25 4-2 7.99 10.48 2.5 1 18.47-7.24zm-36.188.5l2.74 6.24.5 4.492 2.74 4.74s2.24-2.25 2.24-3-1.75-7.74-1.75-7.74l-1.75-5.74-4.74 1z" id="MD" fill="#2B66B5"/>
        <path d="M86.355 387.788l3.244-1.248 14.22-13.728 1.74 17.222 83.6-16.224 92.09-19.468 5.74 5.74 7.73 1 4.99 13.976 5.99 4.743 6.99 1 .25.25-6.49 7.99v7.74l-4.74 7.74-.5 4.75 3.24 3.25-.5 4.75-5.99 2.75 2.49 8.49.5 2.75 6.99.75 2.24 6.24 14.72 9.73v1l-7.74 7.49-3.75 5.49-4.24 6.99-6.74 3-3.5.75-5.24 3.25-4 3.5-55.91 10.73-96.58 19.47-28.2 3.5-9.74 1.75-12.73-55.91-10.73-64.64z" id="PA" fill="#2B66B5"/>
        <path d="M331.187 569.993l-.5 6.988-7.237 9.49-.998 11.48 1.248 8.49-4.492 12.48-5.49 4.75-3.745-11.48 1-13.47 3.992-10.48 1.747-8.23-.25-4.24 14.725-5.74zm-150.493 111.32L84.358 695.29l-11.98-.25-5.49-.75-6.24 4.744-18.218.25-25.706 3.993-16.722 1.497 10.233-6.49 10.232-5.74v-5.24l14.226-18.222 10.232-9.235 5.49-6.24L59.4 664.34l9.486 2.246 6.738-2.496 4.992-3.744 5.99 2.995 11.48-3.24 4.243-10.98 5.99 1.75 7.98-5.74 3.99 1 6.99-7.98.5-6.74-2-2.99 11.98-26.21 4.49-12.98 1.25-11.73 1.74-.5 2.74 4.25 3.74 3 9.73-.5 4.24-20.21 7.48-1.5 1.99-6.49 6.98-5.49 2.75-5.24 4.49-10.73.25-11.48 8.98 3.5 16.47 7.74.75-12.97 8.48 3-1.5 7.24 21.46 7.74 3.49 4.5-2 8.23-3.25 3.25-1.25 4.24 1.25 5.99 4.99 3.25 9.73 3.5 7.24 2.5 12.23 2.25 5.49 5.24 7.99 1 2.25 2.996-1 11.73 3.5 2.75-1.25 4.74 2.995 2-.5 3.49-6.74-.25.25 4 5.74 3.74.25 3.49 4.496 4.49 1.25 6.24-6.49 3.49 3.99 3.74 14.475-4.24 9.23 15.47-142 30.7z" id="VA" fill="#2B66B5"/>
        <g id="northeast" fill="#2B66B5">
          <path id="CT" d="M374.364 384.543l8.984-7.987 4.742-5.242 1.997 1.498 6.738-3.744 12.978-2.746 17.47-8.735-1.497-10.484-1.997-10.982-4-14.97-10.73 2.75-54.41 11.73 1.5 7.74 3.74 18.22v20.71l-2.25 5.24 4.24 5.49z"/>
          <path d="M462.963 338.617l-1.248-5.74 1.996-3.744 7.24-3.744 2 7.73-1.24 4.49-5.99 3.74v2.49l4.74-3.75 9.74-11.23 9.74-4.75 10.48-3.75-.75-5.99-2.49-7.24-4.74-5.99-4.49-2-5.24.5-1.25 1.25 2.5 3.24 3.75-2 5.24 3.99 2 6.74-4.49 4.49-5.74 2.49-8.98-1.25-9.74-14.96-5.74-6.49h-4.49l-2.75 2-4.74-6.49.75-3.75 5.99-12.98-7.24-10.98-9.23 4.49-4.49 7.24-45.67 11.73-34.44 6.24-1.5 26.46 1.75 12.23 54.91-11.98 27.96-6.99 4.99 3.99 8.49 10.73 7.24 11.73 5.24-2.25zm31.196 3.495l5.49-1.748 1.24-4.243 2.49.25 2.49 5.75-3.25 1.25-9.73.25 1.25-1.49zm-23.46 1.996l5.74-6.49h3.99l4.49 3.745-5.99 2.496-5.49 2.49-2.75-2.25z" id="MA"/>
          <path d="M408.805 137.443l3.743.998v-6.48l1.997-13.73 6.49-11.73 3.743-9.98-4.742-5.99V75.55l1.996-2.496 1.997-6.74-.5-3.744-.5-11.98 4.49-11.98 7.24-22.216L440 5.904h3.245l3.245.5V9.15l3.246 5.742 6.74 1.497 1.995-2v-2.5l9.99-7.24 4.49-4.49 3.75.5 14.98 5.99 4.74 2.49 22.72 74.63h14.97l2 4.74.5 11.98 7.24 5.74h2l.5-1.25-1.25-2.75 6.99-1.25 4.74 5.24 5.74 9.23v4.74l-5.24 11.73-4.74 1.5-8.48 7.73-11.98 13.73h-3.24c-1.5 0-2.49-5.24-2.49-5.24l-4.49.5-2.49 3.74-5.99 3.75-2.5 3.74 4 3.74-1.25 1.5-1.25 6.74-4.74-.5v-3.99l-.75-3.25-3.74.75-4.49-7.99-5.24 3.24 3.25 3.74.75 2.74-2 3.24.75 7.74.5 3.99-4 6.49-7.23 1.25-.75 7.24-13.22 7.74-3.24 1.24-3.99-3.75-7.74 8.99 2.49 7.99-3.75 3.24-.5 10.98-2.75 15.74-5.49-2.25-1.242-7.74-9.98-2.74-.5-6.24-29.2-93.43 3.245-.43zM499.9 176.38l3.743-3.744 3.494 2.746 1.498 5.99-4.243 2.246-4.492-7.238zm16.72-14.726l4.493 4.742s3.245.25 3.245-.5c0-.748.5-4.99.5-4.99l2.245-1.998-1.996-4.492-4.992 1.747-3.494 5.49z" id="ME"/>
          <path id="NH" d="M448.487 260.743l2.746-7.987-6.74-2.995-1.247-7.73-10.232-2.74-.75-7.49-29.2-93.54-1.746.2-1.498 4-1.497-1.25-2.496-2.49-3.744 4.75-.5 5.72 1.25 20.99 4.74 6.99v10.73l-9.732 11.99-5.99 2.25v1.75l2.75 4.74v21.47l-1.99 22.96-.5 11.73 2.5 3.5-.5 11.73-1.24 3.74 2.5 2.75 12.73-2.99 34.44-8.73 4.25-7.24 9.98-4.74z"/>
          <path id="NY" d="M352.9 407.256l1.248-6.74-.5-5.99-7.486-3.743-16.223-4.992-14.98-6.49-1.5-.99-6.74-.75-5-3.74-5.24-14.72-8.24-1.25-5.99-5.99-95.84 20.22-78.87 14.98-1.25-16.22 3.99-2.99 3.24-2.75 2.49-3.99 4.5-2.74 4.74-4.49 1.25-3.99 5.24-6.74 2.74-2.49-.5-2.49-3.24-7.73-4.5-.5-4.74-15.22 7.24-4.49 10.98-3.74 9.99-3.24 7.98-1.25 15.72-.5 4.74 3.25 3.99.5 5.24-3.24 6.49-2.74 12.97-1.25 5.24-4.494 4.49-7.98 3.99-4.74h5.24l4.74-2.743.5-5.74-3.74-5.24-.75-3.74 2.74-5.24v-3.74h-4.49l-4.49-2-2-2.75-.5-6.49 14.48-13.724 1.5-2 3.74-7.24 7.24-11.23 6.74-9.24 5.24-5.99 5.99-4.49 7.74-2.998 13.73-3.244 7.99.5 11.23-3.74 18.47-5.49 1.74 12.23 5.99 16.22 2 12.48-2.49 10.48 6.49 11.23 1.993 4.997-2.244 7.986 9.23 4.24 6.74 25.46V294l-1.5 27.203 2 13.48 1.74 8.986 3.74 18.22v20.21l-2.744 5.74 5.24 6.74 1.25 2.25-4.74 4.49.75 3.24 3.24-.75 3.748-3.25 5.74-6.49 2.744-1.5 3.99 1.5 5.74.5 19.714-9.74 7.24-6.74 3.24-3.74 10.485 3.99-8.49 8.98-9.73 7.24-17.72 13.22-6.49 2.5-14.48 4.73-9.985 2.74-2.49-1z"/>
          <path id="RI" d="M428.272 346.604l-1.997-10.982-3.993-14.976 14.226-3.744 3.743 3.245 8.49 10.733 6.99 10.982-6.99 3.494-3.24-.5-2.74 4.494-5.99 4.742-6.99 2.746z"/>
          <path id="VT" d="M326.196 185.865l5.99 16.223 1.996 13.23-2.496 9.733 6.24 10.99 2.246 5.74-1.747 6.49 8.236 3.75 7.24 26.96v13.22l28.7-5.24-2.49-2.74 1.5-4.74.5-10.73-2.49-3.5.5-11.73 2-23.21v-21.22l-2.74-4.49v-3.99l6.99-2.74 8.74-10.99v-8.98l-4.74-6.74-.75-14.45-65.14 16.95z"/>
        </g>
        <g id="DC" transform="translate(234.602 523.11)">
          <path id="DC1" fill="#D3D3D3" d="M14.475 18.428l-2.745-3.994-2.496-1.996 2.746-3.994 5.49 3.744z"/>
          <ellipse id="DC2" stroke="#CFD0D2" stroke-width="2" fill="#2B66B5" cx="13.227" cy="13.436" rx="12.479" ry="12.48"/>
        </g>
      </g>
    </g>
  </g>
</svg>
