<svg width="959" height="813" viewBox="0 0 959 813" xmlns="http://www.w3.org/2000/svg">
  <defs>
    <filter x="-3.2%" y="-1.8%" width="106.4%" height="106.7%" filterUnits="objectBoundingBox" id="filter-1">
      <feOffset dy="13" in="SourceAlpha" result="shadowOffsetOuter1"/>
      <feGaussianBlur stdDeviation="7" in="shadowOffsetOuter1" result="shadowBlurOuter1"/>
      <feColorMatrix values="0 0 0 0 0.7448 0 0 0 0 0.75088 0 0 0 0 0.76 0 0 0 0.413128397 0" in="shadowBlurOuter1" result="shadowMatrixOuter1"/>
      <feMerge>
        <feMergeNode in="shadowMatrixOuter1"/>
        <feMergeNode in="SourceGraphic"/>
      </feMerge>
    </filter>
  </defs>
  <g id="Website" fill="none" fill-rule="evenodd">
    <g id="Service-Area-Overview" fill-rule="nonzero">
      <g id="Blank_US_Map_(states_only)" filter="url(#filter-1)" transform="rotate(7 816.197 863.146)">
        <g id="outlines">
          <path d="M623.437 567.247l4.243-9.485 1.247-11.98-15.723 2.745-14.475.75-9.49-41.933-5.74-13.728-3.75-11.48-55.41 10.73-93.84 18.97 4.99 25.96 11.98-12.232 6.24-1.747 3.49-3.744 4.49-6.74 3.99 1.748 6.49-.49 6.48-5.24 4.99-3.74 5.24-1.5 3.74 2.75 6.73 3.5 4.74 4.49 3.24 3.5 11.98 3.99-1.5 7.24 14.47 5.24 5.24-6.49 9.23 6.24-5.24 8.24-1.75 8.24-4.49 6.49v5.24l.75 2 4.99 3.25 8.48 2.75 10.73-.25L568 573l5.244.744 2.493-5.24-3.746-5.24v-4.495l-5.99-5.24-5.24-13.73 3.25-13.23-.5-5.24-3.24-3.25s3.74-3.99 3.74-5.74c0-1.5 1.25-5.24 1.25-5.24l4.74-3.25 4.74-4 1.25 2.49-3.74 3.99-3.24 9.23.75 2.74 4.49.75 1.25 13.73-5.24 2.5.75 8.98 1.25-.5 2.75-4.74 4 4.49-3.99 3.24-.75 8.48 6.49 8.48 9.73 1.25 4-2 7.99 10.48 2.5 1 18.47-7.24zm-36.188.5l2.74 6.24.5 4.492 2.74 4.74s2.24-2.25 2.24-3-1.75-7.74-1.75-7.74l-1.75-5.74-4.74 1z" id="MD" fill="#2B66B5"/>
          <path d="M378.355 387.788l3.244-1.248 14.22-13.728 1.74 17.222 83.6-16.224 92.09-19.468 5.74 5.74 7.73 1 4.99 13.976 5.99 4.743 6.99 1 .25.25-6.49 7.99v7.74l-4.74 7.74-.5 4.75 3.24 3.25-.5 4.75-5.99 2.75 2.49 8.49.5 2.75 6.99.75 2.24 6.24 14.72 9.73v1l-7.74 7.49-3.75 5.49-4.24 6.99-6.74 3-3.5.75-5.24 3.25-4 3.5-55.91 10.73-96.58 19.47-28.2 3.5-9.74 1.75-12.73-55.91-10.73-64.64z" id="PA" fill="#2B66B5"/>
          <path d="M623.187 569.993l-.5 6.988-7.237 9.49-.998 11.48 1.248 8.49-4.492 12.48-5.49 4.75-3.745-11.48 1-13.47 3.992-10.48 1.747-8.23-.25-4.24 14.725-5.74zm-150.493 111.32l-96.336 13.977-11.98-.25-5.49-.75-6.24 4.744-18.218.25-25.706 3.993-16.722 1.497 10.233-6.49 10.232-5.74v-5.24l14.226-18.222 10.232-9.235 5.49-6.24 8.986 10.733 9.49 2.246 6.74-2.496 4.99-3.744 5.99 2.995 11.48-3.24 4.25-10.98 5.99 1.75 7.99-5.74 4 1 6.99-7.98.5-6.74-2-2.99 11.98-26.21 4.49-12.98 1.25-11.73 1.75-.5 2.75 4.25 3.75 3 9.74-.5 4.24-20.21 7.49-1.5 2-6.49 6.99-5.49 2.75-5.24 4.49-10.73.25-11.48 8.99 3.5 16.47 7.74.75-12.97 8.49 3-1.5 7.24 21.46 7.74 3.49 4.5-2 8.23-3.24 3.25-1.25 4.24 1.25 5.99 4.99 3.25 9.74 3.5 7.24 2.5 12.23 2.25 5.49 5.24 7.99 1 2.25 3-1 11.73 3.48 2.74-1.25 4.74 3 2-.5 3.49-6.74-.25.25 3.99 5.74 3.748.25 3.49 4.49 4.493 1.25 6.24-6.49 3.49 4 3.748 14.47-4.24 9.24 15.48-142 30.7z" id="VA" fill="#2B66B5"/>
          <g id="northeast" fill="#2B66B5">
            <path id="CT" d="M666.364 384.543l8.984-7.987 4.742-5.242 1.997 1.498 6.738-3.744 12.978-2.746 17.47-8.735-1.497-10.484-1.997-10.982-4-14.97-10.73 2.75-54.41 11.73 1.5 7.74 3.74 18.22v20.71l-2.25 5.24 4.24 5.49z"/>
            <path d="M754.963 338.617l-1.248-5.74 1.996-3.744 7.24-3.744 2 7.73-1.24 4.49-5.99 3.74v2.49l4.74-3.75 9.74-11.23 9.74-4.75 10.48-3.75-.75-5.99-2.49-7.24-4.74-5.99-4.49-2-5.24.5-1.25 1.25 2.5 3.24 3.75-2 5.24 3.99 2 6.74-4.49 4.49-5.74 2.49-8.98-1.25-9.74-14.96-5.74-6.49h-4.49l-2.75 2-4.74-6.49.75-3.75 5.99-12.98-7.24-10.98-9.23 4.49-4.49 7.24-45.67 11.73-34.44 6.24-1.5 26.46 1.75 12.23 54.91-11.98 27.96-6.99 4.99 3.99 8.49 10.73 7.24 11.73 5.24-2.25zm31.196 3.495l5.49-1.748 1.24-4.243 2.49.25 2.49 5.75-3.25 1.25-9.73.25 1.25-1.49zm-23.46 1.996l5.74-6.49h3.99l4.49 3.745-5.99 2.496-5.49 2.49-2.75-2.25z" id="MA"/>
            <path d="M700.805 137.443l3.743.998v-6.48l1.997-13.73 6.49-11.73 3.743-9.98-4.742-5.99V75.55l1.996-2.496 1.997-6.74-.5-3.744-.5-11.98 4.49-11.98 7.24-22.216L732 5.904h3.245l3.245.5V9.15l3.246 5.742 6.74 1.497 1.995-2v-2.5l9.99-7.24 4.49-4.49 3.75.5 14.98 5.99 4.74 2.49 22.72 74.63h14.97l2 4.74.5 11.98 7.24 5.74h2l.5-1.25-1.25-2.75 6.99-1.25 4.74 5.24 5.74 9.23v4.74l-5.24 11.73-4.74 1.5-8.48 7.73-11.98 13.73h-3.24c-1.5 0-2.49-5.24-2.49-5.24l-4.49.5-2.49 3.74-5.99 3.75-2.5 3.74 4 3.74-1.25 1.5-1.25 6.74-4.74-.5v-3.99l-.75-3.25-3.74.75-4.49-7.99-5.24 3.24 3.25 3.74.75 2.74-2 3.24.75 7.74.5 3.99-4 6.49-7.23 1.25-.75 7.24-13.22 7.74-3.24 1.24-3.99-3.75-7.74 8.99 2.49 7.99-3.75 3.24-.5 10.98-2.75 15.74-5.49-2.25-1.24-7.74-9.98-2.74-.5-6.24-29.2-93.43 3.25-.43zM791.9 176.38l3.743-3.744 3.494 2.746 1.498 5.99-4.243 2.246-4.492-7.238zm16.72-14.726l4.493 4.742s3.245.25 3.245-.5c0-.748.5-4.99.5-4.99l2.245-1.998-1.996-4.492-4.992 1.747-3.494 5.49z" id="ME"/>
            <path id="NH" d="M740.487 260.743l2.746-7.987-6.74-2.995-1.247-7.73-10.232-2.74-.75-7.49-29.2-93.54-1.746.2-1.498 4-1.497-1.25-2.496-2.49-3.744 4.75-.5 5.72 1.25 20.99 4.74 6.99v10.73l-9.732 11.99-5.99 2.25v1.75l2.75 4.74v21.47l-1.99 22.96-.5 11.73 2.5 3.5-.5 11.73-1.24 3.74 2.5 2.75 12.73-2.99 34.44-8.73 4.25-7.24 9.98-4.74z"/>
            <path id="NY" d="M644.9 407.256l1.248-6.74-.5-5.99-7.486-3.743-16.223-4.992-14.98-6.49-1.5-.99-6.74-.75-5-3.74-5.24-14.72-8.24-1.25-5.99-5.99-95.84 20.22-78.87 14.98-1.25-16.22 3.99-2.99 3.24-2.75 2.49-3.99 4.5-2.74 4.74-4.49 1.25-3.99 5.24-6.74 2.74-2.49-.5-2.49-3.24-7.73-4.5-.5-4.74-15.22 7.24-4.49 10.98-3.74 9.99-3.24 7.98-1.25 15.72-.5 4.74 3.25 3.99.5 5.24-3.24 6.49-2.74 12.97-1.25 5.24-4.49 4.49-7.98 3.99-4.74h5.24l4.74-2.74.5-5.74-3.74-5.24-.75-3.74 2.74-5.24v-3.74h-4.49l-4.49-2-2-2.75-.5-6.49 14.48-13.724 1.5-2 3.74-7.24 7.24-11.23 6.74-9.24 5.24-5.99 5.99-4.49 7.74-2.997 13.73-3.245 7.99.5 11.23-3.74 18.47-5.49 1.74 12.23 5.99 16.22 2 12.48-2.49 10.48 6.49 11.23 1.99 4.997-2.248 7.986 9.23 4.24 6.74 25.46V294l-1.5 27.203 2 13.48 1.74 8.986 3.74 18.22v20.21l-2.744 5.74 5.24 6.74 1.25 2.25-4.74 4.49.75 3.24 3.24-.75 3.75-3.25 5.74-6.49 2.743-1.5 3.99 1.5 5.74.5 19.72-9.74 7.24-6.74 3.24-3.74 10.485 3.99-8.49 8.98-9.73 7.24-17.72 13.22-6.49 2.5-14.48 4.73-9.985 2.74-2.49-1z"/>
            <path id="RI" d="M720.272 346.604l-1.997-10.982-3.993-14.976 14.226-3.744 3.743 3.245 8.49 10.733 6.99 10.982-6.99 3.494-3.24-.5-2.74 4.494-5.99 4.742-6.99 2.746z"/>
            <path id="VT" d="M618.196 185.865l5.99 16.223 1.996 13.23-2.496 9.733 6.24 10.99 2.246 5.74-1.747 6.49 8.236 3.75 7.24 26.96v13.22l28.7-5.24-2.49-2.74 1.5-4.74.5-10.73-2.49-3.5.5-11.73 2-23.21v-21.22l-2.74-4.49v-3.99l6.99-2.74 8.74-10.99v-8.98l-4.74-6.74-.75-14.45-65.14 16.95z"/>
          </g>
          <g id="not-served" fill="#FFF">
            <path id="DE" d="M622.44 525.065l-2.497 1.248-8.985-5.99-4.492-11.73-4.742-8.986-5.74-2.496-5.24-8.98 1.246-4.99 1.248-5.74.25-2.74-1.498.25-4.242 2.5-4.992 4.25-.5.75 3.495 10.24 5.74 13.98 9.24 40.19 12.48-.75 14.98-2.74z"/>
            <path id="IN" d="M94.59 447.44l3.742 2.497 2.746-.75 5.24-4.74 6.24-4.494 35.69-2.745 45.92-4.493 3.994 38.687 12.23 106.328-1.498 7.238 3.244 3.994.5 3.245-5.74 3.993-8.986 4.243-7.986 1-1.248 11.98-11.73 8.985-7.237 9.983.5 6-1.24 3.5h-8.73l-3.49-4.24-12.98 7.49.5 7.74-2.24.5-1.25-2.24-5.99-4.24-8.98 3.75-3.49 7.24-2.99-1.49-3.99-4.49-10.98 1.25-14.23 2.5-6.24 3.25v-6.49l1-11.73 5.74-7.23 4.49-9.73 6.74-10.48-1.24-14.47-4.5-7.74-.75-7.99 2-13.23-1.74-17.72-2.25-31.45-6.24-75.13z"/>
            <path id="KY" d="M55.406 736.223l31.446-1.747.25-10.233h10.73l75.872-7.987 112.558-10.733 13.976-8.985 9.733-5.242.25-4.742 14.98-19.47 10.24-8.984 5.24-5.99-8.23-4.992-6.24-6.74-7.48-9.484-1.24-5.49-6.49-3.496-2.24-4.742-.5-15.225-6.49-4.99-4.74-2.74-1.25-5.74-3.24.5-4.99 3-6.24 6.74-4.74-4.24-6.24-1.25-5.99 3.5h-5.74l-4.49-4.99-13.97-.25-4.49-11.23-7.23-3.74-5.24 2-10.48.5-1.24 5.24 3 3.75.75 5.24-6.99 4.99-9.48 4.5-6.49 1-1.25 11.23-12.23 8.99-6.49 9.24.5 5.49-2.24 5.74-11.23-.25-3.25-3.24-9.74 5.49.5 8.24-5.99 1.5-1.99-3.49-4.24-2.99-6.73 2.75-4.5 8.74-5.49-2.5-3.49-3.99-9.23 1-13.97 2.5-6.985 3.25-2.995 8.49-2.49 2.5 3.74 9.24-10.49 3.49-4.74 3.5-1 5.49 2.995 5.99v5.49l-3.99 1L50 700.38l-5.74 2.25-4.99 3.49-1.99 4.49 4.246 5.99-2.3 4.41-.25 8.24-5.99 3.25-5.24 4.245z"/>
            <path d="M503.392 800.87l-31.696-19.22-7.737-1.997-41.43 5.24-4-7.486-6.99-5.492-41.68 1.248-18.47 2.247-22.96 11.232-16.97 6.74-16.23 2.994-33.44 3.494.25-10.233 4.24-3.245 6.74-1.747 1.75-9.485 9.73-6.24 9.73-3.744 11.23-9.235 10.98-5.74 1.74-7.98 10.23-9.48 1.74 2.5 6.24.5 5.99-8.98 4.24-1 6.49.75 4.49-9.98 6.24-5.99 1.25-4.49.25-8.73 10.98.25 96.09-13.98 143.51-30.7 4.99 11.98 8.98 16.23 5.99 5.99 1.49 5.74-5.99.5 2 1.5-.75 10.49-6.49 3.24-1.5 5.24-3.25 7.24-9.21 3.96-5.99-.75-3.75-.5-4-3.24.74 3.25v2.5h4.74l1.99 3.25-4.74 15.73h10.48l1.5 3.99 5.74-5.74 3.24-1.25-4.75 8.98-7.74 11.98h-3.25l-2.75-1.25-6.74 1.49-12.98 5.99-16.22 13.22-8.49 11.73-4.75 16.22-1.25 5.99-11.73 1.25-12.73 3.74-25.46-20.72zm123.04-65.395l6.49-6.24 7.985-6.49 3.744-1.497.5-4.992-1.49-15.226-3.74-5.74-1.5-4.743 1.75-.5 6.74 13.73 1 10.98-.5 8.487-8.48 3.744-6.98 5.99-2.74 2.996-2.74-.5z" id="NC"/>
            <path id="NJ" d="M595.734 477.892l.25-3.744 6.738-3.245 4.243-6.99 4.243-5.99 8.236-7.986v-2.995l-15.224-10.234-2.496-6.74-6.74-.748-.248-2.246-1.747-5.49 5.49-2.747.5-7.238-3.25-3.25.5-3 4.74-7.74v-7.74l6.24-7.74 13.97 6.24 15.97 4.74 6.24 2.99.25 4.49-1.25 6.74 1 11.23-5.24 4.74-2.75 2.49 1.24 1.25 6.74-.75 2.74-1.99 3.99 8.48.5 23.46 1.5 2.74-2.75 13.73-7.74 16.22-6.74 9.99-2 11.98-5.24 5.99h-2l-.75-6.74 2-2.5-.5-3.74-9.99-1.5-11.98-5.74-7.99-7.24-2.5-4.99z"/>
            <path id="OH" d="M196.665 435.21l4.242 38.688 11.98 102.584 9.733-.5 5.74-1.996 8.985 4.493 4.243 10.48 13.477.25 4.492 4.99h4.243l5.99-3.5 7.737 1.24 3.743 3.24 4.493-5 5.74-3.5 5.99-1 1.497 6.74 3.993 2.49 6.49 4.99 1.996.5 4.99-.25 2.99-1.5v-5.24l4.24-3.75.25-11.98 2.74-10.48 4.74-3.24 2.49 1.74 2.49 2.74 1.74.5 1-1-2.25-6.74v-5.49l2.74-3.5 6.24-8.99 3.24-3.75 5.49 1.25 5.24-3.75 7.48-8.24 5.49-9.24.5-13.48 1.25-12.48V482.1l-3-7.99 2.99-4.49 3.25-2.995-1.5-6.99-10.73-63.9-15.47 9.24-9.73 5.74-8.49 9.236-9.99 9.74-7.98 2-7.24 1.25-13.72 6.5-5.24.5-8.49-7.74-12.98 1.5-6.49-3.74-5.49-3.24z"/>
            <path id="TN" d="M214.135 805.61l-32.694 2.996-58.15 5.49-93.84 6.74-29.45 1 2.25-1.5 2.25-11.23-3-8.986 9.74-5.74 1-6.24 3-10.733 7.49-23.712 1.25-13.977.75-.5 30.7-.5 33.94-1.996.25-9.734 8.74-.25 75.87-8.236L309 705.522l25.704-3.743 18.968-.5 5.99-4.75 3.25.75-.25 8.23-1 3.99-5.99 5.49-3.99 8.98-4.99-1-5.99 2.25-5.493 8.23-3.5-.5-2-3-2.75 1-10.73 9.98-2 7.73-10.48 5.49-10.74 8.99-9.48 3.74-10.98 6.99-1.5 8.98-6.24 1.25-4.99 4.24-.5 11.98z"/>
            <path id="WV" d="M434.01 542.787l14.475-14.976 6.49-1.99 3.992-3.74 3.744-5.49 2.75.75 7.74-.5 11.48-8.98 3.75-1.25 3.25 2.5 6.49 3 7.49 7.49-1 10.74-13.47-6.49-11.98-4.49-.25 14.73-6.49 14.23-7.23 5.99-1.99 5.74-7.48 1.25-4.24 20.22-6.98.5-2.74-2.5-3-4.99-5.49 1.25-1.25 12.73-4.49 12.73-12.48 27.45 2.25 3.5-.25 4.99-5.49 6.24-3.99-1-7.74 5.74-6.99-2-4.49 12.23-9.48 2.5-6.24-3.24-6.24 4.75-5.74 1.75-7.98-1.99-9.48-11.23-8.73-5.49-6.24-6.24-7.23-9.23-1.25-5.74-6.99-4.24-1.5-3.24-.5-13.98.75.25 5.99-.5 4.49-2.5v-5.49l4.24-3.75.25-12.98 2.25-8.98 2.74-1.75 1 .75 2.49 2.74 4.24 1.25 2.75-3.24-2.5-7.74v-3.99l7.74-11.48 3-3.25 4.99 1.25 6.49-4.49 7.74-8.48 5.99-10.23.5-13.98 1.243-11.98v-12.3l-2.75-7.49 2.246-3.24 1.993-1.743 10.73 48.17 10.735-1.996 27.95-3.245z"/>
          </g>
          <g id="DC" transform="translate(526.602 523.11)">
            <path id="DC1" fill="#D3D3D3" d="M14.475 18.428l-2.745-3.994-2.496-1.996 2.746-3.994 5.49 3.744z"/>
            <ellipse id="DC2" stroke="#CFD0D2" stroke-width="2" fill="#2B66B5" cx="13.227" cy="13.436" rx="12.479" ry="12.48"/>
          </g>
        </g>
      </g>
    </g>
  </g>
</svg>
