<svg width="114" height="114" viewBox="0 0 114 114" xmlns="http://www.w3.org/2000/svg">
  <g id="Website" fill="none" fill-rule="evenodd">
    <g id="Home">
      <g id="better-choice">
        <g id="superior-walls-oval">
          <circle id="Oval-4" fill="#FFF" cx="57" cy="57" r="57"/>
          <path id="Shape" fill="#FFF" d="M23 50.598L57.2 14l15.17 16.29-19.123 20.36 10.635 11.538-15.026 16.08L23 50.598"/>
          <path id="Shape" fill="#FFF" d="M43.33 82.71l19.123-20.36-10.635-11.538 15.026-16.08L92.7 62.402 58.5 99 43.33 82.71"/>
          <path id="Shape" fill="#0072C7" d="M56.597 17.11L68.5 29.877 49.61 50.035 60.116 61.51 48.358 74.122 25.904 50.035 56.597 17.11"/>
          <path id="Shape" fill="#B5B3B2" d="M58.135 94.854l-11.902-12.78L65.12 61.9 54.618 50.413 66.374 37.84 88.828 61.9 58.135 94.854"/>
        </g>
      </g>
    </g>
  </g>
</svg>
