<svg xmlns="http://www.w3.org/2000/svg" width="600" height="165" viewBox="0 0 600 165"><path fill="#fff" fill-rule="evenodd" d="M.5 71.3L70.6 1.2l31.1 31.2-39.2 39 21.8 22.1-30.8 30.8-53-53"/><path fill="#fff" fill-rule="evenodd" d="M41.7 132.6l39.2-39-21.8-22.1 30.8-30.8 53 53-70.1 70.1-31.1-31.2"/><circle cx="593.4" cy="39.3" r="6.1" fill="#fff"/><path fill="#0072c7" fill-rule="evenodd" d="M70.3 7.9L95 32.6l-39.2 39 21.8 22.2-24.4 24.4L6.6 71.6 70.3 7.9"/><path fill="#b5b3b2" fill-rule="evenodd" d="M72.5 157.6l-24.7-24.7 39.2-39-21.8-22.2 24.4-24.3 46.6 46.5-63.7 63.7"/><path d="M555.6 70h14.1v12.2c0 1.9.8 2.9 2.4 2.9s2.4-1.9 2.4-5.6-1-8-2.9-9.4q-11-5.8-13.3-8.1c-1.5-1.5-2.3-3.8-2.3-6.9v-7.7q0-12.1 16.4-12.1t16 11.6v11.3h-13.8l.3-6.9c0-4.8-.9-7.2-2.6-7.2s-2.6 1.5-2.6 4.5a16.5 16.5 0 0 0 1.2 7q1.2 2.4 12.9 8.2a10.9 10.9 0 0 1 4.9 9.3v8.6q0 12.1-16.7 12.1t-16.4-11.5zm-2.3 23.1h-14.1v-71h14.1zm-16.5 0h-14.1v-71h14.1zm-30.7-10.7V67.6q-4.9 1.2-4.9 4.4v10.4q0 2.6 2.5 2.6t2.4-2.6zm14.1 10.7h-12.5v-2.2q-1.6 3-9.1 3-11.5 0-11.5-9V73.4a9.4 9.4 0 0 1 2.8-6.7c1.9-1.9 5.6-4.3 11.3-7.2 3.3-1.7 4.9-3 4.9-4V47c0-1.9-.8-2.8-2.4-2.8s-2.8 2.3-2.8 6.9c0 .8.1 2 .2 3.7s.2 2.8.2 3.7h-13.7V46.9q0-11.6 16.8-11.6t15.8 12.1zm-34.1-71l-9.1 71h-18.5L452.9 54l-5.3 39.2h-15.9l-8.8-71h14l4 32.8 5.3-32.8h17.6l4.2 32.7 5.3-32.8zm-82.8 37.4h-14.1V47c0-1.8-.8-2.6-2.4-2.6s-2.4.8-2.4 2.5v46.2h-14.2V35.7h14.1v1.9c1.9-1.6 4.8-2.3 8.7-2.3a11.9 11.9 0 0 1 7.2 2.2 7.1 7.1 0 0 1 3 5.9zm-49.5 22.7V47c0-1.9-.8-2.8-2.4-2.8s-2.5.9-2.5 2.8v35.2c0 1.9.8 2.9 2.5 2.9s2.4-.9 2.4-2.9zm-19-.4V47.4q0-12.1 16.8-12.1a22.7 22.7 0 0 1 11.4 2.8 9.5 9.5 0 0 1 4.9 8.8v35.4q0 11.6-16.3 11.6t-16.8-12.1zM333 93.1h-14.1V35.7H333zm0-60.7h-14.1V22.1H333zm-15.6 27h-14.1V47c0-1.8-.8-2.6-2.4-2.6s-2.4.8-2.4 2.5v46.2h-14.2V35.7h14.1v1.9c1.9-1.6 4.8-2.3 8.7-2.3a11.9 11.9 0 0 1 7.2 2.2 7.1 7.1 0 0 1 3 5.9zm-49.7.7V47c0-1.9-.8-2.8-2.4-2.8s-2.5.9-2.5 2.8v13.2zm14.1 8.6h-19v13.5c0 1.9.8 2.9 2.5 2.9s2.4-1 2.4-2.9V70.6h14.1v11.7q0 11.6-16.6 11.6t-16.5-12.1V47.4q0-12.1 16.4-12.1t16.6 11.6zm-49.4 13.7V46.8c0-1.8-.8-2.6-2.4-2.6s-2.5.9-2.5 2.6v35.7A2.2 2.2 0 0 0 230 85q2.4 0 2.4-2.6zm-4.9 9.4v13.5h-14.1V35.7H224l1.2 2.3a13 13 0 0 1 8.2-2.7 17 17 0 0 1 8.9 2.4 7.7 7.7 0 0 1 4.1 7V86a6.8 6.8 0 0 1-3 5.8 11.9 11.9 0 0 1-7.2 2.2q-5.8-.1-8.7-2.2zm-16.2 1.3h-14.1v-1.9c-1.8 1.8-4.7 2.7-8.7 2.7a11.9 11.9 0 0 1-7.2-2.2 6.8 6.8 0 0 1-3-5.8V35.7h14.1v46.7c0 1.8.8 2.6 2.5 2.6s2.4-.8 2.4-2.5V35.7h14.1zm-70.8-28.4h14.2V81c0 1.6 1 2.4 2.9 2.4s2.8-.8 2.8-2.4v-8.4q0-3.9-5.1-9.1-10-9.7-12.4-13a12 12 0 0 1-2.4-7.3v-8q0-13.8 18-13.8 16.1 0 16.1 12.6v12.3h-14.2v-13c0-1.4-.8-2.1-2.3-2.1s-2.7 1.4-2.7 4.1l.3 4.6q0 4 5.3 9.2 9.7 9.4 12.4 13.1a14.1 14.1 0 0 1 2.7 8.4v9.1q0 14.2-18.1 14.2t-17.5-13z" fill="none" stroke="#fff" stroke-miterlimit="10" stroke-width="7.26"/><path d="M555.6 70h14.1v12.2c0 1.9.8 2.9 2.4 2.9s2.4-1.9 2.4-5.6-1-8-2.9-9.4q-11-5.8-13.3-8.1c-1.5-1.5-2.3-3.8-2.3-6.9v-7.7q0-12.1 16.4-12.1t16 11.6v11.3h-13.8l.3-6.9c0-4.8-.9-7.2-2.6-7.2s-2.6 1.5-2.6 4.5a16.5 16.5 0 0 0 1.2 7q1.2 2.4 12.9 8.2a10.9 10.9 0 0 1 4.9 9.3v8.6q0 12.1-16.7 12.1t-16.4-11.5zm-2.3 23.1h-14.1v-71h14.1zm-16.5 0h-14.1v-71h14.1zm-30.7-10.7V67.6q-4.9 1.2-4.9 4.4v10.4q0 2.6 2.5 2.6t2.4-2.6zm14.1 10.7h-12.5v-2.2q-1.6 3-9.1 3-11.5 0-11.5-9V73.4a9.4 9.4 0 0 1 2.8-6.7c1.9-1.9 5.6-4.3 11.3-7.2 3.3-1.7 4.9-3 4.9-4V47c0-1.9-.8-2.8-2.4-2.8s-2.8 2.3-2.8 6.9c0 .8.1 2 .2 3.7s.2 2.8.2 3.7h-13.7V46.9q0-11.6 16.8-11.6t15.8 12.1zm-34.1-71l-9.1 71h-18.5L452.9 54l-5.3 39.2h-15.9l-8.8-71h14l4 32.8 5.3-32.8h17.6l4.2 32.7 5.3-32.8zm-82.8 37.4h-14.1V47c0-1.8-.8-2.6-2.4-2.6s-2.4.8-2.4 2.5v46.2h-14.2V35.7h14.1v1.9c1.9-1.6 4.8-2.3 8.7-2.3a11.9 11.9 0 0 1 7.2 2.2 7.1 7.1 0 0 1 3 5.9zm-49.5 22.7V47c0-1.9-.8-2.8-2.4-2.8s-2.5.9-2.5 2.8v35.2c0 1.9.8 2.9 2.5 2.9s2.4-.9 2.4-2.9zm-19-.4V47.4q0-12.1 16.8-12.1a22.7 22.7 0 0 1 11.4 2.8 9.5 9.5 0 0 1 4.9 8.8v35.4q0 11.6-16.3 11.6t-16.8-12.1zM333 93.1h-14.1V35.7H333zm0-60.7h-14.1V22.1H333zm-15.6 27h-14.1V47c0-1.8-.8-2.6-2.4-2.6s-2.4.8-2.4 2.5v46.2h-14.2V35.7h14.1v1.9c1.9-1.6 4.8-2.3 8.7-2.3a11.9 11.9 0 0 1 7.2 2.2 7.1 7.1 0 0 1 3 5.9zm-49.7.7V47c0-1.9-.8-2.8-2.4-2.8s-2.5.9-2.5 2.8v13.2zm14.1 8.6h-19v13.5c0 1.9.8 2.9 2.5 2.9s2.4-1 2.4-2.9V70.6h14.1v11.7q0 11.6-16.6 11.6t-16.5-12.1V47.4q0-12.1 16.4-12.1t16.6 11.6zm-49.4 13.7V46.8c0-1.8-.8-2.6-2.4-2.6s-2.5.9-2.5 2.6v35.7A2.2 2.2 0 0 0 230 85q2.4 0 2.4-2.6zm-4.9 9.4v13.5h-14.1V35.7H224l1.2 2.3a13 13 0 0 1 8.2-2.7 17 17 0 0 1 8.9 2.4 7.7 7.7 0 0 1 4.1 7V86a6.8 6.8 0 0 1-3 5.8 11.9 11.9 0 0 1-7.2 2.2q-5.8-.1-8.7-2.2zm-16.2 1.3h-14.1v-1.9c-1.8 1.8-4.7 2.7-8.7 2.7a11.9 11.9 0 0 1-7.2-2.2 6.8 6.8 0 0 1-3-5.8V35.7h14.1v46.7c0 1.8.8 2.6 2.5 2.6s2.4-.8 2.4-2.5V35.7h14.1zm-70.8-28.4h14.2V81c0 1.6 1 2.4 2.9 2.4s2.8-.8 2.8-2.4v-8.4q0-3.9-5.1-9.1-10-9.7-12.4-13a12 12 0 0 1-2.4-7.3v-8q0-13.8 18-13.8 16.1 0 16.1 12.6v12.3h-14.2v-13c0-1.4-.8-2.1-2.3-2.1s-2.7 1.4-2.7 4.1l.3 4.6q0 4 5.3 9.2 9.7 9.4 12.4 13.1a14.1 14.1 0 0 1 2.7 8.4v9.1q0 14.2-18.1 14.2t-17.5-13zM592.7 39h1.5a.5.5 0 0 0 .2-.5.5.5 0 0 0-.2-.4h-1.5zm-.9 2.5v-4.4h2.1a1.5 1.5 0 0 1 1.1.4 1.2 1.2 0 0 1 .4.9 1.1 1.1 0 0 1-.3.8 1.6 1.6 0 0 1-.9.4l.4.3.5.8.5.9h-1.1l-.4-.7-.6-.9-.7-.2h-.2v1.8zm1.9-5.6a3.2 3.2 0 0 0-2.5 1 3.3 3.3 0 0 0-.9 2.3 3.3 3.3 0 0 0 6.7 0 3.3 3.3 0 0 0-.5-1.7 3.2 3.2 0 0 0-1.3-1.2 3.2 3.2 0 0 0-1.5-.4zm-.2-.8a4.2 4.2 0 0 1 4.3 4.1 4.1 4.1 0 0 1-8.3 0 4 4 0 0 1 .6-2.2 3.9 3.9 0 0 1 1.6-1.5 4.2 4.2 0 0 1 1.8-.4z" fill-rule="evenodd"/><path d="M357.5 105l-10.9 33.1h-9.8l.4-18.3-6.1 18.3h-8.5L324 105h7.4l-.7 15.3 5.6-15.3h9.3l-.5 15.3 5.6-15.3zm14.1 21.8h-10l-1.1 6.3q-.2 1.4 1 1.4a1.4 1.4 0 0 0 1.5-1.4l1-5.4h7.5l-1 5.5q-1 5.4-9.8 5.4t-7.7-5.7l2.9-16.1q1-5.7 9.8-5.7t7.8 5.4zm-6.8-4l1.1-6.1q.2-1.3-1-1.3a1.4 1.4 0 0 0-1.5 1.3l-1.1 6.1zm23.6 15.4h-6.6l.2-1q-1.1 1.4-5.1 1.4-6.1 0-5.4-4.2l1-5.4a5.1 5.1 0 0 1 2.1-3.1 31.9 31.9 0 0 1 6.6-3.4q2.8-1.2 2.9-1.8l.7-4q.2-1.3-1-1.3t-2.1 3.2-.2 1.7-.2 1.7H374l1-5.4q1-5.4 9.9-5.4t7.3 5.7zm-6.6-5l1.3-6.9q-2.7.6-2.9 2l-.9 4.9q-.2 1.2 1.1 1.2a1.3 1.3 0 0 0 1.4-1.2zm32.1-21.8l-10.4 26.8h-9l-.6-26.8h7.5l-.3 15.9 5.4-15.9zm15.3 15.4h-10l-1.1 6.3q-.2 1.4 1 1.4a1.4 1.4 0 0 0 1.5-1.4l1-5.4h7.4l-1 5.5q-1 5.4-9.8 5.4t-7.7-5.7l2.9-16.1q1-5.7 9.8-5.7t7.8 5.4zm-6.8-4l1.1-6.1q.2-1.3-1-1.3a1.4 1.4 0 0 0-1.5 1.3l-1.1 6.1zm26.5-.3h-7.5l1.1-5.8c.1-.8-.2-1.2-1.1-1.2a1.3 1.3 0 0 0-1.5 1.2l-3.9 21.5h-7.5l4.9-26.8h7.5l-.2.9a9 9 0 0 1 4.8-1.1 6 6 0 0 1 3.6 1.1 2.6 2.6 0 0 1 1.1 2.8zm18.6 3.5l-2.2 12.2h-8.1l6-33.1h8.7q5.2 0 7.5 1.2t1.7 4.7l-1.7 9.2a6.3 6.3 0 0 1-2.9 4.6q-2.3 1.3-9 1.2zm3.9-6.5l1.4-7.9q.3-1.8-2.4-1.8l-2.1 11.5q2.8-.1 3.1-1.8zm26.2 3h-7.5l1.1-5.8c.1-.8-.2-1.2-1.1-1.2a1.3 1.3 0 0 0-1.5 1.2l-3.9 21.6h-7.5l4.9-26.8h7.5l-.2.9a9 9 0 0 1 4.8-1.1 6 6 0 0 1 3.6 1.1 2.6 2.6 0 0 1 1.2 2.6zm17.7 4.3h-10l-1.1 6.3q-.2 1.4 1 1.4a1.4 1.4 0 0 0 1.5-1.4l1-5.4h7.5l-1 5.5q-1 5.4-9.8 5.4t-7.7-5.7l2.9-16.1q1-5.7 9.8-5.7t7.8 5.4zm-6.8-4l1.1-6.1q.2-1.3-1-1.3a1.4 1.4 0 0 0-1.5 1.3l-1.1 6.1zm26.2.4h-7.5l1.2-6.6q.2-1.3-1-1.3a1.4 1.4 0 0 0-1.5 1.3l-3 16.4q-.2 1.4 1 1.4a1.4 1.4 0 0 0 1.5-1.4l1.2-6.5h7.5l-1.2 6.5q-1 5.4-9.6 5.4t-7.9-5.7l2.9-16.1q1-5.7 9.9-5.7t7.7 5.4zm16.1 15h-6.6l.2-1q-1.1 1.4-5.1 1.4-6.1 0-5.4-4.2l1-5.4a5.1 5.1 0 0 1 2.1-3.1 31.9 31.9 0 0 1 6.6-3.4q2.8-1.2 2.9-1.8l.7-4q.2-1.3-1-1.3t-2.1 3.2-.2 1.7-.2 1.7h-7.2l1-5.4q1-5.4 9.9-5.4t7.3 5.7zm-6.6-5l1.3-6.9q-2.7.6-2.9 2l-.9 4.9q-.2 1.2 1.1 1.2a1.3 1.3 0 0 0 1.4-1.2zm9.8-5.8h7.5l-1 5.7q-.2 1.4 1 1.4t1.7-2.6q.6-3.4-.8-4.4-5.4-2.7-6.4-3.8a3.6 3.6 0 0 1-.6-3.2l.7-3.6q1-5.7 9.8-5.7t7.5 5.4l-1 5.3h-7.3l.7-3.2q.6-3.4-.8-3.4t-1.8 2.1a6.5 6.5 0 0 0 0 3.3q.4 1.1 6.2 3.8a4.1 4.1 0 0 1 1.8 4.3l-.7 4q-1 5.7-9.9 5.7t-7.7-5.4zm31.5 10.8h-4.7q-5.1 0-5.8-1.3t-.1-5.2l3-16.4h-3.3l.7-4h3.3l1-5.4h7.4l-1 5.4h4l-.7 4h-4l-3 16.3q-.2 1.2.5 1.6a8.8 8.8 0 0 0 3.4.4zm-294.8-5.9l-.5.6h-3.5l2.5-20.5h4.7l-.5 4.4a5.5 5.5 0 0 1 3-.6 4.3 4.3 0 0 1 2.3.6 1.6 1.6 0 0 1 .9 1.7l-1.4 11.9a2.6 2.6 0 0 1-1.5 2 6.5 6.5 0 0 1-3.1.7 4.9 4.9 0 0 1-2.9-.8zm2.7-2.6l1.2-10.3q.1-.8-.7-.8a.8.8 0 0 0-.9.7l-1.2 10.3q-.1.8.7.8a.8.8 0 0 0 .8-.7zm19.6-13.5l-5.6 16.5q-.9 2.5-1.9 3.1a5.7 5.7 0 0 1-2.7.5h-3.3l.3-2.2 2.3-.2q.5-.2.6-.9a72 72 0 0 0-1.1-8.1l-1.4-8.8h4.7l.9 8.8 2.6-8.8z"/><path d="M357.5 105l-10.9 33.1h-9.8l.4-18.3-6.1 18.3h-8.5L324 105h7.4l-.7 15.3 5.6-15.3h9.3l-.5 15.3 5.6-15.3zm14.1 21.8h-10l-1.1 6.3q-.2 1.4 1 1.4a1.4 1.4 0 0 0 1.5-1.4l1-5.4h7.5l-1 5.5q-1 5.4-9.8 5.4t-7.7-5.7l2.9-16.1q1-5.7 9.8-5.7t7.8 5.4zm-6.8-4l1.1-6.1q.2-1.3-1-1.3a1.4 1.4 0 0 0-1.5 1.3l-1.1 6.1zm23.6 15.4h-6.6l.2-1q-1.1 1.4-5.1 1.4-6.1 0-5.4-4.2l1-5.4a5.1 5.1 0 0 1 2.1-3.1 31.9 31.9 0 0 1 6.6-3.4q2.8-1.2 2.9-1.8l.7-4q.2-1.3-1-1.3t-2.1 3.2-.2 1.7-.2 1.7H374l1-5.4q1-5.4 9.9-5.4t7.3 5.7zm-6.6-5l1.3-6.9q-2.7.6-2.9 2l-.9 4.9q-.2 1.2 1.1 1.2a1.3 1.3 0 0 0 1.4-1.2zm32.1-21.8l-10.4 26.8h-9l-.6-26.8h7.5l-.3 15.9 5.4-15.9zm15.3 15.4h-10l-1.1 6.3q-.2 1.4 1 1.4a1.4 1.4 0 0 0 1.5-1.4l1-5.4h7.4l-1 5.5q-1 5.4-9.8 5.4t-7.7-5.7l2.9-16.1q1-5.7 9.8-5.7t7.8 5.4zm-6.8-4l1.1-6.1q.2-1.3-1-1.3a1.4 1.4 0 0 0-1.5 1.3l-1.1 6.1zm26.5-.3h-7.5l1.1-5.8c.1-.8-.2-1.2-1.1-1.2a1.3 1.3 0 0 0-1.5 1.2l-3.9 21.5h-7.5l4.9-26.8h7.5l-.2.9a9 9 0 0 1 4.8-1.1 6 6 0 0 1 3.6 1.1 2.6 2.6 0 0 1 1.1 2.8zm18.6 3.5l-2.2 12.2h-8.1l6-33.1h8.7q5.2 0 7.5 1.2t1.7 4.7l-1.7 9.2a6.3 6.3 0 0 1-2.9 4.6q-2.3 1.3-9 1.2zm3.9-6.5l1.4-7.9q.3-1.8-2.4-1.8l-2.1 11.5q2.8-.1 3.1-1.8zm26.2 3h-7.5l1.1-5.8c.1-.8-.2-1.2-1.1-1.2a1.3 1.3 0 0 0-1.5 1.2l-3.9 21.6h-7.5l4.9-26.8h7.5l-.2.9a9 9 0 0 1 4.8-1.1 6 6 0 0 1 3.6 1.1 2.6 2.6 0 0 1 1.2 2.6zm17.7 4.3h-10l-1.1 6.3q-.2 1.4 1 1.4a1.4 1.4 0 0 0 1.5-1.4l1-5.4h7.5l-1 5.5q-1 5.4-9.8 5.4t-7.7-5.7l2.9-16.1q1-5.7 9.8-5.7t7.8 5.4zm-6.8-4l1.1-6.1q.2-1.3-1-1.3a1.4 1.4 0 0 0-1.5 1.3l-1.1 6.1zm26.2.4h-7.5l1.2-6.6q.2-1.3-1-1.3a1.4 1.4 0 0 0-1.5 1.3l-3 16.4q-.2 1.4 1 1.4a1.4 1.4 0 0 0 1.5-1.4l1.2-6.5h7.5l-1.2 6.5q-1 5.4-9.6 5.4t-7.9-5.7l2.9-16.1q1-5.7 9.9-5.7t7.7 5.4zm16.1 15h-6.6l.2-1q-1.1 1.4-5.1 1.4-6.1 0-5.4-4.2l1-5.4a5.1 5.1 0 0 1 2.1-3.1 31.9 31.9 0 0 1 6.6-3.4q2.8-1.2 2.9-1.8l.7-4q.2-1.3-1-1.3t-2.1 3.2-.2 1.7-.2 1.7h-7.2l1-5.4q1-5.4 9.9-5.4t7.3 5.7zm-6.6-5l1.3-6.9q-2.7.6-2.9 2l-.9 4.9q-.2 1.2 1.1 1.2a1.3 1.3 0 0 0 1.4-1.2zm9.8-5.8h7.5l-1 5.7q-.2 1.4 1 1.4t1.7-2.6q.6-3.4-.8-4.4-5.4-2.7-6.4-3.8a3.6 3.6 0 0 1-.6-3.2l.7-3.6q1-5.7 9.8-5.7t7.5 5.4l-1 5.3h-7.3l.7-3.2q.6-3.4-.8-3.4t-1.8 2.1a6.5 6.5 0 0 0 0 3.3q.4 1.1 6.2 3.8a4.1 4.1 0 0 1 1.8 4.3l-.7 4q-1 5.7-9.9 5.7t-7.7-5.4zm31.5 10.8h-4.7q-5.1 0-5.8-1.3t-.1-5.2l3-16.4h-3.3l.7-4h3.3l1-5.4h7.4l-1 5.4h4l-.7 4h-4l-3 16.3q-.2 1.2.5 1.6a8.8 8.8 0 0 0 3.4.4zm-294.8-5.9l-.5.6h-3.5l2.5-20.5h4.7l-.5 4.4a5.5 5.5 0 0 1 3-.6 4.3 4.3 0 0 1 2.3.6 1.6 1.6 0 0 1 .9 1.7l-1.4 11.9a2.6 2.6 0 0 1-1.5 2 6.5 6.5 0 0 1-3.1.7 4.9 4.9 0 0 1-2.9-.8zm2.7-2.6l1.2-10.3q.1-.8-.7-.8a.8.8 0 0 0-.9.7l-1.2 10.3q-.1.8.7.8a.8.8 0 0 0 .8-.7zm19.6-13.5l-5.6 16.5q-.9 2.5-1.9 3.1a5.7 5.7 0 0 1-2.7.5h-3.3l.3-2.2 2.3-.2q.5-.2.6-.9a72 72 0 0 0-1.1-8.1l-1.4-8.8h4.7l.9 8.8 2.6-8.8z" fill="none" stroke="#fff" stroke-miterlimit="3" stroke-width="5"/><path d="M357.5 105l-10.9 33.1h-9.8l.4-18.3-6.1 18.3h-8.5L324 105h7.4l-.7 15.3 5.6-15.3h9.3l-.5 15.3 5.6-15.3zm14.1 21.8h-10l-1.1 6.3q-.2 1.4 1 1.4a1.4 1.4 0 0 0 1.5-1.4l1-5.4h7.5l-1 5.5q-1 5.4-9.8 5.4t-7.7-5.7l2.9-16.1q1-5.7 9.8-5.7t7.8 5.4zm-6.8-4l1.1-6.1q.2-1.3-1-1.3a1.4 1.4 0 0 0-1.5 1.3l-1.1 6.1zm23.6 15.4h-6.6l.2-1q-1.1 1.4-5.1 1.4-6.1 0-5.4-4.2l1-5.4a5.1 5.1 0 0 1 2.1-3.1 31.9 31.9 0 0 1 6.6-3.4q2.8-1.2 2.9-1.8l.7-4q.2-1.3-1-1.3t-2.1 3.2-.2 1.7-.2 1.7H374l1-5.4q1-5.4 9.9-5.4t7.3 5.7zm-6.6-5l1.3-6.9q-2.7.6-2.9 2l-.9 4.9q-.2 1.2 1.1 1.2a1.3 1.3 0 0 0 1.4-1.2zm32.1-21.8l-10.4 26.8h-9l-.6-26.8h7.5l-.3 15.9 5.4-15.9zm15.3 15.4h-10l-1.1 6.3q-.2 1.4 1 1.4a1.4 1.4 0 0 0 1.5-1.4l1-5.4h7.4l-1 5.5q-1 5.4-9.8 5.4t-7.7-5.7l2.9-16.1q1-5.7 9.8-5.7t7.8 5.4zm-6.8-4l1.1-6.1q.2-1.3-1-1.3a1.4 1.4 0 0 0-1.5 1.3l-1.1 6.1zm26.5-.3h-7.5l1.1-5.8c.1-.8-.2-1.2-1.1-1.2a1.3 1.3 0 0 0-1.5 1.2l-3.9 21.5h-7.5l4.9-26.8h7.5l-.2.9a9 9 0 0 1 4.8-1.1 6 6 0 0 1 3.6 1.1 2.6 2.6 0 0 1 1.1 2.8zm18.6 3.5l-2.2 12.2h-8.1l6-33.1h8.7q5.2 0 7.5 1.2t1.7 4.7l-1.7 9.2a6.3 6.3 0 0 1-2.9 4.6q-2.3 1.3-9 1.2zm3.9-6.5l1.4-7.9q.3-1.8-2.4-1.8l-2.1 11.5q2.8-.1 3.1-1.8zm26.2 3h-7.5l1.1-5.8c.1-.8-.2-1.2-1.1-1.2a1.3 1.3 0 0 0-1.5 1.2l-3.9 21.6h-7.5l4.9-26.8h7.5l-.2.9a9 9 0 0 1 4.8-1.1 6 6 0 0 1 3.6 1.1 2.6 2.6 0 0 1 1.2 2.6zm17.7 4.3h-10l-1.1 6.3q-.2 1.4 1 1.4a1.4 1.4 0 0 0 1.5-1.4l1-5.4h7.5l-1 5.5q-1 5.4-9.8 5.4t-7.7-5.7l2.9-16.1q1-5.7 9.8-5.7t7.8 5.4zm-6.8-4l1.1-6.1q.2-1.3-1-1.3a1.4 1.4 0 0 0-1.5 1.3l-1.1 6.1zm26.2.4h-7.5l1.2-6.6q.2-1.3-1-1.3a1.4 1.4 0 0 0-1.5 1.3l-3 16.4q-.2 1.4 1 1.4a1.4 1.4 0 0 0 1.5-1.4l1.2-6.5h7.5l-1.2 6.5q-1 5.4-9.6 5.4t-7.9-5.7l2.9-16.1q1-5.7 9.9-5.7t7.7 5.4zm16.1 15h-6.6l.2-1q-1.1 1.4-5.1 1.4-6.1 0-5.4-4.2l1-5.4a5.1 5.1 0 0 1 2.1-3.1 31.9 31.9 0 0 1 6.6-3.4q2.8-1.2 2.9-1.8l.7-4q.2-1.3-1-1.3t-2.1 3.2-.2 1.7-.2 1.7h-7.2l1-5.4q1-5.4 9.9-5.4t7.3 5.7zm-6.6-5l1.3-6.9q-2.7.6-2.9 2l-.9 4.9q-.2 1.2 1.1 1.2a1.3 1.3 0 0 0 1.4-1.2zm9.8-5.8h7.5l-1 5.7q-.2 1.4 1 1.4t1.7-2.6q.6-3.4-.8-4.4-5.4-2.7-6.4-3.8a3.6 3.6 0 0 1-.6-3.2l.7-3.6q1-5.7 9.8-5.7t7.5 5.4l-1 5.3h-7.3l.7-3.2q.6-3.4-.8-3.4t-1.8 2.1a6.5 6.5 0 0 0 0 3.3q.4 1.1 6.2 3.8a4.1 4.1 0 0 1 1.8 4.3l-.7 4q-1 5.7-9.9 5.7t-7.7-5.4zm31.5 10.8h-4.7q-5.1 0-5.8-1.3t-.1-5.2l3-16.4h-3.3l.7-4h3.3l1-5.4h7.4l-1 5.4h4l-.7 4h-4l-3 16.3q-.2 1.2.5 1.6a8.8 8.8 0 0 0 3.4.4zm-294.8-5.9l-.5.6h-3.5l2.5-20.5h4.7l-.5 4.4a5.5 5.5 0 0 1 3-.6 4.3 4.3 0 0 1 2.3.6 1.6 1.6 0 0 1 .9 1.7l-1.4 11.9a2.6 2.6 0 0 1-1.5 2 6.5 6.5 0 0 1-3.1.7 4.9 4.9 0 0 1-2.9-.8zm2.7-2.6l1.2-10.3q.1-.8-.7-.8a.8.8 0 0 0-.9.7l-1.2 10.3q-.1.8.7.8a.8.8 0 0 0 .8-.7zm19.6-13.5l-5.6 16.5q-.9 2.5-1.9 3.1a5.7 5.7 0 0 1-2.7.5h-3.3l.3-2.2 2.3-.2q.5-.2.6-.9a72 72 0 0 0-1.1-8.1l-1.4-8.8h4.7l.9 8.8 2.6-8.8z"/></svg>