<?xml version="1.0" encoding="UTF-8"?>
<svg width="46px" height="64px" viewBox="0 0 46 64" version="1.1" xmlns="http://www.w3.org/2000/svg" xmlns:xlink="http://www.w3.org/1999/xlink">
    <!-- Generator: Sketch 49.3 (51167) - http://www.bohemiancoding.com/sketch -->
    <title>location</title>
    <desc>Created with Sketch.</desc>
    <defs></defs>
    <g id="Service-Area" stroke="none" stroke-width="1" fill="none" fill-rule="evenodd">
        <g id="Contact" transform="translate(-1329.000000, -953.000000)" fill="#2B66B5">
            <g id="contact" transform="translate(271.000000, 532.000000)">
                <g id="Location-&amp;-Directions" transform="translate(719.000000, 54.000000)">
                    <path d="M362.000697,396.634087 C358.572303,396.634087 355.783727,393.771478 355.783727,390.25287 C355.783727,386.734261 358.572303,383.871652 362.000697,383.871652 C365.429091,383.871652 368.219061,386.734261 368.219061,390.25287 C368.219061,393.771478 365.429091,396.634087 362.000697,396.634087 M362.000697,379.002087 C355.882697,379.002087 350.904939,384.049043 350.904939,390.25287 C350.904939,396.456696 355.882697,401.503652 362.000697,401.503652 C368.119394,401.503652 373.097848,396.456696 373.097848,390.25287 C373.097848,384.049043 368.119394,379.002087 362.000697,379.002087 M361.997909,424.138087 C360.114,422.05113 357.137242,418.57287 354.172333,414.376 C347.89403,405.489043 344.575758,397.521739 344.575758,391.335304 C344.575758,373.918957 357.912273,372.565217 362,372.565217 C378.167606,372.565217 379.424242,386.931826 379.424242,391.335304 C379.424242,403.583652 366.939424,418.653565 361.997909,424.138087 M377.646273,372.522087 C373.642879,368.961739 368.085939,367 362,367 C355.914061,367 350.357121,368.961739 346.353727,372.522087 C341.542545,376.801739 339,383.306783 339,391.335304 C339,408.822609 359.162636,429.313739 360.020606,430.177043 C360.54403,430.704348 361.25703,431 362,431 C362.74297,431 363.45597,430.704348 363.979394,430.177043 C364.837364,429.313739 385,408.822609 385,391.335304 C385,383.306783 382.457455,376.801739 377.646273,372.522087" id="location"></path>
                </g>
            </g>
        </g>
    </g>
</svg>