<?xml version="1.0" encoding="UTF-8"?>
<svg width="106px" height="106px" viewBox="0 0 106 106" version="1.1" xmlns="http://www.w3.org/2000/svg" xmlns:xlink="http://www.w3.org/1999/xlink">
    <!-- Generator: Sketch 47.1 (45422) - http://www.bohemiancoding.com/sketch -->
    <title>play</title>
    <desc>Created with Sketch.</desc>
    <defs></defs>
    <g id="Icons" stroke="none" stroke-width="1" fill="none" fill-rule="evenodd">
        <path d="M53,106 C23.7289083,106 0,82.2710917 0,53 C0,23.7289083 23.7289083,0 53,0 C82.2710917,0 106,23.7289083 106,53 C106,82.2710917 82.2710917,106 53,106 Z M62.0986544,55.0054779 C62.320481,54.8604374 62.5098768,54.6710416 62.6549172,54.449215 C63.2352132,53.5617036 62.9861658,52.3718106 62.0986544,51.7915146 L46.8053052,41.7920171 C46.4929327,41.5877735 46.1278049,41.4789987 45.7545864,41.4789987 C44.6941997,41.4789987 43.8345865,42.338612 43.8345865,43.3989987 L43.8345865,63.3979938 C43.8345865,63.7712123 43.9433612,64.13634 44.1476048,64.4487125 C44.7279007,65.336224 45.9177937,65.5852714 46.8053052,65.0049754 L62.0986544,55.0054779 Z" id="play" fill="#FFFFFF"></path>
    </g>
</svg>