<?xml version="1.0" encoding="utf-8"?>
<!-- Generator: Adobe Illustrator 15.0.0, SVG Export Plug-In . SVG Version: 6.00 Build 0)  -->
<!DOCTYPE svg PUBLIC "-//W3C//DTD SVG 1.1//EN" "http://www.w3.org/Graphics/SVG/1.1/DTD/svg11.dtd">
<svg version="1.1" id="Layer_1" xmlns="http://www.w3.org/2000/svg" xmlns:xlink="http://www.w3.org/1999/xlink" x="0px" y="0px"
	 width="150px" height="150px" viewBox="0 0 150 150" enable-background="new 0 0 150 150" xml:space="preserve">
<g>
	<path fill="#FFFFFF" d="M71.687,79.692l0.361,0.091l2.077-0.541v-0.184h0.453v-0.18h0.36V78.61h0.453v-0.18h0.359l1.085-0.997
		h0.359l1.085-0.812l1.839-1.177l0.726-1.173l1.084-0.904l1.324,6.531l0.992-0.9L84.697,78l1.625-1.807v-0.271l1.99-2.257
		l0.089-0.541l0.451-0.453l0.993-2.076l0.453-0.36l0.271-0.633l0.72-0.813l1.626-0.091l0.996,0.363l0.993,0.812l0.633,1.535
		l-0.364,1.263l-3.167-5.081l-0.54,1.264l-0.545,0.361l-1.44,2.438l-1.537,2.442l-0.452,0.541l-0.271,0.092l-0.27,0.629
		l-0.812,0.725v0.36l-1.989,2.169l-1.897,2.166L81.171,81.5l-0.633,0.813h-0.451l-0.361,0.633h-0.452v0.18l-1.354,0.721
		l-1.628,1.266l-2.618,0.812l-2.077,0.813l-3.071,0.092l-2.531-0.18l-1.084-0.361l-1.081-0.632l-1.177-1.085l-1.26-1.897
		l-0.545-0.54l-0.452-2.623l-0.181-3.157l0.365-2.892l0.813-2.71l0.629-2.801l0.182-0.723l0.268-0.271v-0.632l0.273-0.181
		l0.452-0.993l0.361-0.18V64.52h0.18l0.272-1.265l0.633-1.353l0.268-1.265h0.271v-0.36l1.358-2.53l0.812-2.71l0.539-1.356
		l0.094-0.633h0.268v-0.36l0.452-1.081l0.36-3.074v-0.36l-0.992-1.084l-0.633-0.36h-1.174l-2.889,0.812l-2.62,1.537l-0.996,0.993
		L59.13,50.34l-0.993,1.172l-1.174,0.905l-0.812,1.082l-0.633,1.265l-0.18,0.993l-0.18,0.092l-0.181,0.905h-0.272l-0.18,1.172
		l-0.813,1.718l-0.092,0.813l-0.272,0.268l-0.993,2.709l-1.081,2.71l-0.817,2.078l-0.449,0.359l-0.905,2.531l-0.905,2.164
		l-0.541,1.991l-0.36,0.452l-1.172,2.797l-0.817,2.619l-1.172,2.622l-1.173,1.354l-0.994,0.36l-3.162,0.363l-1.445-0.273
		l-0.724-0.359h-1.534L33.75,84.84l-0.269-0.629v-1.446l0.901-2.71l0.272-0.996l0.272-0.18l0.088-0.633l1.445-2.525l1.085-2.803
		l0.36-1.082l0.272-0.362l0.272-1.446l1.805-4.516l1.085-2.618l0.449-1.265l0.272-0.18l2.17-5.421l1.081-2.529l0.997-2.71
		l0.993-2.074l0.453-1.809l0.268-0.18l0.905-2.619l1.085-2.529l0.812-1.626l1.085-0.812l0.721,0.088l2.53,1.177l0.813,0.36
		l0.359,0.452h0.453v0.18l2.529,1.265h0.9l1.266-0.453l2.438-1.717l1.898-1.081h0.359V39.14h0.452v-0.181l1.625-0.364v-0.18
		l2.621-0.632l1.266-0.269h3.252l1.352,0.36L78.82,39.5l1.085,0.905l0.361,1.445l0.271,0.181l0.541,1.717l-0.089,2.707l-0.724,2.89
		l-0.905,2.89l-0.721,1.629l-0.092,0.721l-0.812,1.625l-0.18,0.724l-0.269,0.269l-0.816,2.622l-0.449,0.633l-0.363,1.261
		l-1.262,2.71l-0.452,0.903l-0.363,1.354l-0.722,1.81l-0.272,0.27l-0.632,1.716l-0.812,2.798l-0.27,1.719H70.69l0.093,2.982
		l0.091,0.9l0.723,0.632L71.687,79.692z"/>
</g>
<g>
	<path fill="#FFFFFF" d="M94.391,87.067l0.09-2.077l0.994-2.349l1.085-2.798l0.269-1.538v-1.354l-0.812-1.084l-1.445-0.271
		l-1.446,0.18l-1.444,0.451l-0.541,0.633l-0.721,0.092l-2.077,1.986l-0.184,0.633l-0.36,0.18l-1.534,2.259l-1.444,2.53l-0.632,1.716
		l-0.453,0.182v0.631l-1.173,2.258l-0.633,2.258l-0.273,0.181l-0.903,2.618L80.03,97l-0.18,1.356l-0.182,0.361l-0.363,2.89
		l-0.088,1.356l1.265,2.526l0.721,1.085l1.718,1.174l2.979,0.723l1.356,0.272l2.799-0.362h0.725l1.532-0.453l0.365-0.27l1.444-0.359
		l2.438-1.266l2.438-1.444l1.084-0.903l0.632-0.273l0.633-0.901l1.173-0.723l1.986-2.167l0.813-0.725l0.631-0.27l0.092-0.544
		l0.813-0.541L106.947,97l1.533-1.532v-0.361l0.812-0.633v-0.453l0.453-0.179l0.092-0.633l1.626-2.171l0.449-0.719l1.175-0.726
		h1.446l1.174,0.632l0.812,1.357v1.353l-0.541,1.174l-0.271,0.272l-0.272,0.904l-0.541,0.541L114.261,97l-1.806,2.169l-0.271,0.633
		l-0.453,0.361l-0.18,0.632l-0.633,0.359l-0.18,0.635l-0.633,0.45l-0.179,0.634l-0.635,0.36l-0.178,0.631l-2.167,1.897l-1.45,1.174
		l-0.268,0.813l-0.271,0.271l-0.541,0.092l-0.271,0.447h-0.361l-0.179,0.365h-0.453l-0.992,0.901l-2.078,1.444l-2.438,1.178
		l-0.997,0.812l-0.9,0.268l-0.453,0.364l-2.799,0.633l-0.996,0.18v0.182l-0.813,0.271l-2.889,0.36l-0.994,0.359l-2.71-0.359
		l-0.632,0.181l-2.979-0.181h-0.632l-0.182-0.181h-0.631l-0.453-0.363l-2.801-1.082l-1.174-0.632l-0.722-0.181l-0.363-0.632
		l-1.081-0.997l-1.717-2.438l-0.541-0.9l-0.545-1.989l-0.452-2.259l0.273-0.451h-0.182l-0.271-2.799l0.271-2.799l0.813-2.801
		l0.359-2.798l0.181-0.182v-0.632l0.452-1.178l0.273-1.532l0.991-2.438l0.361-0.451l0.992-2.623l0.633-1.172l0.633-0.634v-0.453
		l0.362-0.178v-0.453h0.182v-0.36l0.453-0.452l0.72-1.354l1.445-1.536l0.18-0.633l0.36-0.18l0.725-1.174l1.173-1.085l1.084-1.353
		l0.635-0.18L83.28,70.9l1.174-0.726l1.177-0.993l1.354-0.541l0.271-0.271l0.632-0.18l0.541-0.541l0.544-0.092l0.181-0.18
		l2.346-0.359l0.181-0.182l2.891-0.363l1.356-0.269l2.978,0.54l2.804,0.541l2.165,1.717l0.995,0.904l0.541,0.994l0.541,0.541
		l0.544,0.99l0.633,3.076l0.18,1.352l-0.271,2.891l-0.452,2.53l-1.086,2.798l-0.268,0.993l-1.989,1.99l-2.706,0.267l-2.89,0.094
		l-1.718-0.094l-1.356-1.173L94.391,87.067z"/>
</g>
<g>
	<path fill="#FFFFFF" d="M75,10c35.841,0,65,29.159,65,65c0,35.841-29.159,65-65,65c-35.841,0-65-29.159-65-65
		C10,39.159,39.159,10,75,10 M75,0C33.579,0,0,33.579,0,75c0,41.421,33.579,75,75,75c41.421,0,75-33.579,75-75
		C150,33.579,116.421,0,75,0L75,0z"/>
</g>
</svg>
