<?xml version="1.0" standalone="no"?>
<!DOCTYPE svg PUBLIC "-//W3C//DTD SVG 20010904//EN"
 "http://www.w3.org/TR/2001/REC-SVG-20010904/DTD/svg10.dtd">
<svg version="1.0" xmlns="http://www.w3.org/2000/svg"
 width="1072.000000pt" height="1072.000000pt" viewBox="0 0 1072.000000 1072.000000"
 preserveAspectRatio="xMidYMid meet">
<metadata>
Created by potrace 1.11, written by Peter Selinger 2001-2013
</metadata>
<g transform="translate(0.000000,1072.000000) scale(0.100000,-0.100000)"
fill="#000000" stroke="none">
<path d="M133 8378 c-88 -42 -138 -124 -130 -212 12 -123 93 -205 210 -211 41
-2 54 -7 67 -26 8 -13 18 -25 23 -27 4 -2 7 -8 7 -13 0 -4 50 -87 110 -184 61
-97 110 -180 110 -184 0 -5 3 -11 8 -13 6 -2 95 -143 406 -643 27 -44 54 -90
60 -102 6 -13 14 -23 19 -23 4 0 7 -6 7 -14 0 -7 6 -19 14 -25 8 -7 22 -26 31
-44 9 -18 41 -70 71 -117 30 -47 57 -93 60 -102 4 -10 9 -18 13 -18 3 0 18
-21 31 -47 14 -26 33 -56 43 -67 9 -11 17 -25 17 -31 0 -6 8 -20 18 -31 9 -10
26 -36 37 -56 11 -21 23 -38 27 -38 5 0 8 -9 8 -19 0 -11 3 -21 8 -23 11 -5
62 -83 62 -96 0 -7 5 -12 10 -12 6 0 10 -7 10 -15 0 -8 5 -15 10 -15 6 0 10
-6 10 -12 0 -7 14 -31 30 -52 17 -22 30 -43 30 -47 0 -4 19 -36 43 -71 23 -35
51 -80 62 -100 11 -21 23 -38 27 -38 5 0 8 -4 8 -10 0 -5 20 -40 44 -77 l43
-67 -19 -38 c-73 -141 36 -316 197 -320 45 -1 47 -2 76 -52 37 -62 52 -87 62
-100 23 -30 317 -509 317 -517 0 -5 4 -9 9 -9 5 0 14 -13 21 -30 7 -16 16 -30
21 -30 5 0 9 -6 9 -12 0 -7 14 -33 31 -58 16 -25 48 -76 71 -115 23 -38 44
-72 47 -75 10 -8 31 -44 44 -72 6 -16 14 -28 18 -28 4 0 12 -13 19 -30 7 -17
16 -30 21 -30 5 0 9 -4 9 -10 0 -9 68 -122 88 -145 5 -6 11 -15 13 -21 2 -5
36 -60 74 -122 39 -62 75 -120 80 -130 6 -9 51 -81 100 -159 50 -79 95 -151
100 -160 6 -10 85 -139 178 -286 92 -147 167 -272 167 -277 0 -6 -4 -10 -8
-10 -14 0 -35 -81 -33 -126 6 -198 255 -286 390 -139 23 25 41 49 41 55 0 7
459 10 1419 10 l1419 0 22 -35 c12 -19 43 -50 68 -67 39 -27 57 -32 110 -34
70 -3 99 6 154 48 160 123 74 382 -131 393 -41 2 -45 5 -70 51 -14 27 -29 51
-33 52 -5 2 -8 8 -8 13 0 6 -16 35 -35 65 -19 30 -35 61 -35 68 0 8 -4 16 -8
18 -8 3 -117 187 -190 318 -14 25 -40 69 -58 98 -19 28 -31 52 -27 52 3 0 -1
8 -9 18 -8 9 -26 37 -39 62 -13 25 -26 47 -29 50 -5 5 -11 16 -56 96 -32 57
-152 265 -164 284 -29 46 -60 104 -60 111 0 5 -4 9 -9 9 -5 0 -12 11 -15 25
-4 14 -11 25 -16 25 -6 0 -10 4 -10 9 0 5 -57 108 -126 228 -70 120 -140 243
-157 273 -16 30 -38 66 -47 80 -10 14 -34 57 -55 95 -21 39 -46 81 -55 95 -9
14 -20 32 -23 40 -4 8 -16 29 -27 45 -11 17 -24 39 -29 51 -5 12 -24 44 -41
72 -27 44 -30 54 -19 74 7 13 16 26 22 29 5 4 10 40 10 81 1 61 -3 81 -22 112
-46 73 -109 114 -187 119 -45 3 -49 5 -73 48 -74 131 -226 395 -231 399 -3 3
-13 21 -23 40 -34 63 -52 95 -58 100 -3 3 -8 12 -12 20 -3 8 -20 38 -37 65
-16 28 -37 64 -46 80 -8 17 -25 46 -37 67 -12 20 -51 87 -87 150 -35 62 -68
115 -72 116 -4 2 -8 7 -8 12 0 7 -67 124 -229 403 -28 49 -51 91 -51 93 0 3
-5 10 -10 17 -6 7 -34 53 -62 102 -28 50 -62 108 -75 130 -13 22 -26 48 -30
58 -3 9 -9 17 -14 17 -5 0 -9 4 -9 10 0 5 -14 33 -31 62 -35 59 -60 101 -97
168 -14 25 -36 62 -49 82 -12 21 -23 39 -23 42 0 2 -18 34 -40 70 -22 36 -40
70 -40 76 0 5 -4 10 -10 10 -15 0 -12 26 4 42 29 30 40 135 19 187 -35 87
-104 139 -198 148 -84 8 -174 -40 -215 -116 -10 -20 -18 -22 -128 -22 -64 0
-126 0 -137 0 -15 0 -381 0 -485 0 -8 0 -116 0 -240 0 -124 0 -232 0 -240 0
-8 0 -116 0 -240 0 -124 0 -232 0 -240 0 -8 0 -116 0 -240 0 -124 0 -232 0
-240 0 -8 0 -116 0 -240 0 -124 0 -232 0 -240 0 -8 0 -108 0 -222 0 -165 0
-208 3 -208 13 0 19 -67 86 -104 105 -47 25 -143 25 -193 1z m2081 -2926 c3
-5 -1 -9 -9 -9 -8 0 -12 4 -9 9 3 4 7 8 9 8 2 0 6 -4 9 -8z m71 -2 c3 -5 1
-10 -4 -10 -6 0 -11 5 -11 10 0 6 2 10 4 10 3 0 8 -4 11 -10z m65 6 c0 -3 -4
-8 -10 -11 -5 -3 -10 -1 -10 4 0 6 5 11 10 11 6 0 10 -2 10 -4z m34 -4 c3 -5
-1 -9 -9 -9 -8 0 -12 4 -9 9 3 4 7 8 9 8 2 0 6 -4 9 -8z m61 -2 c3 -5 1 -10
-4 -10 -6 0 -11 5 -11 10 0 6 2 10 4 10 3 0 8 -4 11 -10z m89 2 c2 -4 -5 -9
-17 -9 -17 -2 -19 0 -7 7 18 12 18 12 24 2z m71 -2 c3 -5 1 -10 -4 -10 -6 0
-11 5 -11 10 0 6 2 10 4 10 3 0 8 -4 11 -10z m65 6 c0 -3 -4 -8 -10 -11 -5 -3
-10 -1 -10 4 0 6 5 11 10 11 6 0 10 -2 10 -4z m34 -4 c3 -5 -1 -9 -9 -9 -8 0
-12 4 -9 9 3 4 7 8 9 8 2 0 6 -4 9 -8z m61 -2 c3 -5 1 -10 -4 -10 -6 0 -11 5
-11 10 0 6 2 10 4 10 3 0 8 -4 11 -10z m89 2 c2 -4 -5 -9 -17 -9 -17 -2 -19 0
-7 7 18 12 18 12 24 2z m71 -2 c3 -5 1 -10 -4 -10 -6 0 -11 5 -11 10 0 6 2 10
4 10 3 0 8 -4 11 -10z m65 6 c0 -3 -4 -8 -10 -11 -5 -3 -10 -1 -10 4 0 6 5 11
10 11 6 0 10 -2 10 -4z m34 -4 c3 -5 -1 -9 -9 -9 -8 0 -12 4 -9 9 3 4 7 8 9 8
2 0 6 -4 9 -8z m61 -2 c3 -5 1 -10 -4 -10 -6 0 -11 5 -11 10 0 6 2 10 4 10 3
0 8 -4 11 -10z m105 -5 c0 -1 -12 -2 -26 -2 -17 0 -22 2 -13 7 10 7 39 3 39
-5z m35 -3 c-3 -3 -11 0 -18 7 -9 10 -8 11 6 5 10 -3 15 -9 12 -12z m114 9
c10 -7 7 -9 -12 -8 -14 1 -23 5 -20 10 6 9 15 9 32 -2z m46 -9 c-3 -3 -11 0
-18 7 -9 10 -8 11 6 5 10 -3 15 -9 12 -12z m69 10 c3 -5 -1 -9 -9 -9 -8 0 -12
4 -9 9 3 4 7 8 9 8 2 0 6 -4 9 -8z m36 -2 c0 -5 -2 -10 -4 -10 -3 0 -8 5 -11
10 -3 6 -1 10 4 10 6 0 11 -4 11 -10z m55 -8 c-3 -3 -11 0 -18 7 -9 10 -8 11
6 5 10 -3 15 -9 12 -12z m114 9 c10 -7 7 -9 -12 -8 -14 1 -23 5 -20 10 6 9 15
9 32 -2z m46 -9 c-3 -3 -11 0 -18 7 -9 10 -8 11 6 5 10 -3 15 -9 12 -12z m69
10 c3 -5 -1 -9 -9 -9 -8 0 -12 4 -9 9 3 4 7 8 9 8 2 0 6 -4 9 -8z m36 -2 c0
-5 -2 -10 -4 -10 -3 0 -8 5 -11 10 -3 6 -1 10 4 10 6 0 11 -4 11 -10z m55 -8
c-3 -3 -11 0 -18 7 -9 10 -8 11 6 5 10 -3 15 -9 12 -12z m114 9 c10 -7 7 -9
-12 -8 -14 1 -23 5 -20 10 6 9 15 9 32 -2z m46 -9 c-3 -3 -11 0 -18 7 -9 10
-8 11 6 5 10 -3 15 -9 12 -12z m69 10 c3 -5 -1 -9 -9 -9 -8 0 -12 4 -9 9 3 4
7 8 9 8 2 0 6 -4 9 -8z m36 -2 c0 -5 -2 -10 -4 -10 -3 0 -8 5 -11 10 -3 6 -1
10 4 10 6 0 11 -4 11 -10z m54 2 c3 -5 -1 -9 -9 -9 -8 0 -12 4 -9 9 3 4 7 8 9
8 2 0 6 -4 9 -8z m160 0 c3 -5 -1 -9 -9 -9 -8 0 -12 4 -9 9 3 4 7 8 9 8 2 0 6
-4 9 -8z m86 4 c0 -3 -4 -8 -10 -11 -5 -3 -10 -1 -10 4 0 6 5 11 10 11 6 0 10
-2 10 -4z m34 -4 c3 -5 -1 -9 -9 -9 -8 0 -12 4 -9 9 3 4 7 8 9 8 2 0 6 -4 9
-8z m40 0 c3 -5 -1 -9 -9 -9 -8 0 -12 4 -9 9 3 4 7 8 9 8 2 0 6 -4 9 -8z m160
0 c3 -5 -1 -9 -9 -9 -8 0 -12 4 -9 9 3 4 7 8 9 8 2 0 6 -4 9 -8z m86 4 c0 -3
-4 -8 -10 -11 -5 -3 -10 -1 -10 4 0 6 5 11 10 11 6 0 10 -2 10 -4z m34 -4 c3
-5 -1 -9 -9 -9 -8 0 -12 4 -9 9 3 4 7 8 9 8 2 0 6 -4 9 -8z m40 0 c3 -5 -1 -9
-9 -9 -8 0 -12 4 -9 9 3 4 7 8 9 8 2 0 6 -4 9 -8z m160 0 c3 -5 -1 -9 -9 -9
-8 0 -12 4 -9 9 3 4 7 8 9 8 2 0 6 -4 9 -8z m86 4 c0 -3 -4 -8 -10 -11 -5 -3
-10 -1 -10 4 0 6 5 11 10 11 6 0 10 -2 10 -4z m34 -4 c3 -5 -1 -9 -9 -9 -8 0
-12 4 -9 9 3 4 7 8 9 8 2 0 6 -4 9 -8z m-2847 -8 c-3 -3 -12 -4 -19 -1 -8 3
-5 6 6 6 11 1 17 -2 13 -5z m230 0 c-3 -3 -12 -4 -19 -1 -8 3 -5 6 6 6 11 1
17 -2 13 -5z m90 0 c-3 -3 -12 -4 -19 -1 -8 3 -5 6 6 6 11 1 17 -2 13 -5z
m230 0 c-3 -3 -12 -4 -19 -1 -8 3 -5 6 6 6 11 1 17 -2 13 -5z m90 0 c-3 -3
-12 -4 -19 -1 -8 3 -5 6 6 6 11 1 17 -2 13 -5z m230 0 c-3 -3 -12 -4 -19 -1
-8 3 -5 6 6 6 11 1 17 -2 13 -5z"/>
<path d="M6879 8368 c-103 -59 -142 -185 -89 -288 21 -42 21 -43 3 -79 -10
-19 -24 -42 -31 -50 -11 -11 -11 -16 0 -26 17 -17 129 -78 133 -73 13 13 55
81 55 88 0 11 -1 11 56 15 60 4 127 41 165 91 18 24 40 44 48 45 9 1 37 1 64
1 l47 1 0 83 0 84 -63 0 -63 0 -32 45 c-66 94 -191 121 -293 63z"/>
<path d="M10440 8394 c-64 -24 -125 -72 -141 -112 -8 -20 -15 -22 -69 -21 -33
1 -63 -1 -66 -4 -10 -10 -10 -149 1 -155 5 -4 30 -7 55 -8 74 -2 78 -3 86 -26
11 -35 73 -87 119 -100 55 -15 113 -14 155 4 45 19 100 66 100 84 0 8 4 14 8
14 12 0 28 51 31 102 4 78 -41 157 -115 199 -38 21 -133 35 -164 23z"/>
<path d="M7524 8201 c1 -31 -2 -64 -6 -73 -6 -12 -5 -18 2 -18 6 0 8 -4 5 -10
-9 -15 28 -19 187 -18 l146 1 -1 86 -2 86 -167 1 -167 1 3 -56z"/>
<path d="M8043 8251 c-7 -5 -10 -129 -4 -162 1 -7 331 -8 332 0 0 3 1 42 2 86
l1 80 -161 1 c-88 1 -165 -1 -170 -5z"/>
<path d="M8573 8251 c-7 -5 -9 -84 -4 -152 1 -14 22 -16 166 -16 132 0 165 3
166 13 3 44 4 141 1 150 -3 12 -313 16 -329 5z"/>
<path d="M9103 8246 c-4 -6 -8 -45 -8 -87 l0 -76 168 0 c92 0 167 3 168 6 1 3
2 41 3 84 1 61 -2 78 -14 81 -35 10 -311 3 -317 -8z"/>
<path d="M9629 8247 c-1 -20 -1 -130 0 -156 1 -17 4 -21 14 -14 6 5 82 8 167
7 l156 -1 -1 86 0 86 -168 2 c-121 1 -167 -2 -168 -10z"/>
<path d="M7210 7886 c-19 -11 -41 -26 -48 -32 -6 -7 -21 -16 -32 -19 -11 -3
-20 -11 -20 -17 0 -12 62 -118 97 -165 13 -18 22 -33 19 -33 -3 0 5 -16 19
-35 13 -20 25 -41 27 -47 3 -8 21 -2 54 17 27 15 51 31 54 35 3 4 15 10 27 14
21 7 20 10 -28 86 -27 44 -49 82 -49 84 0 2 -19 33 -42 68 l-43 65 -35 -21z"/>
<path d="M10201 7873 c-61 -94 -153 -255 -147 -260 3 -3 34 -23 68 -44 49 -30
65 -36 74 -26 17 18 151 243 158 264 4 14 -6 25 -42 46 -26 15 -56 34 -67 42
-18 13 -22 11 -44 -22z"/>
<path d="M6632 7743 c-12 -31 -125 -227 -141 -246 -19 -22 -9 -33 71 -76 58
-32 78 -38 78 -22 0 5 36 70 79 144 l79 136 -58 34 c-79 47 -98 53 -108 30z"/>
<path d="M7450 7420 c-41 -25 -64 -46 -62 -55 2 -13 94 -169 132 -225 6 -8 13
-23 16 -32 8 -24 19 -23 73 9 78 45 93 59 79 75 -7 7 -24 35 -38 61 -13 26
-28 47 -32 47 -5 0 -8 5 -8 10 0 6 -18 39 -40 72 -22 34 -40 66 -40 70 0 14
-13 8 -80 -32z"/>
<path d="M9928 7430 c-7 -16 -16 -30 -19 -30 -4 0 -10 -8 -13 -17 -3 -10 -12
-27 -19 -38 -6 -11 -33 -54 -58 -96 l-46 -75 31 -21 c103 -69 116 -75 123 -56
4 10 26 48 50 86 24 37 43 71 43 76 0 5 4 11 8 13 4 2 20 25 36 51 27 47 27
49 9 63 -20 16 -120 74 -127 74 -2 0 -10 -13 -18 -30z"/>
<path d="M6371 7284 c-12 -19 -21 -37 -21 -40 0 -3 -5 -10 -11 -17 -5 -7 -35
-55 -64 -107 l-54 -94 72 -42 c40 -23 75 -39 79 -36 20 20 167 287 160 293 -4
4 -31 19 -60 34 -29 15 -55 31 -58 36 -10 17 -22 9 -43 -27z"/>
<path d="M7738 6974 c-38 -24 -68 -46 -68 -49 0 -2 16 -29 35 -59 19 -30 35
-60 35 -66 0 -5 3 -10 8 -10 4 0 16 -17 27 -37 28 -54 65 -108 73 -108 15 1
62 29 62 37 0 4 5 8 11 8 6 0 24 9 40 21 l30 21 -24 31 c-13 18 -27 39 -31 47
-13 28 -126 211 -129 209 -1 0 -32 -20 -69 -45z"/>
<path d="M9661 6993 c-12 -14 -21 -29 -21 -34 0 -4 -6 -14 -13 -21 -7 -7 -18
-24 -25 -38 -7 -14 -28 -50 -47 -80 -19 -30 -40 -63 -45 -72 -9 -15 0 -25 62
-65 39 -25 73 -42 75 -37 2 6 18 32 36 59 18 28 46 73 62 100 16 28 34 57 40
66 38 61 39 55 -23 93 -31 19 -62 40 -69 45 -8 8 -18 3 -32 -16z"/>
<path d="M6051 6718 c-45 -78 -80 -146 -78 -152 3 -6 17 -18 33 -26 16 -8 31
-17 34 -20 8 -8 73 -41 75 -38 1 2 17 30 36 63 19 33 39 69 46 80 7 11 15 27
19 35 4 8 21 37 37 63 17 27 26 52 21 57 -5 4 -39 24 -75 43 l-65 36 -83 -141z"/>
<path d="M8009 6529 c-35 -23 -66 -43 -68 -45 -2 -2 2 -12 10 -21 8 -10 24
-35 34 -55 11 -21 23 -38 27 -38 5 0 8 -5 8 -10 0 -10 73 -134 91 -154 4 -5
39 10 79 33 79 47 78 37 14 139 -19 29 -34 56 -34 61 0 4 -9 16 -20 26 -11 10
-20 23 -20 28 0 13 -42 77 -51 77 -3 0 -34 -19 -70 -41z"/>
<path d="M9359 6503 c-86 -136 -129 -214 -124 -224 4 -5 21 -16 38 -25 18 -9
34 -20 37 -23 12 -14 52 -31 61 -26 10 7 65 91 88 138 8 15 18 27 23 27 5 0 7
4 3 9 -3 5 1 15 8 23 7 7 22 28 34 47 l21 35 -70 43 c-38 24 -71 43 -73 43 -2
0 -22 -30 -46 -67z"/>
<path d="M5805 6317 c-33 -56 -72 -122 -87 -146 -17 -28 -24 -48 -19 -55 16
-20 144 -81 148 -71 2 6 39 71 82 145 87 148 86 141 11 181 -25 13 -52 29 -61
36 -13 11 -23 -1 -74 -90z"/>
<path d="M9120 6117 c0 -7 -9 -23 -20 -35 -11 -12 -20 -28 -20 -36 0 -8 -4
-16 -8 -18 -4 -1 -17 -19 -28 -38 -11 -19 -37 -61 -57 -92 l-37 -56 72 -46 72
-46 34 52 c66 104 145 239 141 241 -31 21 -91 58 -116 71 -26 13 -33 14 -33 3z"/>
<path d="M8278 6082 c-52 -33 -73 -64 -50 -74 7 -3 92 -140 101 -163 2 -5 7
-12 11 -15 4 -3 16 -20 27 -39 10 -18 21 -34 25 -35 10 -2 138 78 138 85 0 4
-21 41 -47 83 -50 79 -52 82 -92 154 -14 23 -32 42 -40 41 -9 0 -42 -17 -73
-37z"/>
<path d="M5562 5883 c-22 -38 -60 -104 -86 -147 l-45 -79 47 -25 c26 -14 56
-31 67 -38 31 -22 38 -17 76 49 20 34 57 97 83 141 25 43 46 81 46 85 0 5
-134 81 -144 81 -2 0 -22 -30 -44 -67z"/>
<path d="M8610 5665 c-14 -8 -34 -19 -45 -24 -11 -6 -31 -19 -44 -29 l-25 -20
19 -28 c42 -62 47 -77 34 -101 -7 -13 -15 -23 -18 -24 -3 0 -33 -1 -66 -2
l-59 -2 -1 -78 c0 -44 2 -82 5 -85 3 -4 32 -7 65 -7 54 0 61 -2 74 -27 14 -24
14 -28 -3 -47 -11 -12 -16 -21 -12 -21 4 0 -2 -10 -14 -22 -11 -12 -20 -27
-20 -32 0 -11 139 -102 144 -95 1 2 17 27 34 55 27 42 38 52 60 51 173 -3 286
167 214 322 -17 38 -18 46 -6 58 8 8 14 21 14 29 0 8 5 14 10 14 6 0 10 7 10
15 0 8 5 15 10 15 25 0 4 21 -58 59 -38 22 -71 41 -74 41 -3 0 -21 -24 -41
-54 -29 -43 -40 -53 -60 -51 -39 5 -67 15 -67 26 0 11 -43 79 -50 79 -3 0 -16
-7 -30 -15z"/>
<path d="M5776 5442 c-3 -3 -6 -42 -6 -87 l0 -82 168 1 167 1 0 85 0 85 -162
2 c-89 1 -164 -1 -167 -5z"/>
<path d="M6300 5360 l0 -87 168 1 167 1 2 74 c0 41 -1 80 -4 87 -3 8 -49 12
-169 11 l-164 0 0 -87z"/>
<path d="M6817 5441 c-2 -3 -3 -42 -3 -86 l1 -80 168 -1 167 -1 1 29 c0 15 1
54 1 86 l0 57 -166 1 c-91 1 -168 -1 -169 -5z"/>
<path d="M7347 5441 c-2 -3 -3 -42 -3 -86 l1 -80 168 -1 c92 0 167 2 168 5 6
38 2 155 -6 161 -12 9 -324 11 -328 1z"/>
<path d="M7879 5446 c-7 -9 -2 -159 6 -165 5 -5 81 -8 168 -8 134 1 157 3 158
17 1 16 1 141 0 151 -1 5 -328 10 -332 5z"/>
<path d="M8370 4937 c-10 -17 -24 -37 -29 -44 -6 -7 -11 -14 -11 -17 0 -2 -25
-45 -55 -94 -30 -50 -55 -94 -55 -99 0 -5 12 -16 28 -24 15 -8 29 -17 32 -20
3 -4 21 -16 42 -27 l36 -21 61 100 c34 55 61 104 61 109 0 6 5 10 10 10 6 0
10 7 10 15 0 8 4 15 9 15 5 0 11 10 14 22 6 22 -8 39 -48 58 -11 6 -35 19 -53
30 l-32 20 -20 -33z"/>
<path d="M8039 4398 c-41 -68 -76 -125 -80 -128 -3 -3 -8 -13 -12 -22 -4 -13
7 -24 48 -47 29 -17 56 -35 60 -41 13 -20 35 -9 55 28 11 20 30 53 43 73 12
19 35 57 51 85 16 27 36 57 45 67 14 17 13 20 -9 38 -14 10 -39 26 -57 34 -18
9 -35 20 -38 25 -16 25 -38 1 -106 -112z"/>
<path d="M7828 4058 c-22 -39 -31 -55 -96 -159 -34 -55 -60 -105 -57 -109 3
-5 36 -27 72 -49 l66 -40 20 37 c11 20 33 56 48 79 16 23 29 44 29 48 0 9 54
90 63 93 4 2 7 12 7 22 0 15 -58 58 -132 97 -4 2 -13 -7 -20 -19z"/>
<path d="M7461 3487 c-51 -85 -79 -143 -72 -145 6 -2 17 -9 24 -16 16 -15 108
-69 111 -64 32 45 166 274 166 283 0 8 -8 16 -18 19 -10 4 -27 14 -38 24 -28
24 -61 42 -76 41 -7 0 -51 -64 -97 -142z"/>
<path d="M7270 3180 c0 -12 -51 -92 -65 -102 -5 -4 -6 -8 -2 -8 4 0 -9 -26
-30 -57 -44 -67 -68 -111 -62 -116 17 -14 128 -77 135 -77 5 0 43 57 83 126
41 69 79 127 83 130 19 12 4 32 -57 72 -66 43 -85 50 -85 32z"/>
</g>
</svg>
