<?xml version="1.0" encoding="UTF-8"?>
<svg width="21px" height="11px" viewBox="0 0 21 11" version="1.1" xmlns="http://www.w3.org/2000/svg" xmlns:xlink="http://www.w3.org/1999/xlink">
    <!-- Generator: sketchtool 62 (101010) - https://sketch.com -->
    <title>B71F4766-24EC-46EC-8B18-A9D1738203F2</title>
    <desc>Created with sketchtool.</desc>
    <g id="Style-Guide" stroke="none" stroke-width="1" fill="none" fill-rule="evenodd">
        <g id="Style-Guidle---Light" transform="translate(-365.000000, -2540.000000)" fill="#888888">
            <path d="M379.857301,2540.23081 C379.455785,2540.57288 379.408932,2541.17527 379.753096,2541.57498 L379.803379,2541.62901 C379.820806,2541.64634 379.838891,2541.66299 379.857617,2541.67891 L382.738037,2544.55055 L365.954525,2544.55151 C365.427908,2544.55151 365,2544.97724 365,2545.50361 L365.00643,2545.61474 C365.061634,2546.08863 365.465529,2546.45567 365.954525,2546.45567 L382.738037,2546.45509 L379.828924,2549.35012 C379.455785,2549.66607 379.408932,2550.26845 379.753096,2550.66816 C380.095995,2551.0664 380.697232,2551.11269 381.097274,2550.77179 C381.134792,2550.73979 381.169705,2550.70508 381.201743,2550.6678 L385.720573,2546.17443 C386.042446,2545.85237 386.090355,2545.35247 385.842912,2544.97788 L385.755139,2544.86638 L381.175177,2540.30625 C380.882966,2539.96469 380.34813,2539.89897 379.952927,2540.15902 L379.857301,2540.23081 Z" id="icon-arrow-right"></path>
        </g>
    </g>
</svg>