<?xml version="1.0" encoding="UTF-8"?>
<svg width="188px" height="111px" viewBox="0 0 188 111" version="1.1" xmlns="http://www.w3.org/2000/svg" xmlns:xlink="http://www.w3.org/1999/xlink">
    <!-- Generator: Sketch 62 (91390) - https://sketch.com -->
    <title>Money</title>
    <desc>Created with Sketch.</desc>
    <g id="pt---main" stroke="none" stroke-width="1" fill="none" fill-rule="evenodd">
        <g id="full-page" transform="translate(-1073.000000, -1608.000000)" fill="#C13F3F" fill-rule="nonzero">
            <g id="details" transform="translate(80.000000, 1601.000000)">
                <g id="purchase" transform="translate(892.000000, 7.000000)">
                    <g id="Money" transform="translate(101.000000, 0.000000)">
                        <path d="M185.436667,111 L2.56333342,111 C1.14837337,111 0,109.844126 0,108.419925 L0,2.58007531 C0,1.15587374 1.14837337,0 2.56333342,0 L185.436667,0 C186.851627,0 188,1.15587374 188,2.58007531 L188,108.425085 C188,109.849286 186.851627,111 185.436667,111 Z M5.12666685,105.839849 L182.873333,105.839849 L182.873333,5.16015062 L5.12666685,5.16015062 L5.12666685,105.839849 Z" id="Shape"></path>
                        <path d="M185.407834,27 C171.949309,27 161,16.0506912 161,2.5921659 C161,1.16129032 162.16129,0 163.592166,0 C165.023041,0 166.184332,1.16129032 166.184332,2.5921659 C166.184332,13.1941244 174.81106,21.8156682 185.407834,21.8156682 C186.83871,21.8156682 188,22.9769585 188,24.4078341 C188,25.8387097 186.83871,27 185.407834,27 Z" id="Path"></path>
                        <path d="M163.592166,111 C162.16129,111 161,109.83871 161,108.407834 C161,94.9493088 171.949309,84 185.407834,84 C186.83871,84 188,85.1612903 188,86.5921659 C188,88.0230415 186.83871,89.1843318 185.407834,89.1843318 C174.805876,89.1843318 166.184332,97.8110599 166.184332,108.407834 C166.184332,109.843894 165.028226,111 163.592166,111 L163.592166,111 Z" id="Path"></path>
                        <path d="M2.5921659,27 C1.16129032,27 0,25.8387097 0,24.4078341 C0,22.9769585 1.16129032,21.8156682 2.5921659,21.8156682 C13.1941244,21.8156682 21.8156682,13.1889401 21.8156682,2.5921659 C21.8156682,1.16129032 22.9769585,0 24.4078341,0 C25.8387097,0 27,1.16129032 27,2.5921659 C27,16.0506912 16.0506912,27 2.5921659,27 Z" id="Path"></path>
                        <path d="M24.4078341,111 C22.9769585,111 21.8156682,109.83871 21.8156682,108.407834 C21.8156682,97.8058756 13.1889401,89.1843318 2.5921659,89.1843318 C1.16129032,89.1843318 0,88.0230415 0,86.5921659 C0,85.1612903 1.16129032,84 2.5921659,84 C16.0506912,84 27,94.9493088 27,108.407834 C27,109.843894 25.843894,111 24.4078341,111 Z" id="Path"></path>
                        <path d="M95.5903365,84 C88.5386244,84 79.71497,79.5323606 75.9753476,76.5155256 C74.8627327,75.6199027 74.6721459,73.9700711 75.558117,72.8387579 C76.4440881,71.7074448 78.0615006,71.5136551 79.1741155,72.4145155 C82.3934873,75.0071081 90.0890739,78.7624392 95.5903365,78.7624392 C100.94222,78.7624392 108.8593,75.855593 108.8593,69.6071829 C108.8593,64.0291807 103.466208,61.8294052 96.4196467,59.5353535 L94.3334937,58.8439955 C88.7601172,56.9375234 77.1703784,52.9622147 77.1703784,43.419379 C77.1703784,34.1960344 84.2272416,28 94.7249694,28 C105.305113,28 111.939595,33.5256266 112.217748,33.7613169 C113.309759,34.6883651 113.459138,36.3381968 112.542261,37.4485597 C111.635686,38.553685 110.018273,38.7108118 108.921112,37.7890011 C108.818092,37.7052001 103.32198,33.2375608 94.7198184,33.2375608 C87.0705908,33.2375608 82.3162224,37.1395436 82.3162224,43.419379 C82.3162224,48.5155256 89.2185557,51.5690236 95.9715101,53.8840254 L97.9803982,54.5491957 C104.35733,56.6232697 114,59.7605686 114,69.6071829 C114.010295,79.5375982 103.239564,84 95.5903365,84 Z" id="Path"></path>
                        <path d="M94.5,90 C93.12,90 92,88.8480286 92,87.4286353 L92,23.5713647 C92,22.1519714 93.12,21 94.5,21 C95.88,21 97,22.1519714 97,23.5713647 L97,87.4286353 C97,88.8480286 95.88,90 94.5,90 Z" id="Path"></path>
                    </g>
                </g>
            </g>
        </g>
    </g>
</svg>