<?xml version="1.0" encoding="UTF-8"?>
<svg width="127px" height="122px" viewBox="0 0 127 122" version="1.1" xmlns="http://www.w3.org/2000/svg" xmlns:xlink="http://www.w3.org/1999/xlink">
    <!-- Generator: Sketch 62 (91390) - https://sketch.com -->
    <title>Shop</title>
    <desc>Created with Sketch.</desc>
    <g id="pt---main" stroke="none" stroke-width="1" fill="none" fill-rule="evenodd">
        <g id="full-page" transform="translate(-211.000000, -1614.000000)" fill="#C13F3F" fill-rule="nonzero">
            <g id="details" transform="translate(80.000000, 1601.000000)">
                <g id="shop" transform="translate(0.000000, 13.000000)">
                    <g id="Shop" transform="translate(131.000000, 0.000000)">
                        <path d="M112.760606,58 C107.511273,58 102.916182,55.1643935 100.445455,50.9568426 C97.9747273,55.1682151 93.3796364,58 88.130303,58 C82.8809697,58 78.2820303,55.1643935 75.8151515,50.9568426 C73.3482727,55.1682151 68.7531818,58 63.5038485,58 C58.2545152,58 53.6555758,55.1643935 51.188697,50.9568426 C48.7179697,55.1682151 44.1228788,58 38.8658485,58 C33.6165152,58 29.0214242,55.1643935 26.550697,50.9568426 C24.0799697,55.1682151 19.4848788,58 14.2355455,58 C6.38848485,58 0,51.6600119 0,43.8678263 L0,25.0504052 C0,24.8134677 0.0461818182,24.5765303 0.130848485,24.3548791 L9.22481818,1.21525993 C9.51345455,0.481518087 10.2254242,0 11.0182121,0 L115.977939,0 C116.770727,0 117.482697,0.481518087 117.771333,1.21525993 L126.865303,24.3548791 C126.953818,24.5765303 127,24.8134677 127,25.0504052 L127,43.8678263 C127,51.6600119 120.611515,58 112.760606,58 L112.760606,58 Z M100.449303,41.9570403 C101.511485,41.9570403 102.373545,42.8130724 102.373545,43.8678263 C102.373545,49.5543256 107.034061,54.1784279 112.764455,54.1784279 C118.494848,54.1784279 123.155364,49.5543256 123.155364,43.8678263 L123.155364,25.409633 L114.669455,3.82157212 L12.3343939,3.82157212 L3.84848485,25.409633 L3.84848485,43.8678263 C3.84848485,49.5543256 8.509,54.1784279 14.2355455,54.1784279 C19.9659394,54.1784279 24.6264545,49.5543256 24.6264545,43.8678263 C24.6264545,42.8130724 25.4885152,41.9570403 26.550697,41.9570403 C27.6128788,41.9570403 28.4749394,42.8130724 28.4749394,43.8678263 C28.4749394,49.5543256 33.1354545,54.1784279 38.8658485,54.1784279 C44.6000909,54.1784279 49.2644545,49.5543256 49.2644545,43.8678263 C49.2644545,42.8130724 50.1265152,41.9570403 51.188697,41.9570403 C52.2508788,41.9570403 53.1129394,42.8130724 53.1129394,43.8678263 C53.1129394,49.5543256 57.7734545,54.1784279 63.5038485,54.1784279 C69.2303939,54.1784279 73.8909091,49.5543256 73.8909091,43.8678263 C73.8909091,42.8130724 74.7529697,41.9570403 75.8151515,41.9570403 C76.8773333,41.9570403 77.7393939,42.8130724 77.7393939,43.8678263 C77.7393939,49.5543256 82.3999091,54.1784279 88.130303,54.1784279 C93.860697,54.1784279 98.5212121,49.5543256 98.5212121,43.8678263 C98.5250606,42.8130724 99.3832727,41.9570403 100.449303,41.9570403 Z" id="Shape"></path>
                        <path d="M107.726216,122 L17.2699801,122 C12.7089377,122 9,118.235806 9,113.606813 L9,72.9303558 C9,71.8647994 9.85210466,71 10.9020193,71 C11.951934,71 12.8040387,71.8647994 12.8040387,72.9303558 L12.8040387,113.606813 C12.8040387,116.104693 14.804963,118.139288 17.2699801,118.139288 L107.726216,118.139288 C110.191233,118.139288 112.195961,116.108554 112.195961,113.606813 L112.195961,72.9303558 C112.195961,71.8647994 113.048066,71 114.097981,71 C115.147895,71 116,71.8647994 116,72.9303558 L116,113.606813 C115.996196,118.231945 112.287258,122 107.726216,122 Z" id="Path"></path>
                        <path d="M56.0616412,121 L27.9422174,121 C26.8701134,121 26,120.144526 26,119.09046 L26,71.9095402 C26,70.855474 26.8701134,70 27.9422174,70 L56.0577568,70 C57.1298608,70 57.9999871,70.855474 57.9999871,71.9095402 L57.9999871,119.09046 C58.0038586,120.144526 57.1337452,121 56.0616412,121 Z M29.8844348,117.18092 L54.1155393,117.18092 L54.1155393,73.8190804 L29.8844348,73.8190804 L29.8844348,117.18092 Z" id="Shape"></path>
                        <path d="M100.066067,100 L66.9339327,100 C65.8664018,100 65,99.112637 65,98.019279 L65,71.980721 C65,70.887363 65.8664018,70 66.9339327,70 L100.066067,70 C101.133598,70 102,70.887363 102,71.980721 L102,98.019279 C102,99.112637 101.133598,100 100.066067,100 Z M68.8639975,96.038558 L98.1282668,96.038558 L98.1282668,73.961442 L68.8639975,73.961442 L68.8639975,96.038558 Z" id="Shape"></path>
                    </g>
                </g>
            </g>
        </g>
    </g>
</svg>