<?xml version="1.0" encoding="UTF-8"?>
<svg width="159px" height="133px" viewBox="0 0 159 133" version="1.1" xmlns="http://www.w3.org/2000/svg" xmlns:xlink="http://www.w3.org/1999/xlink">
    <!-- Generator: Sketch 62 (91390) - https://sketch.com -->
    <title>Wheel</title>
    <desc>Created with Sketch.</desc>
    <g id="pt---main" stroke="none" stroke-width="1" fill="none" fill-rule="evenodd">
        <g id="full-page" transform="translate(-640.000000, -1601.000000)" fill="#C13F3F" fill-rule="nonzero">
            <g id="details" transform="translate(80.000000, 1601.000000)">
                <g id="try-on" transform="translate(446.000000, 0.000000)">
                    <g id="Wheel" transform="translate(114.000000, 0.000000)">
                        <path d="M51,120.6695 C51,121.956558 52.0557841,123 53.3580646,123 C78.0303371,123 98,103.267194 98,78.8799139 C98,67.0950435 93.3564992,56.0155377 84.9246891,47.6826033 C84.0037863,46.7724656 82.5106598,46.7724656 81.5900714,47.6826033 C80.6691686,48.5927411 80.6691686,50.0684135 81.5900714,50.9782405 C89.1311619,58.4308675 93.2838708,68.3401517 93.2838708,78.8799139 C93.2838708,100.688108 75.4270338,118.339001 53.3580646,118.339001 C52.0554697,118.339001 51,119.382443 51,120.6695 L51,120.6695 Z" id="Path"></path>
                        <path d="M53.6422341,35 C41.7178933,35 30.5072649,39.5895258 22.0757128,47.9224517 C13.6435318,56.2553775 9,67.3351827 9,79.1197303 C9,90.9045886 13.6435318,101.984083 22.0753984,110.31732 C22.5356957,110.772233 23.1393642,111 23.7427184,111 C24.3460725,111 24.9497411,110.772543 25.4100384,110.31732 C26.3309474,109.407183 26.3309474,107.931512 25.4100384,107.021686 C17.8688974,99.5687558 13.7161607,89.6597924 13.7161607,79.120041 C13.7161607,68.5802897 17.8688974,58.6710156 25.4100384,51.2183962 C32.950865,43.7654661 42.9774226,39.6609944 53.6419196,39.6609944 C54.9442088,39.6609944 56,38.6175531 56,37.3304972 C56,36.0434413 54.9445232,35 53.6422341,35 L53.6422341,35 Z" id="Path"></path>
                        <path d="M53.9998442,43 C34.1494133,43 18,59.1494832 18,79 C18,98.8505168 34.1494133,115 53.9998442,115 C61.8038929,115 69.2342871,112.533995 75.4873116,107.868436 C76.521951,107.096504 76.7348001,105.632109 75.9628717,104.597465 C75.1909434,103.562821 73.7265546,103.349971 72.6919151,104.121903 C67.252267,108.180387 60.7888866,110.325715 53.9998442,110.325715 C36.7269745,110.325715 22.6745759,96.2732561 22.6745759,79.0003116 C22.6745759,61.7273672 36.7269745,47.6749078 53.9998442,47.6749078 C71.2727139,47.6749078 85.3251124,61.7273672 85.3251124,79.0003116 C85.3251124,85.2589726 83.4770967,91.3038488 79.9811372,96.4820547 C79.2587594,97.551914 79.5404805,99.0047785 80.6103351,99.7271594 C81.6798781,100.448917 83.1327363,100.167818 83.8554258,99.0979588 C87.8752494,93.1443931 90,86.1948268 90,79.0006233 C90,59.1497948 73.8499634,43 53.9998442,43 Z" id="Path"></path>
                        <path d="M60,79.5 C60,75.916065 57.0842458,73 53.5,73 C49.916065,73 47,75.9157542 47,79.5 C47,83.0842458 49.9157542,86 53.5,86 C57.083935,86.0003108 60,83.0842458 60,79.5 Z M51.661726,79.5 C51.661726,78.4865408 52.48623,77.661726 53.5,77.661726 C54.51377,77.661726 55.338274,78.48623 55.338274,79.5 C55.338274,80.51377 54.51377,81.3382741 53.5,81.3382741 C52.48623,81.3385847 51.661726,80.51377 51.661726,79.5 Z" id="Shape"></path>
                        <path d="M33.1286577,64.3657618 L43.0933813,70.2056019 C44.8902937,71.2588931 47.1362086,71.275389 48.9505755,70.1915498 L49.073359,70.1194568 C50.8786978,69.0780792 52,67.1107951 52,64.9849675 L52,53.2909298 C52,52.6210145 51.7110976,51.9843965 51.2091298,51.5490891 C50.707162,51.1137816 50.0435894,50.9237738 49.3908506,51.0279421 C42.7620464,52.0910086 36.7649151,55.610431 32.5048092,60.9373721 C32.0883083,61.4582136 31.9176754,62.1379041 32.0374495,62.7974331 C32.1578254,63.4572675 32.5565709,64.0303459 33.1286577,64.3657618 L33.1286577,64.3657618 Z M47.4862017,56.1349383 L47.4862017,64.9849675 C47.4862017,65.4660967 47.2400328,65.9069028 46.843093,66.1357065 L46.6634319,66.2410967 C46.2643855,66.4790648 45.7612139,66.4778429 45.3504309,66.2371255 L37.812788,61.8199006 C40.5320814,59.1280206 43.8535556,57.1763159 47.4862017,56.1349383 L47.4862017,56.1349383 Z" id="Shape"></path>
                        <path d="M59.047573,70.1903077 C60.8333238,71.2570435 63.078302,71.2775107 64.9070866,70.2055817 L74.8716602,64.3657223 C75.4437384,64.0303053 75.8427788,63.457225 75.9625511,62.7976939 C76.0823234,62.1381628 75.911693,61.4581645 75.4951984,60.9376267 C71.2351566,55.6106681 65.2384165,52.0915395 58.6091101,51.028164 C57.9566821,50.9233843 57.2925176,51.1140038 56.7908583,51.5493127 C56.2891989,51.9846215 56,52.6212417 56,53.2911591 L56,64.9852355 C56,67.1107647 57.1215863,69.0783608 58.926597,70.1194364 L59.047573,70.1903077 Z M60.5143322,56.1351771 C64.1472246,57.1762526 67.4683479,59.1279637 70.1876004,61.8198527 L62.6503719,66.2370922 C62.2392941,66.4781158 61.73613,66.4790323 61.3352841,66.2398415 L61.1574312,66.1356729 C60.7607984,65.9068684 60.5143322,65.4660609 60.5143322,64.98493 L60.5143322,56.1351771 Z" id="Shape"></path>
                        <path d="M29.1779231,67.1327014 C28.5536936,67.3585291 28.0572092,67.852508 27.8192349,68.4848874 C26.6121496,71.6931242 26,75.0629314 26,78.5000852 C26,81.9372391 26.6121496,85.3070462 27.8192349,88.515283 C28.0572092,89.1476625 28.5536936,89.6416413 29.1779231,89.8674691 C29.4231453,89.956132 29.6786355,90 29.9329177,90 C30.3261188,90 30.717206,89.8952728 31.0654095,89.6895255 L41.0718054,83.7800058 C42.8819803,82.7111084 44.0039022,80.6944142 43.9999882,78.5217103 L43.9999882,78.4830941 C44.0042042,76.3060652 42.8819803,74.289371 41.0718054,73.2204736 L31.0654095,67.310645 C30.4922176,66.9717489 29.8024546,66.9065647 29.1779231,67.1327014 L29.1779231,67.1327014 Z M38.8068217,77.2331638 C39.2229747,77.479072 39.4709149,77.9427757 39.4700114,78.4784601 L39.4700114,78.4997763 L39.4700114,78.5257264 C39.4709149,79.0567769 39.2232767,79.5207895 38.8068217,79.7666977 L31.2324143,84.2400024 C30.7655257,82.3688141 30.5296654,80.4475792 30.5296654,78.4997763 C30.5296654,76.5522823 30.7652237,74.6307385 31.2324143,72.7595502 L38.8068217,77.2331638 Z" id="Shape"></path>
                        <path d="M78.8217743,89.8673461 C79.4460039,89.6415152 79.9424885,89.1475294 80.1807648,88.51545 C81.3881523,85.3071683 82,81.9376229 82,78.500112 C82,75.06291 81.3878503,71.6930557 80.1807648,68.484774 C79.9427905,67.8523857 79.4463059,67.3583999 78.8220763,67.132569 C78.1978467,66.9067381 77.5080836,66.9716143 76.9345896,67.3105151 L66.9281919,73.2204264 C65.1180166,74.2893388 63.9960945,76.3060613 64.0000102,78.4855921 L64.0000102,78.5177213 C63.9960945,80.6947806 65.1183186,82.7111942 66.9281919,83.7804154 L76.9342876,89.6900179 C77.4996276,90.0236668 78.1887868,90.0962663 78.8217743,89.8673461 L78.8217743,89.8673461 Z M69.192874,79.7667423 C68.7767209,79.5208306 68.5287807,79.0568115 68.5296842,78.5350216 L68.5296842,78.4741615 C68.5287807,77.9427947 68.7767209,77.4790845 69.192874,77.2331728 L76.7672828,72.7598055 C77.2341715,74.63102 77.4700318,76.5522819 77.4700318,78.500112 C77.4700318,80.4479422 77.2344735,82.369204 76.7672828,84.2404185 L69.192874,79.7667423 Z" id="Shape"></path>
                        <path d="M49.3908114,105.971895 C49.5081797,105.990835 49.625849,106 49.7429164,106 C50.276491,106 50.7974259,105.80785 51.2091179,105.450739 C51.7107924,105.015424 52,104.378795 52,103.708868 L52,92.014623 C52,89.8890632 50.8783799,87.9217443 49.0718102,86.8791264 L48.9523353,86.8091705 C47.154493,85.7356986 44.9094472,85.7298944 43.0932473,86.7942017 L33.1283737,92.6341452 C32.5562783,92.969567 32.1572259,93.5426555 32.03745,94.2021961 C31.9176741,94.8617368 32.0883096,95.5417448 32.5048168,96.0622901 C36.7646859,101.389631 42.7619074,104.90881 49.3908114,105.971895 L49.3908114,105.971895 Z M45.3500299,90.7627484 C45.7608191,90.5220267 46.2642992,90.5208048 46.6606431,90.7572496 C46.7214339,90.7939078 46.7828265,90.8296494 46.8424136,90.8641691 C47.2390584,91.0929769 47.4855319,91.5337907 47.4855319,92.0149285 L47.4855319,100.865114 C43.8528311,99.8240238 40.5316079,97.8722846 37.8122736,95.1803569 L45.3500299,90.7627484 Z" id="Shape"></path>
                        <path d="M56.7911592,105.450729 C57.2028389,105.807541 57.7237581,106 58.2573166,106 C58.3743805,106 58.4923472,105.990835 58.609411,105.971895 C65.2384165,104.908484 71.2351566,101.389238 75.4951984,96.062407 C75.911693,95.5415463 76.0823234,94.8618308 75.9625511,94.2022777 C75.8424779,93.5427246 75.4437384,92.9696252 74.8716602,92.634197 L64.9070866,86.7941427 C63.0912422,85.7298152 60.8459631,85.735314 59.0454665,86.8106392 L58.9268979,86.8802909 C57.1212854,87.9217067 56,89.8893684 56,92.0149686 L56,103.709435 C56.0003009,104.37907 56.2891989,105.015711 56.7911592,105.450729 L56.7911592,105.450729 Z M60.5143322,92.0143576 C60.5143322,91.5335162 60.7607984,91.092694 61.1559266,90.8644929 C61.2173174,90.829056 61.2784073,90.7933137 61.3367887,90.7581823 C61.5354061,90.6396521 61.7593021,90.5803871 61.9853046,90.5803871 C62.2134136,90.5803871 62.4433283,90.6408741 62.6500709,90.7621537 L70.1872995,95.1795406 C67.4683479,97.8715193 64.1472246,99.8232956 60.5143322,100.864406 L60.5143322,92.0143576 Z" id="Shape"></path>
                        <path d="M146.166029,0 L64.2813398,0 C57.2045977,0 51.4473691,5.75507632 51.4473691,12.8287915 L51.4473691,25.5433506 C46.3280039,25.7612613 41.3011816,26.6984013 36.4731094,28.3376978 C35.2551445,28.7511693 34.6033066,30.0732227 35.0169551,31.290977 C35.4306035,32.5084209 36.7538438,33.1602903 37.971498,32.7465084 C43.0464551,31.0237105 48.3642598,30.149895 53.7767813,30.149895 C80.8605059,30.149895 102.895049,52.1747024 102.895049,79.2471526 C102.895049,82.010148 102.665244,84.7206834 102.224268,87.3604444 C102.217436,87.396142 102.211225,87.43215 102.205945,87.4681581 C98.6790645,108.293215 81.9884121,124.701391 61.0181133,127.81174 C60.999791,127.814223 60.9817793,127.817017 60.963457,127.81981 C58.6169648,128.165301 56.2173691,128.3441 53.7764707,128.3441 C26.6924355,128.343789 4.65820312,106.318982 4.65820312,79.2465318 C4.65820312,61.5041964 14.1000703,45.8403935 28.4063437,37.1969145 C29.5069219,36.5316972 29.8600137,35.1006885 29.1948223,34.0002707 C28.5296309,32.9001634 27.0980098,32.5466018 25.9968105,33.2121295 C10.3002187,42.6952784 0,59.8689353 0,79.2465318 C0,108.886416 24.1239023,133 53.7764707,133 C56.2919004,133 58.7675801,132.826168 61.1920195,132.490611 C62.20875,132.743288 63.245666,132.871489 64.2813398,132.871489 L146.166029,132.871489 C153.242771,132.871489 159,127.116412 159,120.043008 L159,98.3053331 C159,93.9688489 156.836109,90.128096 153.530959,87.8049573 C156.836109,85.4818186 159,81.6410657 159,77.3045815 L159,55.5669071 C159,51.2304229 156.836109,47.38967 153.530959,45.0665313 C156.836109,42.7433926 159,38.9026397 159,34.5661555 L159,12.8284811 C159,5.75476591 153.242771,0 146.166029,0 Z M154.341797,64.107639 L127.563961,64.107639 C126.277676,64.107639 125.234859,65.1500093 125.234859,66.4357443 C125.234859,67.7214793 126.277676,68.7638496 127.563961,68.7638496 L154.341797,68.7638496 L154.341797,73.4200602 L107.238979,73.4200602 C107.068488,71.8468819 106.829988,70.2938804 106.526273,68.7638496 L116.695131,68.7638496 C117.981416,68.7638496 119.024232,67.7214793 119.024232,66.4357443 C119.024232,65.1500093 117.981416,64.107639 116.695131,64.107639 L105.381908,64.107639 C104.916088,62.524217 104.379463,60.9709051 103.775139,59.4514284 L154.341797,59.4514284 L154.341797,64.107639 Z M92.7802266,116.215913 C94.1804824,114.740515 95.4984434,113.185961 96.7260352,111.559702 L154.341797,111.559702 L154.341797,116.215913 L92.7802266,116.215913 Z M132.516252,128.215278 L125.169955,120.872123 L132.194525,120.872123 L139.540822,128.215278 L132.516252,128.215278 Z M118.904051,128.215278 L111.557754,120.872123 L118.582324,120.872123 L125.928621,128.215278 L118.904051,128.215278 Z M105.29185,128.215278 L97.9455527,120.872123 L104.970123,120.872123 L112.31642,128.215278 L105.29185,128.215278 Z M91.679959,128.215278 L85.8385723,122.37639 C86.492584,121.88935 87.135416,121.387721 87.7661367,120.872123 L91.3582324,120.872123 L98.7045293,128.215278 L91.679959,128.215278 Z M102.377367,102.247281 L154.341797,102.247281 L154.341797,106.903492 L99.8743594,106.903492 C100.782088,105.397673 101.61808,103.844051 102.377367,102.247281 Z M118.582635,35.3378448 L125.986383,42.738426 L119.690977,42.738426 C119.680418,42.738426 119.669549,42.738426 119.65899,42.738426 L118.961813,42.738426 L111.558064,35.3378448 L118.582635,35.3378448 Z M119.089137,54.7952178 L111.685389,47.3946366 L118.709959,47.3946366 L126.113707,54.7952178 L119.089137,54.7952178 Z M104.970434,35.3378448 L112.374182,42.738426 L106.078775,42.738426 C106.068217,42.738426 106.057348,42.738426 106.046789,42.738426 L105.349611,42.738426 L97.9458633,35.3378448 L104.970434,35.3378448 Z M105.098068,47.3946366 L112.501816,54.7952178 L101.660625,54.7952178 C100.328689,52.1992251 98.7911719,49.7255356 97.0704316,47.3946366 L105.098068,47.3946366 Z M111.557754,97.5910703 L119.018953,90.1330626 L126.043523,90.1330626 L118.582324,97.5910703 L111.557754,97.5910703 Z M111.685389,85.476852 L119.089137,78.0762708 L126.113707,78.0762708 L118.709959,85.476852 L111.685389,85.476852 Z M107.411332,83.1642674 C107.505117,81.8704617 107.552941,80.563929 107.552941,79.2465318 C107.552941,78.8554101 107.548594,78.4652196 107.540209,78.0759604 L112.501816,78.0759604 L107.411332,83.1642674 Z M106.444289,90.1330626 L112.431322,90.1330626 L104.970123,97.5910703 L104.327291,97.5910703 C105.205828,95.1800845 105.916359,92.6896326 106.444289,90.1330626 Z M138.782156,97.5910703 L146.242734,90.1336834 C150.475178,90.1727956 153.949576,93.4433179 154.310742,97.5910703 L138.782156,97.5910703 Z M132.194525,97.5910703 L125.169955,97.5910703 L132.631154,90.1330626 L139.655725,90.1330626 L132.194525,97.5910703 Z M125.29759,85.476852 L132.701338,78.0762708 L139.725908,78.0762708 L132.32216,85.476852 L125.29759,85.476852 Z M132.701338,54.7952178 L125.29759,47.3946366 L132.32216,47.3946366 L139.725908,54.7952178 L132.701338,54.7952178 Z M133.29324,42.738426 C133.288893,42.738426 133.284855,42.738426 133.280508,42.738426 L132.574014,42.738426 L125.170266,35.3378448 L132.194836,35.3378448 L139.598584,42.738426 L133.29324,42.738426 Z M138.782156,35.3378448 L154.305463,35.3378448 C153.915727,39.4769057 150.424869,42.7281823 146.185904,42.738426 L138.782156,35.3378448 Z M76.8181172,30.6816342 C72.0108516,28.3935723 66.8126074,26.7983546 61.3535039,26.0254236 L154.341797,26.0254236 L154.341797,30.6816342 L76.8181172,30.6816342 Z M154.341797,16.7130024 L154.341797,21.369213 L56.1055723,21.369213 L56.1055723,16.7130024 L154.341797,16.7130024 Z M85.1497793,4.65621061 L77.7457207,12.0567918 L70.7211504,12.0567918 L78.125209,4.65621061 L85.1497793,4.65621061 Z M98.7619805,4.65621061 L91.3582324,12.0567918 L84.3336621,12.0567918 L91.7377207,4.65621061 L98.7619805,4.65621061 Z M112.374182,4.65621061 L104.970434,12.0567918 L97.9458633,12.0567918 L105.349611,4.65621061 L112.374182,4.65621061 Z M125.986383,4.65621061 L118.582635,12.0567918 L111.558064,12.0567918 L118.961813,4.65621061 L125.986383,4.65621061 Z M139.598584,4.65621061 L132.194525,12.0567918 L125.169955,12.0567918 L132.573703,4.65621061 L139.598584,4.65621061 Z M154.305463,12.0567918 L138.782156,12.0567918 L146.185904,4.65621061 C150.424869,4.66645428 153.915727,7.91742053 154.305463,12.0567918 Z M64.2813398,4.65621061 L71.5378887,4.65621061 L64.1338301,12.0567918 L56.1419063,12.0567918 C56.5319531,7.91090183 60.0333691,4.65621061 64.2813398,4.65621061 L64.2813398,4.65621061 Z M84.7643906,35.3378448 L91.3579219,35.3378448 L98.7616699,42.738426 L93.2125078,42.738426 C90.6641602,39.9900201 87.8325937,37.507639 84.7643906,35.3378448 L84.7643906,35.3378448 Z M81.9148125,125.039122 L85.0923281,128.215278 L75.9507598,128.215278 C78.0109277,127.27938 80.0024648,126.217453 81.9148125,125.039122 Z M146.166029,128.215278 L146.128453,128.215278 L138.782156,120.872123 L154.299873,120.872123 C153.883119,124.990387 150.394125,128.215278 146.166029,128.215278 Z M138.909791,85.476852 L146.313539,78.0762708 L154.305463,78.0762708 C153.915105,82.2218503 150.413689,85.476852 146.166029,85.476852 L138.909791,85.476852 Z M154.305463,54.7952178 L146.313539,54.7952178 L138.909791,47.3946366 L146.166029,47.3946366 C150.413689,47.3946366 153.915105,50.6496382 154.305463,54.7952178 L154.305463,54.7952178 Z" id="Shape"></path>
                    </g>
                </g>
            </g>
        </g>
    </g>
</svg>