<svg xmlns="http://www.w3.org/2000/svg" xmlns:xlink="http://www.w3.org/1999/xlink" width="20" height="20" viewBox="0 0 20 20">
  <defs>
    <path id="icon-social-linkedin-a" d="M1390,17.005 L1390,2.995 C1390,1.341 1391.34,0 1392.995,0 L1407.005,0 C1408.659,0 1410,1.34 1410,2.995 L1410,17.005 C1410,18.659 1408.66,20 1407.005,20 L1392.995,20 C1391.341,20 1390,18.66 1390,17.005 L1390,17.005 Z M1392.995,2 C1392.445,2 1392,2.445 1392,2.995 L1392,17.005 C1392,17.555 1392.445,18 1392.995,18 L1407.005,18 C1407.555,18 1408,17.555 1408,17.005 L1408,2.995 C1408,2.445 1407.555,2 1407.005,2 L1392.995,2 Z M1395,9.003 C1395,8.449 1395.444,8 1396,8 C1396.552,8 1397,8.449 1397,9.003 L1397,13.997 C1397,14.551 1396.556,15 1396,15 C1395.448,15 1395,14.551 1395,13.997 L1395,9.003 Z M1396,7 C1395.448,7 1395,6.552 1395,6 C1395,5.448 1395.448,5 1396,5 C1396.552,5 1397,5.448 1397,6 C1397,6.552 1396.552,7 1396,7 L1396,7 Z M1400.5,11.25 L1400.5,14 C1400.5,14.552 1400.052,15 1399.5,15 C1398.948,15 1398.5,14.552 1398.5,14 L1398.5,11.25 C1398.5,9.456 1399.957,8 1401.75,8 C1403.544,8 1405,9.458 1405,11.25 L1405,14 C1405,14.552 1404.552,15 1404,15 C1403.448,15 1403,14.552 1403,14 L1403,11.25 C1403,10.562 1402.438,10 1401.75,10 C1401.061,10 1400.5,10.561 1400.5,11.25 L1400.5,11.25 Z"/>
  </defs>
  <use fill="#434449" fill-rule="evenodd" transform="translate(-1390)" xlink:href="#icon-social-linkedin-a"/>
</svg>
