<svg xmlns="http://www.w3.org/2000/svg" xmlns:xlink="http://www.w3.org/1999/xlink" width="20" height="20" viewBox="0 0 20 20">
  <defs>
    <path id="icon-social-facebook-a" d="M1327.005,18 C1327.555,18 1328,17.555 1328,17.005 L1328,2.995 C1328,2.445 1327.555,2 1327.005,2 L1312.995,2 C1312.445,2 1312,2.445 1312,2.995 L1312,17.005 C1312,17.555 1312.445,18 1312.995,18 L1320,18 L1320,12 L1319,12 C1318.447,12 1318,11.552 1318,11 C1318,10.448 1318.447,10 1319,10 L1320,10 C1320,8.103 1320.214,6.908 1321.104,5.912 C1321.984,4.927 1323.012,4.5 1324,4.5 C1324.552,4.5 1325,4.948 1325,5.5 C1325,6.052 1324.552,6.5 1324,6.5 C1323.563,6.5 1323.082,6.7 1322.595,7.245 C1322.152,7.74 1322,8.591 1322,10 L1324,10 C1324.552,10 1325,10.448 1325,11 C1325,11.552 1324.552,12 1324,12 L1322,12 L1322,18 L1327.005,18 Z M1310,17.005 L1310,2.995 C1310,1.341 1311.34,0 1312.995,0 L1327.005,0 C1328.659,0 1330,1.34 1330,2.995 L1330,17.005 C1330,18.659 1328.66,20 1327.005,20 L1312.995,20 C1311.341,20 1310,18.66 1310,17.005 L1310,17.005 Z"/>
  </defs>
  <use fill="#434449" fill-rule="evenodd" transform="translate(-1310)" xlink:href="#icon-social-facebook-a"/>
</svg>
