<?xml version="1.0" encoding="UTF-8"?>
<svg width="552px" height="984px" viewBox="0 0 552 984" version="1.1" xmlns="http://www.w3.org/2000/svg" xmlns:xlink="http://www.w3.org/1999/xlink">
    <!-- Generator: Sketch 62 (91390) - https://sketch.com -->
    <title>iphone</title>
    <desc>Created with Sketch.</desc>
    <defs>
        <filter x="-27.9%" y="-14.3%" width="155.7%" height="128.6%" filterUnits="objectBoundingBox" id="filter-1">
            <feOffset dx="0" dy="18" in="SourceAlpha" result="shadowOffsetOuter1"></feOffset>
            <feGaussianBlur stdDeviation="24" in="shadowOffsetOuter1" result="shadowBlurOuter1"></feGaussianBlur>
            <feColorMatrix values="0 0 0 0 0   0 0 0 0 0   0 0 0 0 0  0 0 0 0.199819712 0" type="matrix" in="shadowBlurOuter1" result="shadowMatrixOuter1"></feColorMatrix>
            <feMerge>
                <feMergeNode in="shadowMatrixOuter1"></feMergeNode>
                <feMergeNode in="SourceGraphic"></feMergeNode>
            </feMerge>
        </filter>
        <path d="M96.5887396,4.12117749 L99,21 C100.721387,33.0497098 111.041158,42 123.213203,42 L284.786797,42 C296.958842,42 307.278613,33.0497098 309,21 L311.41126,4.12117749 C311.749077,1.75646355 313.774296,2.21515792e-15 316.163018,0 L360,0 C386.509668,-4.86974701e-15 408,21.490332 408,48 L408,804 C408,830.509668 386.509668,852 360,852 L48,852 C21.490332,852 3.24649801e-15,830.509668 0,804 L0,48 C-3.24649801e-15,21.490332 21.490332,4.86974701e-15 48,0 L91.8369821,0 C94.2257039,-2.21515792e-15 96.2509234,1.75646355 96.5887396,4.12117749 Z" id="path-2"></path>
    </defs>
    <g id="pt---main" stroke="none" stroke-width="1" fill="none" fill-rule="evenodd">
        <g id="full-page" transform="translate(-421.000000, -717.000000)">
            <g id="iphone" filter="url(#filter-1)" transform="translate(469.000000, 747.000000)">
                <g id="Base" transform="translate(6.000000, 0.000000)" fill="#FFFFFF" fill-rule="nonzero">
                    <path d="M384,0 C417.137085,-6.08718376e-15 444,26.862915 444,60 L444,828 C444,861.137085 417.137085,888 384,888 L60,888 C26.862915,888 4.05812251e-15,861.137085 0,828 L0,60 C-4.05812251e-15,26.862915 26.862915,6.08718376e-15 60,0 L384,0 Z M384,7.2 L60,7.2 C30.8393652,7.2 7.2,30.8393652 7.2,60 L7.2,60 L7.2,828 C7.2,857.160635 30.8393652,880.8 60,880.8 L60,880.8 L384,880.8 C413.160635,880.8 436.8,857.160635 436.8,828 L436.8,828 L436.8,60 C436.8,30.8393652 413.160635,7.2 384,7.2 L384,7.2 Z" id="Combined-Shape"></path>
                </g>
                <g id="Elements" transform="translate(0.000000, 26.400000)">
                    <path d="M2.4,81.6 L4.8,81.6 L4.8,81.6 L4.8,111.6 L2.4,111.6 C1.0745166,111.6 1.92822353e-15,110.525483 0,109.2 L0,84 C-1.623249e-16,82.6745166 1.0745166,81.6 2.4,81.6 Z" fill="#FFFFFF"></path>
                    <path d="M2.4,141.6 L4.8,141.6 L4.8,141.6 L4.8,196.8 L2.4,196.8 C1.0745166,196.8 6.0641411e-16,195.725483 0,194.4 L0,144 C2.8176431e-16,142.674517 1.0745166,141.6 2.4,141.6 Z" fill="#FFFFFF"></path>
                    <path d="M2.4,213.6 L4.8,213.6 L4.8,213.6 L4.8,268.8 L2.4,268.8 C1.0745166,268.8 6.0641411e-16,267.725483 0,266.4 L0,216 C2.8176431e-16,214.674517 1.0745166,213.6 2.4,213.6 Z" fill="#FFFFFF"></path>
                    <path d="M453.6,160.8 L456,160.8 L456,160.8 L456,252 L453.6,252 C452.274517,252 451.2,250.925483 451.2,249.6 L451.2,163.2 C451.2,161.874517 452.274517,160.8 453.6,160.8 Z" fill="#FFFFFF" transform="translate(453.600000, 206.400000) scale(-1, 1) translate(-453.600000, -206.400000) "></path>
                    <g id="TOP" transform="translate(201.600000, 0.000000)">
                        <g id="Camear" transform="translate(70.800000, 0.000000)">
                            <circle id="Camera" fill="#262626" cx="9.6" cy="9.6" r="9.6"></circle>
                            <circle id="Camera" fill="#FFFFFF" cx="9.6" cy="9.6" r="6"></circle>
                        </g>
                        <g id="Loudspeaker" transform="translate(0.000000, 3.600000)">
                            <path d="M6,0 L46.8,0 C50.1137085,2.79460044e-16 52.8,2.6862915 52.8,6 C52.8,9.3137085 50.1137085,12 46.8,12 L6,12 C2.6862915,12 4.05812251e-16,9.3137085 0,6 C-4.05812251e-16,2.6862915 2.6862915,1.4968968e-15 6,0 Z" fill="#262626"></path>
                            <path d="M6,2.4 L46.8,2.4 C48.7882251,2.4 50.4,4.0117749 50.4,6 C50.4,7.9882251 48.7882251,9.6 46.8,9.6 L6,9.6 C4.0117749,9.6 2.4,7.9882251 2.4,6 C2.4,4.0117749 4.0117749,2.4 6,2.4 Z" fill="#FFFFFF"></path>
                        </g>
                    </g>
                </g>
                <g id="Screen" transform="translate(24.000000, 18.000000)">
                    <mask id="mask-3" fill="white">
                        <use xlink:href="#path-2"></use>
                    </mask>
                    <use fill="#3D3D3D" fill-rule="nonzero" xlink:href="#path-2"></use>
                </g>
            </g>
        </g>
    </g>
</svg>