<?xml version="1.0" encoding="UTF-8"?>
<svg width="350px" height="57px" viewBox="0 0 350 57" version="1.1" xmlns="http://www.w3.org/2000/svg" xmlns:xlink="http://www.w3.org/1999/xlink">
    <!-- Generator: sketchtool 62 (101010) - https://sketch.com -->
    <title>7946AB35-9921-4B2B-BA5F-790B1B784243</title>
    <desc>Created with sketchtool.</desc>
    <g id="Style-Guide" stroke="none" stroke-width="1" fill="none" fill-rule="evenodd">
        <g id="Style-Guidle---Light" transform="translate(-223.000000, -2642.000000)">
            <g id="icon-logo-header-placeholder" transform="translate(223.000000, 2642.000000)">
                <path d="M73.7639159,7.73821176 L76.8470874,28.6261725 L78.3501618,7.73821176 L86.8373786,7.73821176 L84.1563107,30.1205255 C83.7326861,33.6630745 83.3770227,36.0797412 83.0915858,37.3693882 C82.8038835,38.6590353 82.329288,39.7246431 81.6632686,40.5628 C80.9972492,41.4032314 80.0729773,42.0207608 78.8881877,42.4165255 C77.7045307,42.8134275 75.812945,43.0124471 73.2122977,43.0124471 L67.5239482,43.0124471 L67.5239482,38.0688 C68.9817152,38.0688 69.9195793,37.9948784 70.3386731,37.8481725 C70.7566343,37.7003294 70.9661812,37.3693882 70.9661812,36.8564863 C70.9661812,36.6085647 70.7724919,35.5281725 70.3851133,33.6164471 L65.2483819,7.73821176 L73.7639159,7.73821176 Z M11.0287379,0.137254902 C13.893301,0.137254902 16.2685437,0.727490196 18.1578641,1.91023529 C20.0460518,3.09070588 21.2772816,4.49294118 21.8504207,6.11807843 C22.4224272,7.74094118 22.7089968,10.1007451 22.7089968,13.1929412 L22.7089968,14.824902 L12.9339159,14.824902 L12.9339159,11.3972157 C12.9339159,9.23756863 12.8410356,7.88537255 12.6552751,7.34176471 C12.4683819,6.79701961 12.027767,6.52521569 11.331165,6.52521569 C10.7274434,6.52521569 10.317411,6.75835294 10.101068,7.22462745 C9.88359223,7.69203922 9.77598706,8.88729412 9.77598706,10.8160784 L9.77598706,28.9291373 C9.77598706,30.6247843 9.88359223,31.7392941 10.101068,32.2760784 C10.317411,32.8117255 10.7500971,33.0801176 11.4013916,33.0801176 C12.1127184,33.0801176 12.5963754,32.7764706 12.8523625,32.1703137 C13.1072168,31.5641569 13.2352104,30.3836863 13.2352104,28.6266275 L13.2352104,24.1503922 L11.2620712,24.1503922 L11.2620712,18.4152157 L22.7089968,18.4152157 L22.7089968,38.6754118 L16.5664401,38.6754118 L15.6614239,35.9710196 C14.9954045,37.1367059 14.1549515,38.0112549 13.1411974,38.5935294 C12.1263107,39.1758039 10.9290615,39.4680784 9.55058252,39.4680784 C7.9081877,39.4680784 6.37113269,39.0666275 4.93828479,38.2671373 C3.50430421,37.4665098 2.41579288,36.4759608 1.67275081,35.2943529 C0.928576052,34.1138824 0.464174757,32.8742745 0.278414239,31.5755294 C0.103580811,30.3553218 0.0110219371,28.558884 0.000737617727,26.1871643 L-0.000226537209,14.5212549 C-0.000226537209,10.9161569 0.193462783,8.29705882 0.579708738,6.66509804 C0.967087379,5.03427451 2.07825243,3.53764706 3.9120712,2.1774902 C5.74702265,0.818470588 8.11886731,0.137254902 11.0287379,0.137254902 Z M338.384417,7.178 C340.428916,7.178 342.165324,7.43843137 343.599304,7.95929412 C345.029887,8.48015686 346.129725,9.16705882 346.895421,10.0222745 C347.662249,10.8774902 348.125518,11.6701569 348.288625,12.4002745 C348.450599,13.1315294 348.532152,14.2744706 348.532152,15.8279608 L348.532152,17.622549 L340.220502,17.622549 L340.220502,15.9439608 C340.220502,14.5144314 340.138948,13.6091765 339.974709,13.2281961 C339.813867,12.8472157 339.4061,12.6572941 338.755939,12.6572941 C338.229239,12.6572941 337.836197,12.8312941 337.572282,13.1815686 C337.309498,13.5307059 337.179239,14.0549804 337.179239,14.7555294 C337.179239,15.704 337.24267,16.3988627 337.375194,16.8412549 C337.506586,17.2847843 337.901893,17.7703922 338.558851,18.2992157 C339.215809,18.8280392 340.568236,19.5968235 342.611602,20.6067059 C345.335712,21.9441176 347.123091,23.2030588 347.974871,24.3835294 C348.82665,25.5651373 349.253673,27.2823922 349.253673,29.5364314 C349.253673,32.0531765 348.928592,33.9535294 348.277298,35.2363529 C347.627136,36.5180392 346.538625,37.5051765 345.015162,38.1977647 C343.490566,38.8880784 341.652217,39.2349412 339.498981,39.2349412 C337.116942,39.2349412 335.076974,38.8619216 333.382476,38.1158824 C331.685712,37.3687059 330.522443,36.3599608 329.887006,35.0839608 C329.252702,33.8102353 328.93555,31.8825882 328.93555,29.3032941 L328.93555,27.8112157 L337.247201,27.8112157 L337.247201,29.7695686 C337.247201,31.4333725 337.351408,32.5126275 337.560955,33.0096078 C337.769369,33.5077255 338.182799,33.7567843 338.802379,33.7567843 C339.468398,33.7567843 339.932799,33.5884706 340.196715,33.2541176 C340.459498,32.920902 340.592023,32.2169412 340.592023,31.1456471 C340.592023,29.6683529 340.419854,28.7426275 340.081181,28.3707451 C339.725518,27.9977255 337.904159,26.893451 334.6239,25.0601961 C331.866942,23.5055686 330.188301,22.0953725 329.583447,20.8284706 C328.98199,19.5615686 328.679563,18.0581176 328.679563,16.3181176 C328.679563,13.8468627 329.004644,12.0238431 329.654806,10.8501961 C330.304968,9.67768627 331.407071,8.77129412 332.964515,8.13329412 C334.519693,7.49756863 336.32746,7.178 338.384417,7.178 Z M315.166618,7.17902353 C317.796715,7.17902353 319.969207,7.67941569 321.679563,8.68247451 C323.389919,9.68439608 324.588301,11.0138471 325.279239,12.6685529 C325.96678,14.3243961 326.312249,16.6523569 326.312249,19.651298 L326.312249,23.7545137 L314.166456,23.7545137 L314.166456,30.4461216 C314.166456,31.8438078 314.268398,32.745651 314.470016,33.1493765 C314.670502,33.5542392 315.05788,33.7566706 315.631019,33.7566706 C316.341214,33.7566706 316.819207,33.4871412 317.058204,32.9514941 C317.299466,32.4158471 317.418398,31.3786706 317.418398,29.8388275 L317.418398,25.7583569 L326.312249,25.7583569 L326.312249,28.0442392 C326.312249,29.9559647 326.192184,31.4241608 325.950922,32.4499647 C325.711926,33.4769059 325.150113,34.5709451 324.267751,35.7377686 C323.385388,36.9034549 322.267427,37.7780039 320.911602,38.3602784 C319.558042,38.9425529 317.859013,39.2348275 315.81678,39.2348275 C313.834579,39.2348275 312.084579,38.947102 310.569045,38.371651 C309.051246,37.7973373 307.870987,37.0080824 307.027136,36.0050235 C306.183285,35.003102 305.598819,33.8999647 305.273738,32.6956118 C304.948657,31.4901216 304.786683,29.7376118 304.786683,27.4380824 L304.786683,18.415102 C304.786683,15.7107098 305.150275,13.5772196 305.87746,12.0157686 C306.605777,10.4531804 307.797362,9.25792549 309.454482,8.4254549 C311.109337,7.59412157 313.013382,7.17902353 315.166618,7.17902353 Z M97.8960194,0.930035294 L97.8960194,9.86544706 C98.669644,8.96246667 99.5327508,8.28807451 100.48534,7.84340784 C101.436796,7.40101569 102.469806,7.17811373 103.584369,7.17811373 C104.868835,7.17811373 105.984531,7.3805451 106.928058,7.78540784 C107.872718,8.18913333 108.591974,8.75548627 109.088091,9.48674118 C109.583074,10.2168588 109.880971,10.9321922 109.98178,11.6304667 C110.077283,12.2941447 110.12704,13.6682258 110.132013,15.7536771 L110.132427,30.0494471 C110.132427,32.3182706 109.98178,34.0082314 109.679353,35.1204667 C109.378058,36.2304275 108.670129,37.1948196 107.555566,38.0113686 C106.439871,38.8256431 105.116893,39.2350549 103.584369,39.2350549 C102.485663,39.2350549 101.45945,38.9928196 100.507994,38.5106235 C99.5554045,38.0272902 98.6855016,37.3039961 97.8960194,36.3384667 L97.2922977,38.6755255 L88.5151133,38.6755255 L88.5151133,0.930035294 L97.8960194,0.930035294 Z M53.4064887,7.17822745 C56.5791424,7.17822745 58.9713754,7.74116863 60.5809223,8.86932549 C62.1904693,9.9963451 63.1577832,11.3792471 63.4839968,13.0180314 C63.8090777,14.6579529 63.9710518,18.0344627 63.9710518,23.1475608 L63.9710518,38.6756392 L54.8461327,38.6756392 L54.8461327,35.9189333 C54.2729935,37.0232078 53.5333495,37.8534039 52.6283333,38.4049725 C51.7221845,38.9588157 50.6427346,39.2351686 49.3888511,39.2351686 C47.747589,39.2351686 46.2422492,38.7723059 44.8728317,37.8477176 C43.5022816,36.9231294 42.8170065,34.8976784 42.8170065,31.7736392 L42.8170065,29.2330118 C42.8170065,26.9175608 43.1805987,25.3401882 43.9089159,24.5008941 C44.6361003,23.6604627 46.4404693,22.6812863 49.3197573,21.5633647 C52.3995307,20.3499137 54.047589,19.534502 54.2650647,19.1148549 C54.4814078,18.6952078 54.5901456,17.8399922 54.5901456,16.5503451 C54.5901456,14.9343059 54.4700809,13.8812078 54.2299515,13.391051 C53.989822,12.9008941 53.5922492,12.6575216 53.033835,12.6575216 C52.3995307,12.6575216 52.0042233,12.8633647 51.850178,13.275051 C51.695,13.6867373 51.6179773,14.7546196 51.6179773,16.4809725 L51.6179773,19.722149 L42.8170065,19.722149 L42.8170065,17.6455216 C42.8170065,15.2527373 43.0922492,13.4069725 43.6416019,12.1093647 C44.1909547,10.8117569 45.2941909,9.66540392 46.950178,8.67030588 C48.6072977,7.6763451 50.7594013,7.17822745 53.4064887,7.17822745 Z M204.940858,7.17822745 C208.113511,7.17822745 210.505744,7.74116863 212.115291,8.86932549 C213.724838,9.9963451 214.692152,11.3792471 215.018366,13.0180314 C215.33296,14.6050522 215.494801,17.8184305 215.504915,22.658166 L215.505421,38.6756392 L206.380502,38.6756392 L206.380502,35.9189333 C205.807362,37.0232078 205.067718,37.8534039 204.162702,38.4049725 C203.256553,38.9588157 202.177104,39.2351686 200.92322,39.2351686 C199.281958,39.2351686 197.776618,38.7723059 196.407201,37.8477176 C195.03665,36.9231294 194.351375,34.8976784 194.351375,31.7736392 L194.351375,29.2330118 C194.351375,26.9175608 194.714968,25.3401882 195.443285,24.5008941 C196.170469,23.6604627 197.974838,22.6812863 200.854126,21.5633647 C203.9339,20.3499137 205.581958,19.534502 205.799434,19.1148549 C206.015777,18.6952078 206.124515,17.8399922 206.124515,16.5503451 C206.124515,14.9343059 206.00445,13.8812078 205.76432,13.391051 C205.524191,12.9008941 205.126618,12.6575216 204.568204,12.6575216 C203.9339,12.6575216 203.538592,12.8633647 203.384547,13.275051 C203.229369,13.6867373 203.152346,14.7546196 203.152346,16.4809725 L203.152346,19.722149 L194.351375,19.722149 L194.351375,17.6455216 C194.351375,15.2527373 194.626618,13.4069725 195.175971,12.1093647 C195.725324,10.8117569 196.82856,9.66540392 198.484547,8.67030588 C200.141667,7.6763451 202.29377,7.17822745 204.940858,7.17822745 Z M228.880178,7.17811373 C231.325647,7.17811373 233.415453,7.69897647 235.149595,8.73956471 C236.882605,9.7812902 238.03568,11.0948196 238.608819,12.6801529 C239.181958,14.2654863 239.468528,16.5115647 239.468528,19.4183882 L230.621117,19.4183882 L230.621117,15.8508196 C230.621117,14.6078 230.520307,13.7639569 230.319822,13.3215647 C230.118204,12.8780353 229.746683,12.6574078 229.205259,12.6574078 C228.662702,12.6574078 228.29911,12.8518784 228.11335,13.2396824 C227.928722,13.6286235 227.834709,14.4986235 227.834709,15.8508196 L227.834709,30.4452118 C227.834709,31.5494863 227.974029,32.3774078 228.25267,32.9278392 C228.531311,33.4794078 228.941343,33.7557608 229.4839,33.7557608 C230.118204,33.7557608 230.547492,33.4680353 230.772896,32.8937216 C230.997168,32.3182706 231.109304,31.2310549 231.109304,29.6298 L231.109304,25.9450941 L239.468528,25.9450941 C239.45267,28.4174863 239.36432,30.2700745 239.201214,31.5062706 C239.039239,32.7424667 238.520469,34.0082314 237.646036,35.3069765 C236.770469,36.6034471 235.628722,37.5837608 234.220793,38.2445059 C232.811731,38.9041137 231.06966,39.2350549 228.995712,39.2350549 C226.348625,39.2350549 224.25089,38.7790157 222.703641,37.8714863 C221.155259,36.9616824 220.059951,35.6879569 219.417718,34.046898 C218.775485,32.4081137 218.453803,30.0801529 218.453803,27.0652902 L218.453803,18.2754471 C218.453803,15.6495255 218.717718,13.6672902 219.243285,12.3310157 C219.769984,10.9947412 220.892476,9.80062353 222.610761,8.75207451 C224.329045,7.70238824 226.418851,7.17811373 228.880178,7.17811373 Z M173.610534,0.930262745 C173.985453,3.19908627 174.371699,5.87504706 174.770405,8.95473333 L176.159078,18.5554392 L178.405194,0.930262745 L191.124126,0.930262745 L191.124126,38.6746157 L182.579142,38.6746157 L182.567816,13.1932824 L179.165227,38.6746157 L173.105356,38.6746157 L169.518139,13.7766941 L169.506812,38.6746157 L160.961828,38.6746157 L160.961828,0.930262745 L173.610534,0.930262745 Z M251.636068,0.930262745 L251.636068,9.4221451 C252.441408,8.67496863 253.311311,8.11316471 254.249175,7.73900784 C255.184773,7.36485098 256.187201,7.17834118 257.255324,7.17834118 C258.89432,7.17834118 260.293188,7.59798824 261.445129,8.43728235 C262.600469,9.27657647 263.303867,10.2432431 263.559854,11.3395569 C263.802573,12.3836652 263.930225,14.2488664 263.941832,16.934178 L263.942702,38.6746157 L254.560663,38.6746157 L254.560663,16.8995961 C254.560663,15.0970471 254.472314,13.9381843 254.295615,13.4264196 C254.115518,12.9135176 253.717945,12.6576353 253.098366,12.6576353 C252.525227,12.6576353 252.137848,12.9214784 251.937362,13.450302 C251.735744,13.9791255 251.636068,15.0276745 251.636068,16.5970863 L251.636068,38.6746157 L242.255162,38.6746157 L242.255162,0.930262745 L251.636068,0.930262745 Z M148.933495,0.930262745 L148.933495,38.6746157 L139.273948,38.6746157 L139.273948,0.930262745 L148.933495,0.930262745 Z M276.829612,7.73787059 L276.829612,38.6746157 L267.170065,38.6746157 L267.170065,7.73787059 L276.829612,7.73787059 Z M135.906472,0.930262745 L135.906472,38.6746157 L126.246926,38.6746157 L126.246926,0.930262745 L135.906472,0.930262745 Z M295.473964,7.17868235 C297.083511,7.17868235 298.399693,7.55966275 299.422508,8.32048627 C300.443058,9.08244706 301.101149,10.0422902 301.395647,11.2000157 C301.690146,12.3577412 301.837395,14.2888 301.837395,16.9931922 L301.837395,38.6749569 L292.455356,38.6749569 L292.455356,17.2490745 C292.455356,15.1201333 292.386262,13.8236627 292.246942,13.356251 C292.107621,12.8899765 291.720243,12.6568392 291.085939,12.6568392 C290.421052,12.6568392 290.001958,12.9252314 289.832055,13.4608784 C289.670243,13.9721016 289.584457,15.297197 289.576653,17.4351821 L289.576068,38.6749569 L280.195162,38.6749569 L280.195162,7.73821176 L289.739175,7.73821176 L289.576068,10.5881725 C290.257945,9.4520549 291.089337,8.59911373 292.073641,8.03048627 C293.05568,7.46299608 294.189498,7.17868235 295.473964,7.17868235 Z M122.880583,7.73787059 L122.880583,38.6746157 L113.221036,38.6746157 L113.221036,7.73787059 L122.880583,7.73787059 Z M41.1461812,7.17868235 L41.1461812,18.0656235 C39.4278964,18.0656235 38.1660841,18.2987608 37.3607443,18.7650353 C36.5565372,19.2313098 36.0604207,19.8806824 35.8746602,20.7120157 C35.6966397,21.5087101 35.6039207,23.3007731 35.5965032,26.0892056 L35.5960194,38.6749569 L26.2151133,38.6749569 L26.2151133,7.73821176 L35.5960194,7.73821176 L35.2244984,11.8061725 C36.5871197,8.89252549 38.5602589,7.34927059 41.1461812,7.17868235 Z M206.124515,23.9641098 C204.622573,25.0683843 203.751537,25.9918353 203.51254,26.7378745 C203.272411,27.485051 203.152346,28.5563451 203.152346,29.9563059 C203.152346,31.5575608 203.256553,32.5901882 203.4661,33.0564627 C203.674515,33.5227373 204.089078,33.7558745 204.708657,33.7558745 C205.296521,33.7558745 205.679369,33.5727765 205.857201,33.2077176 C206.035032,32.8437961 206.124515,31.8828157 206.124515,30.3293255 L206.124515,23.9641098 Z M54.5901456,23.9641098 C53.0882039,25.0683843 52.2171683,25.9918353 51.9781715,26.7378745 C51.7380421,27.485051 51.6179773,28.5563451 51.6179773,29.9563059 C51.6179773,31.5575608 51.7221845,32.5901882 51.9317314,33.0564627 C52.1401456,33.5227373 52.5547087,33.7558745 53.174288,33.7558745 C53.7621521,33.7558745 54.145,33.5727765 54.3228317,33.2077176 C54.5006634,32.8437961 54.5901456,31.8828157 54.5901456,30.3293255 L54.5901456,23.9641098 Z M99.2654369,12.6574078 C98.6934304,12.6574078 98.3207767,12.8700745 98.1508738,13.2976824 C97.9809709,13.7252902 97.8960194,14.8011333 97.8960194,16.5274863 L97.8960194,29.8629373 C97.8960194,31.5256039 97.9922977,32.5900745 98.1859871,33.056349 C98.3796764,33.5226235 98.7625243,33.7557608 99.3356634,33.7557608 C99.9235275,33.7557608 100.306375,33.5158 100.48534,33.0336039 C100.662039,32.5514078 100.751521,31.3936824 100.751521,29.5592902 L100.751521,16.5274863 C100.751521,14.9262314 100.650712,13.8810941 100.450227,13.3909373 C100.248608,12.9019176 99.8544337,12.6574078 99.2654369,12.6574078 Z M315.607233,12.6571804 C314.955939,12.6571804 314.553835,12.8550627 314.398657,13.2508275 C314.243479,13.6477294 314.166456,14.7156118 314.166456,16.4578863 L314.166456,18.718749 L316.907557,18.718749 L316.907557,16.4578863 C316.907557,14.8566314 316.821472,13.8228667 316.650437,13.3565922 C316.480534,12.8903176 316.132799,12.6571804 315.607233,12.6571804 Z M122.880583,0.930262745 L122.880583,5.8488902 L113.221036,5.8488902 L113.221036,0.930262745 L122.880583,0.930262745 Z M276.829612,0.930262745 L276.829612,5.8488902 L267.170065,5.8488902 L267.170065,0.930262745 L276.829612,0.930262745 Z" id="Combined-Shape" fill="#8FA6AE"></path>
                <path d="M216.439547,45.4867725 L216.439547,47.3177529 L216.191489,47.3177529 C216.191489,47.2154 216.151845,47.1403412 216.073689,47.0891647 C215.995534,47.0379882 215.859612,47.0118314 215.665922,47.0118314 L211.188414,47.0118314 L211.188414,48.732498 L213.897799,48.732498 C214.081294,48.732498 214.224013,48.7074784 214.325955,48.6574392 C214.426764,48.6062627 214.477735,48.4743412 214.477735,48.2616745 L214.726926,48.2616745 L214.726926,50.4247333 L214.477735,50.4247333 C214.477735,50.2132039 214.426764,50.0767333 214.325955,50.0164588 C214.224013,49.9561843 214.081294,49.9266157 213.897799,49.9266157 L211.188414,49.9266157 L211.188414,51.8417529 L215.80411,51.8417529 C215.942298,51.8417529 216.055566,51.8087725 216.142783,51.743949 C216.23,51.6791255 216.274175,51.5915569 216.274175,51.4801059 L216.522233,51.4801059 L216.522233,53.3804588 L216.274175,53.3804588 C216.274175,53.2417137 216.23,53.1643804 216.142783,53.1450471 C216.055566,53.1257137 215.942298,53.1177529 215.80411,53.1177529 L209.36479,53.1177529 L209.36479,52.8675569 C209.429353,52.8675569 209.48712,52.845949 209.536958,52.8050078 C209.587929,52.7629294 209.613981,52.7003804 209.613981,52.6173608 L209.613981,46.3192431 C209.613981,46.2362235 209.587929,46.1725373 209.536958,46.1315961 C209.48712,46.0895176 209.429353,46.0690471 209.36479,46.0690471 L209.36479,45.8199882 L215.665922,45.8199882 C215.859612,45.8199882 215.995534,45.7892824 216.073689,45.7301451 C216.151845,45.6698706 216.191489,45.5879882 216.191489,45.4867725 L216.439547,45.4867725 Z M130.267168,45.7364 C130.773479,45.7364 131.289984,45.8125961 131.81555,45.9649882 C132.339984,46.1173804 132.81911,46.3471059 133.251796,46.6518902 C133.685615,46.9566745 134.040146,47.3433412 134.316521,47.8107529 C134.592896,48.2770275 134.731084,48.8308706 134.731084,49.4677333 C134.731084,50.1068706 134.592896,50.6595765 134.316521,51.125851 C134.040146,51.5932627 133.685615,51.9799294 133.251796,52.2847137 C132.81911,52.589498 132.339984,52.8124 131.81555,52.9511451 C131.289984,53.0898902 130.773479,53.1581255 130.267168,53.1581255 C129.760858,53.1581255 129.244353,53.0898902 128.719919,52.9511451 C128.194353,52.8124 127.715227,52.589498 127.28254,52.2847137 C126.848722,51.9799294 126.494191,51.5932627 126.218948,51.125851 C125.942573,50.6595765 125.804385,50.1068706 125.804385,49.4677333 C125.804385,48.8308706 125.942573,48.2770275 126.218948,47.8107529 C126.494191,47.3433412 126.848722,46.9566745 127.28254,46.6518902 C127.715227,46.3471059 128.194353,46.1173804 128.719919,45.9649882 C129.244353,45.8125961 129.760858,45.7364 130.267168,45.7364 Z M177.265146,45.7366275 C177.734078,45.7366275 178.159968,45.7730196 178.542816,45.8469412 C178.924531,45.922 179.258673,45.9993333 179.54411,46.0823529 C179.829547,46.1665098 180.056084,46.2449804 180.222589,46.318902 C180.387961,46.3928235 180.48877,46.4292157 180.526149,46.4292157 C180.571456,46.4292157 180.6111,46.4076078 180.643948,46.3609804 C180.675663,46.3143529 180.700583,46.2768235 180.718706,46.2495294 L180.92712,46.4155686 L179.848803,48.0952941 L179.710615,47.9974902 C179.710615,47.9701961 179.70835,47.9417647 179.703819,47.9144706 C179.699288,47.8860392 179.691359,47.8541961 179.682298,47.8178039 C179.664175,47.715451 179.572427,47.6119608 179.405922,47.5050588 C179.24055,47.3992941 179.035534,47.304902 178.792006,47.2207451 C178.547346,47.1377255 178.289094,47.0683529 178.017249,47.0126275 C177.745405,46.956902 177.495081,46.9296078 177.265146,46.9296078 C176.877767,46.9296078 176.506246,46.9841961 176.151715,47.0956471 C175.797184,47.207098 175.489094,47.3685882 175.226311,47.5812549 C174.963528,47.7939216 174.753981,48.0554902 174.59767,48.3648235 C174.441359,48.6752941 174.363204,49.0289804 174.363204,49.4270196 C174.363204,49.8239216 174.441359,50.1787451 174.59767,50.4880784 C174.753981,50.798549 174.963528,51.0589804 175.226311,51.2716471 C175.489094,51.4843137 175.797184,51.6469412 176.151715,51.7583922 C176.506246,51.8687059 176.877767,51.9244314 177.265146,51.9244314 C177.559644,51.9244314 177.867735,51.8891765 178.19055,51.8198039 C178.513366,51.7504314 178.806731,51.6628627 179.075178,51.557098 C179.342492,51.4501961 179.565631,51.3307843 179.745728,51.195451 C179.924693,51.0612549 180.014175,50.9350196 180.014175,50.8144706 C180.014175,50.7496471 179.996052,50.6939216 179.959806,50.6472941 L180.152362,50.5358431 L181.065307,52.007451 L180.954304,52.118902 C180.92712,52.118902 180.901068,52.1166275 180.878414,52.1109412 C180.855761,52.1063922 180.829709,52.1041176 180.802524,52.1041176 C180.747023,52.1041176 180.615631,52.1598431 180.40835,52.2712941 C180.201068,52.3816078 179.938285,52.5067059 179.621133,52.645451 C179.302848,52.7841961 178.941521,52.9047451 178.536019,53.0059608 C178.130518,53.1083137 177.706893,53.1583529 177.265146,53.1583529 C176.684078,53.1583529 176.126796,53.0855686 175.592168,52.9377255 C175.05754,52.7887451 174.58521,52.5601569 174.176311,52.2496863 C173.766278,51.9403529 173.441197,51.5548235 173.202201,51.0919608 C172.962071,50.629098 172.842006,50.0877647 172.842006,49.4679608 C172.842006,48.8583922 172.962071,48.3193333 173.202201,47.8519216 C173.441197,47.3856471 173.766278,46.9944314 174.176311,46.6794118 C174.58521,46.3643922 175.05754,46.1289804 175.592168,45.9720392 C176.126796,45.815098 176.684078,45.7366275 177.265146,45.7366275 Z M111.639579,45.7357176 C112.127767,45.7357176 112.551392,45.7732471 112.910453,45.8471686 C113.270647,45.9222275 113.581003,45.9995608 113.843786,46.0825804 C114.105437,46.1656 114.327443,46.2452078 114.506408,46.3191294 C114.686505,46.393051 114.836019,46.4294431 114.956084,46.4294431 C115.08521,46.4294431 115.176958,46.4010118 115.23246,46.3475608 L115.397832,46.4567373 L114.44411,48.1921882 L114.307055,48.1364627 C114.287799,48.0079529 114.251553,47.901051 114.196052,47.8180314 C114.122427,47.7065804 114.000097,47.5974039 113.830194,47.490502 C113.659159,47.3858745 113.458673,47.2903451 113.228738,47.2061882 C112.99767,47.1231686 112.749612,47.0572078 112.482298,47.0060314 C112.214984,46.9548549 111.94767,46.928698 111.680356,46.928698 C111.478738,46.928698 111.269191,46.9457569 111.052848,46.9776 C110.835372,47.0105804 110.639417,47.0594824 110.464984,47.1231686 C110.289417,47.1879922 110.144434,47.2744235 110.030032,47.3801882 C109.914498,47.4870902 109.856731,47.6190118 109.856731,47.7748157 C109.856731,47.9977176 109.937152,48.1637569 110.099126,48.2752078 C110.259968,48.3866588 110.47178,48.4696784 110.734563,48.5254039 C110.997346,48.5799922 111.296375,48.6175216 111.632783,48.6357176 C111.969191,48.655051 112.311262,48.6766588 112.662395,48.7050902 C113.012395,48.7323843 113.355599,48.7812863 113.692006,48.8506588 C114.028414,48.9200314 114.327443,49.0314824 114.590227,49.1838745 C114.85301,49.3362667 115.064822,49.5421098 115.225663,49.8014039 C115.386505,50.0595608 115.466926,50.3973255 115.466926,50.8135608 C115.466926,51.2946196 115.340065,51.6881098 115.087476,51.9928941 C114.833754,52.2988157 114.518867,52.5399137 114.14055,52.715051 C113.763366,52.8901882 113.355599,53.0084627 112.918382,53.0687373 C112.480032,53.1278745 112.072265,53.1585804 111.695081,53.1585804 C111.169515,53.1585804 110.7289,53.1278745 110.374369,53.0687373 C110.019838,53.0084627 109.72534,52.9356784 109.490874,52.8458353 C109.255275,52.7582667 109.069515,52.6797961 108.931327,52.6104235 C108.793139,52.5421882 108.673074,52.5069333 108.572265,52.5069333 C108.507702,52.5069333 108.44767,52.5444627 108.392168,52.6172471 L108.198479,52.5069333 L108.958511,50.8283451 L109.096699,50.8977176 C109.096699,50.9807373 109.114822,51.0546588 109.152201,51.1194824 C109.216764,51.2309333 109.343625,51.3389725 109.53165,51.4458745 C109.720809,51.5516392 109.937152,51.6471686 110.181812,51.7301882 C110.42534,51.8132078 110.681327,51.8803059 110.948641,51.9314824 C111.215955,51.9826588 111.454951,52.0076784 111.666764,52.0076784 C111.823074,52.0076784 112.025825,51.9951686 112.275016,51.9724235 C112.523074,51.9496784 112.767735,51.9007765 113.007864,51.8268549 C113.246861,51.7529333 113.454142,51.6517176 113.629709,51.5209333 C113.804142,51.3924235 113.891359,51.2218353 113.891359,51.0080314 C113.891359,50.796502 113.810939,50.6384235 113.650097,50.5360706 C113.489256,50.4348549 113.277443,50.3609333 113.01466,50.3143059 C112.751877,50.2688157 112.451715,50.2381098 112.11644,50.2244627 C111.780032,50.2108157 111.436828,50.1892078 111.086828,50.1619137 C110.736828,50.1346196 110.393625,50.0879922 110.057217,50.0231686 C109.720809,49.9583451 109.42178,49.8503059 109.158997,49.6979137 C108.896214,49.5443843 108.684401,49.3362667 108.52356,49.0724235 C108.362718,48.8097176 108.281165,48.4651294 108.281165,48.0397961 C108.281165,47.7532078 108.347994,47.4700314 108.48165,47.1936784 C108.615307,46.9161882 108.820324,46.6705412 109.096699,46.4567373 C109.373074,46.2452078 109.723074,46.0712078 110.146699,45.9370118 C110.570324,45.8028157 111.067573,45.7357176 111.639579,45.7357176 Z M92.4464401,45.7366275 C92.9153722,45.7366275 93.3412621,45.7730196 93.72411,45.8469412 C94.1058252,45.922 94.4399676,45.9993333 94.7254045,46.0823529 C95.0108414,46.1665098 95.2373786,46.2449804 95.4038835,46.318902 C95.5692557,46.3928235 95.6700647,46.4292157 95.7074434,46.4292157 C95.7527508,46.4292157 95.7923948,46.4076078 95.8252427,46.3609804 C95.8569579,46.3143529 95.881877,46.2768235 95.9,46.2495294 L96.1084142,46.4155686 L95.0300971,48.0952941 L94.8919094,47.9974902 C94.8919094,47.9701961 94.889644,47.9417647 94.8851133,47.9144706 C94.8805825,47.8860392 94.8726537,47.8541961 94.8635922,47.8178039 C94.8454693,47.715451 94.7537217,47.6119608 94.5872168,47.5050588 C94.4218447,47.3992941 94.2168285,47.304902 93.973301,47.2207451 C93.7286408,47.1377255 93.4703883,47.0683529 93.1985437,47.0126275 C92.926699,46.956902 92.6763754,46.9296078 92.4464401,46.9296078 C92.0590615,46.9296078 91.6875405,46.9841961 91.3330097,47.0956471 C90.978479,47.207098 90.6703883,47.3685882 90.4076052,47.5812549 C90.144822,47.7939216 89.9352751,48.0554902 89.7789644,48.3648235 C89.6226537,48.6752941 89.5444984,49.0289804 89.5444984,49.4270196 C89.5444984,49.8239216 89.6226537,50.1787451 89.7789644,50.4880784 C89.9352751,50.798549 90.144822,51.0589804 90.4076052,51.2716471 C90.6703883,51.4843137 90.978479,51.6469412 91.3330097,51.7583922 C91.6875405,51.8687059 92.0590615,51.9244314 92.4464401,51.9244314 C92.7409385,51.9244314 93.0490291,51.8891765 93.3718447,51.8198039 C93.6946602,51.7504314 93.9880259,51.6628627 94.2564725,51.557098 C94.5237864,51.4501961 94.7469256,51.3307843 94.9270227,51.195451 C95.1059871,51.0612549 95.1954693,50.9350196 95.1954693,50.8144706 C95.1954693,50.7496471 95.1773463,50.6939216 95.1411003,50.6472941 L95.333657,50.5358431 L96.2466019,52.007451 L96.1355987,52.118902 L96.0959547,52.1170539 L96.0959547,52.1170539 L96.0597087,52.1109412 C96.037055,52.1063922 96.0110032,52.1041176 95.9838188,52.1041176 C95.9283172,52.1041176 95.7969256,52.1598431 95.589644,52.2712941 C95.3823625,52.3816078 95.1195793,52.5067059 94.8024272,52.645451 C94.4841424,52.7841961 94.1228155,52.9047451 93.7173139,53.0059608 C93.3118123,53.1083137 92.8881877,53.1583529 92.4464401,53.1583529 C91.8653722,53.1583529 91.3080906,53.0855686 90.7734628,52.9377255 C90.238835,52.7887451 89.7665049,52.5601569 89.3576052,52.2496863 C88.9475728,51.9403529 88.6224919,51.5548235 88.3834951,51.0919608 C88.1433657,50.629098 88.023301,50.0877647 88.023301,49.4679608 C88.023301,48.8583922 88.1433657,48.3193333 88.3834951,47.8519216 C88.6224919,47.3856471 88.9475728,46.9944314 89.3576052,46.6794118 C89.7665049,46.3643922 90.238835,46.1289804 90.7734628,45.9720392 C91.3080906,45.815098 91.8653722,45.7366275 92.4464401,45.7366275 Z M100.432896,45.8193059 L100.432896,46.069502 C100.230146,46.069502 100.128204,46.1525216 100.128204,46.319698 L100.128204,50.4809137 C100.128204,51.0643255 100.315097,51.463502 100.688883,51.6818549 C101.061537,51.8990706 101.607492,52.0082471 102.325615,52.0082471 C103.044871,52.0082471 103.590825,51.8990706 103.963479,51.6818549 C104.336133,51.463502 104.523026,51.0643255 104.523026,50.4809137 L104.523026,46.319698 C104.523026,46.1525216 104.384838,46.069502 104.108463,46.069502 L104.108463,45.8193059 L106.319466,45.8193059 L106.319466,46.069502 C106.098592,46.069502 105.987589,46.1525216 105.987589,46.319698 L105.987589,50.4115412 C105.987589,50.9574235 105.909434,51.4077765 105.753123,51.7648745 C105.596812,52.1208353 105.361214,52.405149 105.048592,52.6178157 C104.734838,52.8304824 104.346327,52.9737765 103.880793,53.0488353 C103.415259,53.1216196 102.878366,53.1580118 102.271246,53.1580118 C101.661861,53.1580118 101.1261,53.1216196 100.660566,53.0488353 C100.196165,52.9737765 99.806521,52.8304824 99.492767,52.6178157 C99.1801456,52.405149 98.9445469,52.1208353 98.7882362,51.7648745 C98.6319256,51.4077765 98.5537702,50.9574235 98.5537702,50.4115412 L98.5537702,46.319698 C98.5537702,46.1525216 98.424644,46.069502 98.1663916,46.069502 L98.1663916,45.8193059 L100.432896,45.8193059 Z M185.472362,45.820102 L185.472362,46.0691608 C185.407799,46.0691608 185.350032,46.0896314 185.300194,46.1317098 C185.249223,46.172651 185.224304,46.2363373 185.224304,46.3193569 L185.224304,48.6768863 L189.673495,48.6768863 L189.673495,46.3193569 C189.673495,46.1533176 189.572686,46.0691608 189.368803,46.0691608 L189.368803,45.820102 L191.49712,45.820102 L191.49712,46.0691608 C191.432557,46.0691608 191.37479,46.0896314 191.324951,46.1317098 C191.273981,46.172651 191.249061,46.2363373 191.249061,46.3193569 L191.249061,52.6174745 C191.249061,52.7004941 191.273981,52.7630431 191.324951,52.8051216 C191.37479,52.8460627 191.432557,52.8676706 191.49712,52.8676706 L191.49712,53.1178667 L189.368803,53.1178667 L189.368803,52.8676706 C189.572686,52.8676706 189.673495,52.784651 189.673495,52.6174745 L189.673495,50.009749 L185.224304,50.009749 L185.224304,52.6174745 C185.224304,52.7004941 185.249223,52.7630431 185.300194,52.8051216 C185.350032,52.8460627 185.407799,52.8676706 185.472362,52.8676706 L185.472362,53.1178667 L183.385955,53.1178667 L183.385955,52.8676706 C183.561521,52.8676706 183.648738,52.784651 183.648738,52.6174745 L183.648738,46.3193569 C183.648738,46.1533176 183.561521,46.0691608 183.385955,46.0691608 L183.385955,45.820102 L185.472362,45.820102 Z M223.225016,45.820102 C223.667896,45.820102 224.068867,45.8587686 224.427929,45.9372392 C224.78699,46.0157098 225.095081,46.1408078 225.353333,46.3113961 C225.611586,46.4831216 225.809806,46.7048863 225.947994,46.9778275 C226.086181,47.2507686 226.155275,47.5862588 226.155275,47.984298 C226.155275,48.5938667 225.975178,49.0612784 225.616117,49.3842588 C225.257055,49.7083765 224.773398,49.9267294 224.165146,50.0370431 L226.003495,52.6732 C226.066926,52.7664549 226.143948,52.8221804 226.231165,52.8392392 C226.318382,52.8585725 226.398803,52.8676706 226.47356,52.8676706 L226.47356,53.1178667 L223.88877,53.1178667 L223.88877,52.8676706 C223.971456,52.8676706 224.042816,52.8540235 224.102848,52.8267294 C224.16288,52.798298 224.19233,52.7607686 224.19233,52.7152784 C224.19233,52.668651 224.174207,52.6152 224.137961,52.5549255 C224.100583,52.4957882 224.045081,52.4139059 223.971456,52.3115529 L222.451392,50.1484941 L220.475987,50.1484941 L220.475987,52.6174745 C220.475987,52.7004941 220.505437,52.7630431 220.565469,52.8051216 C220.624369,52.8460627 220.733107,52.8676706 220.889417,52.8676706 L220.889417,53.1178667 L218.49945,53.1178667 L218.49945,52.8676706 C218.766764,52.8676706 218.900421,52.784651 218.900421,52.6174745 L218.900421,46.3193569 C218.900421,46.1521804 218.766764,46.0691608 218.49945,46.0691608 L218.49945,45.820102 L223.225016,45.820102 Z M155.168252,45.8198745 L155.168252,46.0689333 C155.121812,46.0689333 155.074239,46.0825804 155.023269,46.1110118 C154.972298,46.1383059 154.947379,46.1803843 154.947379,46.2361098 C154.947379,46.2816 154.965502,46.3418745 155.00288,46.4157961 C155.039126,46.4908549 155.081036,46.5681882 155.127476,46.6512078 L157.10288,50.2585804 L159.09301,46.6932863 C159.157573,46.5738745 159.206278,46.4783451 159.237994,46.4089725 C159.269709,46.3396 159.286699,46.277051 159.286699,46.2213255 C159.286699,46.1201098 159.226667,46.0689333 159.106602,46.0689333 L159.106602,45.8198745 L161.663074,45.8198745 L161.663074,46.0689333 C161.58945,46.0689333 161.524887,46.0848549 161.469385,46.116698 C161.415016,46.1508157 161.386699,46.2088157 161.386699,46.2918353 L161.386699,52.6172471 C161.386699,52.7014039 161.415016,52.7628157 161.469385,52.8048941 C161.524887,52.8458353 161.58945,52.8674431 161.663074,52.8674431 L161.663074,53.1176392 L159.493981,53.1176392 L159.493981,52.8674431 C159.742039,52.8674431 159.866634,52.7844235 159.866634,52.6172471 L159.866634,48.0113647 L159.83945,48.0113647 L157.062104,53.1176392 L157.020194,53.1176392 L154.29835,47.9977176 L154.270032,47.9977176 L154.270032,52.6172471 C154.270032,52.7844235 154.399159,52.8674431 154.657411,52.8674431 L154.657411,53.1176392 L152.584595,53.1176392 L152.584595,52.8674431 C152.65822,52.8674431 152.722783,52.8458353 152.778285,52.8048941 C152.832654,52.7628157 152.860971,52.7014039 152.860971,52.6172471 L152.860971,46.2918353 C152.860971,46.2088157 152.832654,46.1508157 152.778285,46.116698 C152.722783,46.0848549 152.65822,46.0689333 152.584595,46.0689333 L152.584595,45.8198745 L155.168252,45.8198745 Z M230.397071,45.8195333 L230.397071,46.0697294 C230.314385,46.0697294 230.235097,46.0799647 230.161472,46.1038471 C230.088981,46.1277294 230.051602,46.1845922 230.051602,46.2767098 C230.051602,46.3324353 230.11843,46.4643569 230.252087,46.6724745 C230.385744,46.8805922 230.542055,47.1171412 230.722152,47.3798471 C230.901117,47.6436902 231.08801,47.9143569 231.281699,48.1918471 C231.475388,48.4693373 231.631699,48.704749 231.750631,48.8992196 L233.368107,46.665651 C233.441731,46.5542 233.501764,46.4666314 233.548204,46.4018078 C233.593511,46.3369843 233.616165,46.2767098 233.616165,46.2221216 C233.616165,46.157298 233.573123,46.1152196 233.485906,46.0970235 C233.397557,46.0788275 233.317136,46.0697294 233.243511,46.0697294 L233.243511,45.8195333 L235.661796,45.8195333 L235.661796,46.0697294 C235.588172,46.0697294 235.519078,46.0765529 235.454515,46.0890627 C235.389951,46.1038471 235.323123,46.1356902 235.254029,46.1868667 C235.184935,46.2380431 235.111311,46.3119647 235.033155,46.4097686 C234.955,46.5064353 234.859854,46.6383569 234.749984,46.8043961 L232.400793,50.1490627 L232.400793,52.6180431 C232.400793,52.7840824 232.506133,52.867102 232.717945,52.867102 L232.717945,53.117298 L230.535259,53.117298 L230.535259,52.867102 C230.617945,52.867102 230.687039,52.8466314 230.74254,52.8056902 C230.798042,52.7624745 230.825227,52.7010627 230.825227,52.6180431 L230.825227,50.1490627 L228.157751,46.4018078 C228.093188,46.3096902 227.994644,46.2300824 227.860987,46.1663961 C227.72733,46.1015725 227.614061,46.0697294 227.522314,46.0697294 L227.522314,45.8195333 L230.397071,45.8195333 Z M139.442265,45.8198745 L139.442265,46.0689333 C139.395825,46.0689333 139.348252,46.0825804 139.297282,46.1110118 C139.246311,46.1383059 139.221392,46.1803843 139.221392,46.2361098 C139.221392,46.2816 139.239515,46.3418745 139.276893,46.4157961 C139.313139,46.4908549 139.355049,46.5681882 139.401489,46.6512078 L141.376893,50.2585804 L143.367023,46.6932863 C143.431586,46.5738745 143.480291,46.4783451 143.512006,46.4089725 C143.543722,46.3396 143.560712,46.277051 143.560712,46.2213255 C143.560712,46.1201098 143.50068,46.0689333 143.380615,46.0689333 L143.380615,45.8198745 L145.937087,45.8198745 L145.937087,46.0689333 C145.863463,46.0689333 145.7989,46.0848549 145.743398,46.116698 C145.689029,46.1508157 145.660712,46.2088157 145.660712,46.2918353 L145.660712,52.6172471 C145.660712,52.7014039 145.689029,52.7628157 145.743398,52.8048941 C145.7989,52.8458353 145.863463,52.8674431 145.937087,52.8674431 L145.937087,53.1176392 L143.767994,53.1176392 L143.767994,52.8674431 C144.016052,52.8674431 144.140647,52.7844235 144.140647,52.6172471 L144.140647,48.0113647 L144.113463,48.0113647 L141.336117,53.1176392 L141.294207,53.1176392 L138.572362,47.9977176 L138.544045,47.9977176 L138.544045,52.6172471 C138.544045,52.7844235 138.673172,52.8674431 138.931424,52.8674431 L138.931424,53.1176392 L136.858608,53.1176392 L136.858608,52.8674431 C136.932233,52.8674431 136.996796,52.8458353 137.052298,52.8048941 C137.106667,52.7628157 137.134984,52.7014039 137.134984,52.6172471 L137.134984,46.2918353 C137.134984,46.2088157 137.106667,46.1508157 137.052298,46.116698 C136.996796,46.0848549 136.932233,46.0689333 136.858608,46.0689333 L136.858608,45.8198745 L139.442265,45.8198745 Z M201.04623,45.8198745 L201.04623,46.0689333 C200.972605,46.0689333 200.935227,46.1155608 200.935227,46.2088157 C200.935227,46.2816 201.028107,46.4112471 201.211602,46.5954824 L205.178269,50.7305412 L205.178269,46.3191294 C205.178269,46.1530902 205.058204,46.0689333 204.819207,46.0689333 L204.819207,45.8198745 L206.905615,45.8198745 L206.905615,46.0689333 C206.730049,46.0689333 206.642832,46.1530902 206.642832,46.3191294 L206.642832,52.6172471 C206.642832,52.7844235 206.730049,52.8674431 206.905615,52.8674431 L206.905615,53.1176392 L204.666294,53.1176392 L204.666294,52.8674431 C204.786359,52.8674431 204.846392,52.826502 204.846392,52.7434824 C204.846392,52.6786588 204.772767,52.5717569 204.625518,52.4227765 L200.410793,48.0113647 L200.410793,52.6172471 C200.410793,52.7844235 200.516133,52.8674431 200.729078,52.8674431 L200.729078,53.1176392 L198.683447,53.1176392 L198.683447,52.8674431 C198.85788,52.8674431 198.945097,52.7844235 198.945097,52.6172471 L198.945097,46.3191294 C198.945097,46.1530902 198.85788,46.0689333 198.683447,46.0689333 L198.683447,45.8198745 L201.04623,45.8198745 Z M168.48966,45.8193059 L168.48966,46.069502 C168.425097,46.087698 168.360534,46.1127176 168.295971,46.1445608 C168.231408,46.1786784 168.19856,46.2446392 168.19856,46.3469922 C168.19856,46.4209137 168.214417,46.4948353 168.247265,46.5676196 C168.280113,46.6426784 168.328819,46.7404824 168.392249,46.8598941 L171.267006,52.5063647 C171.312314,52.6087176 171.375744,52.6826392 171.4539,52.7281294 C171.532055,52.7747569 171.621537,52.8213843 171.723479,52.8680118 L171.723479,53.1170706 L169.290469,53.1170706 L169.290469,52.8680118 C169.327848,52.8680118 169.373155,52.8543647 169.428657,52.8259333 C169.484159,52.7986392 169.511343,52.7565608 169.511343,52.7008353 C169.511343,52.6087176 169.475097,52.4893059 169.401472,52.3403255 L168.875906,51.3133843 L165.5039,51.3133843 L165.00665,52.2993843 C164.914903,52.4927176 164.868463,52.6326 164.868463,52.7156196 C164.868463,52.8168353 164.956812,52.8680118 165.131246,52.8680118 L165.131246,53.1170706 L163.169434,53.1170706 L163.169434,52.8680118 C163.288366,52.8498157 163.383511,52.7884039 163.452605,52.6871882 C163.521699,52.5848353 163.588528,52.4699725 163.653091,52.3403255 L166.209563,46.944051 C166.274126,46.823502 166.330761,46.712051 166.381731,46.6108353 C166.432702,46.5084824 166.457621,46.4209137 166.457621,46.3469922 C166.457621,46.2537373 166.425906,46.1889137 166.361343,46.1525216 C166.29678,46.1149922 166.227686,46.087698 166.154061,46.069502 L166.154061,45.8193059 L168.48966,45.8193059 Z M196.265049,45.8198745 L196.265049,46.0689333 C196.024919,46.0689333 195.905987,46.1530902 195.905987,46.3191294 L195.905987,52.6172471 C195.905987,52.7844235 196.024919,52.8674431 196.265049,52.8674431 L196.265049,53.1176392 L193.971359,53.1176392 L193.971359,52.8674431 C194.210356,52.8674431 194.330421,52.7844235 194.330421,52.6172471 L194.330421,46.3191294 C194.330421,46.1530902 194.210356,46.0689333 193.971359,46.0689333 L193.971359,45.8198745 L196.265049,45.8198745 Z M117.236521,45.4858627 C117.236521,45.6166471 117.275032,45.7042157 117.35432,45.7497059 C117.432476,45.7963333 117.512896,45.8190784 117.595583,45.8190784 L123.731343,45.8190784 C123.814029,45.8190784 123.89445,45.7963333 123.973738,45.7497059 C124.050761,45.7042157 124.090405,45.6166471 124.090405,45.4858627 L124.339595,45.4858627 L124.339595,47.4294314 L124.090405,47.4294314 C124.090405,47.2986471 124.050761,47.2110784 123.973738,47.1655882 C123.89445,47.1189608 123.814029,47.0962157 123.731343,47.0962157 L121.451246,47.0962157 L121.451246,52.6175882 C121.451246,52.7836275 121.552055,52.8677843 121.754806,52.8677843 L121.754806,53.1168431 L119.627621,53.1168431 L119.627621,52.8677843 C119.691052,52.8677843 119.748819,52.8461765 119.79979,52.8052353 C119.849628,52.7631569 119.87568,52.7006078 119.87568,52.6175882 L119.87568,47.0962157 L117.595583,47.0962157 C117.512896,47.0962157 117.432476,47.1189608 117.35432,47.1655882 C117.275032,47.2110784 117.236521,47.2986471 117.236521,47.4294314 L116.98733,47.4294314 L116.98733,45.4858627 L117.236521,45.4858627 Z M130.267168,47.0124 C129.917168,47.0124 129.567168,47.0681255 129.217168,47.1784392 C128.867168,47.2898902 128.551149,47.4502431 128.270243,47.6572235 C127.989337,47.8653412 127.761667,48.123498 127.5861,48.4271451 C127.411667,48.7330667 127.323317,49.0799294 127.323317,49.4677333 C127.323317,49.8566745 127.411667,50.2046745 127.5861,50.5083216 C127.761667,50.8142431 127.989337,51.0701255 128.270243,51.2793804 C128.551149,51.487498 128.867168,51.6467137 129.217168,51.7581647 C129.567168,51.8696157 129.917168,51.9242039 130.267168,51.9242039 C130.617168,51.9242039 130.967168,51.8696157 131.317168,51.7581647 C131.667168,51.6467137 131.983188,51.487498 132.264094,51.2793804 C132.545,51.0701255 132.77267,50.8142431 132.948236,50.5083216 C133.12267,50.2046745 133.211019,49.8566745 133.211019,49.4677333 C133.211019,49.0799294 133.12267,48.7330667 132.948236,48.4271451 C132.77267,48.123498 132.545,47.8653412 132.264094,47.6572235 C131.983188,47.4502431 131.667168,47.2898902 131.317168,47.1784392 C130.967168,47.0681255 130.617168,47.0124 130.267168,47.0124 Z M167.217654,47.7060118 L165.919595,50.2864431 L168.378657,50.2864431 L167.217654,47.7060118 Z M222.865955,47.0119451 L220.475987,47.0119451 L220.475987,49.0658275 L222.865955,49.0658275 C223.197832,49.0658275 223.474207,49.0408078 223.695081,48.9896314 C223.915955,48.9395922 224.091521,48.8668078 224.220647,48.7746902 C224.349773,48.6825725 224.441521,48.5733961 224.497023,48.448298 C224.552524,48.3243373 224.579709,48.1878667 224.579709,48.0400235 C224.579709,47.8921804 224.552524,47.7557098 224.497023,47.6294745 C224.441521,47.5055137 224.349773,47.3963373 224.220647,47.3042196 C224.091521,47.2109647 223.915955,47.1404549 223.695081,47.0892784 C223.474207,47.038102 223.197832,47.0119451 222.865955,47.0119451 Z" id="Combined-Shape" fill="#2B2C31"></path>
                <path d="M300.056472,42.7107333 L300.056472,56.557949 L298.978155,56.557949 L298.978155,42.7107333 L300.056472,42.7107333 Z M258.268172,45.4867725 L258.268172,47.3177529 L258.020113,47.3177529 C258.020113,47.2154 257.980469,47.1403412 257.902314,47.0891647 C257.824159,47.0379882 257.688236,47.0118314 257.494547,47.0118314 L253.017039,47.0118314 L253.017039,48.732498 L255.726424,48.732498 C255.909919,48.732498 256.052638,48.7074784 256.154579,48.6574392 C256.255388,48.6062627 256.306359,48.4743412 256.306359,48.2616745 L256.55555,48.2616745 L256.55555,50.4247333 L256.306359,50.4247333 C256.306359,50.2132039 256.255388,50.0767333 256.154579,50.0164588 C256.052638,49.9561843 255.909919,49.9266157 255.726424,49.9266157 L253.017039,49.9266157 L253.017039,51.8417529 L257.632735,51.8417529 C257.770922,51.8417529 257.884191,51.8087725 257.971408,51.743949 C258.058625,51.6791255 258.102799,51.5915569 258.102799,51.4801059 L258.350858,51.4801059 L258.350858,53.3804588 L258.102799,53.3804588 C258.102799,53.2417137 258.058625,53.1643804 257.971408,53.1450471 C257.884191,53.1257137 257.770922,53.1177529 257.632735,53.1177529 L251.193414,53.1177529 L251.193414,52.8675569 C251.257977,52.8675569 251.315744,52.845949 251.365583,52.8050078 C251.416553,52.7629294 251.442605,52.7003804 251.442605,52.6173608 L251.442605,46.3192431 C251.442605,46.2362235 251.416553,46.1725373 251.365583,46.1315961 C251.315744,46.0895176 251.257977,46.0690471 251.193414,46.0690471 L251.193414,45.8199882 L257.494547,45.8199882 C257.688236,45.8199882 257.824159,45.7892824 257.902314,45.7301451 C257.980469,45.6698706 258.020113,45.5879882 258.020113,45.4867725 L258.268172,45.4867725 Z M333.081521,45.820102 L333.081521,46.0691608 C332.824401,46.0691608 332.696408,46.1533176 332.696408,46.3193569 L332.696408,51.8407294 L337.282654,51.8407294 C337.421974,51.8407294 337.535243,51.8088863 337.621327,51.7440627 C337.709676,51.6792392 337.753851,51.5916706 337.753851,51.4802196 L338.001909,51.4802196 L338.001909,53.3805725 L337.753851,53.3805725 C337.753851,53.2418275 337.709676,53.1644941 337.621327,53.1451608 C337.535243,53.1258275 337.421974,53.1178667 337.282654,53.1178667 L330.705146,53.1178667 L330.705146,52.8676706 C330.981521,52.8676706 331.119709,52.784651 331.119709,52.6174745 L331.119709,46.3193569 C331.119709,46.1533176 330.981521,46.0691608 330.705146,46.0691608 L330.705146,45.820102 L333.081521,45.820102 Z M277.960259,45.7360588 C278.365761,45.7360588 278.752006,45.7644902 279.121262,45.8190784 C279.489385,45.8748039 279.816731,45.9373529 280.102168,46.0067255 C280.387605,46.076098 280.625469,46.1409216 280.813495,46.2000588 C281.002654,46.2614706 281.120453,46.2910392 281.166893,46.2910392 C281.249579,46.2910392 281.314142,46.2728431 281.35945,46.236451 C281.40589,46.1977843 281.45233,46.1659412 281.497638,46.1386471 L281.664142,46.236451 L280.848608,48.0674314 L280.572233,47.9844118 C280.590356,47.9286863 280.599417,47.8729608 280.599417,47.8172353 C280.599417,47.6784902 280.514466,47.5533922 280.344563,47.4419412 C280.173528,47.3327647 279.957184,47.2372353 279.694401,47.1576275 C279.432751,47.0802941 279.146181,47.0222941 278.838091,46.9847647 C278.528867,46.9483725 278.236634,46.9290392 277.960259,46.9290392 C277.61932,46.9290392 277.280647,46.9779412 276.944239,47.0746078 C276.607832,47.1724118 276.308803,47.3225294 276.046019,47.5249608 C275.784369,47.7296667 275.571424,47.9935098 275.410583,48.3164902 C275.249741,48.6406078 275.16932,49.034098 275.16932,49.4958235 C275.16932,49.9495882 275.249741,50.3396667 275.410583,50.6683333 C275.571424,50.997 275.784369,51.2631176 276.046019,51.465549 C276.308803,51.6702549 276.607832,51.8203725 276.944239,51.9170392 C277.280647,52.0148431 277.61932,52.0637451 277.960259,52.0637451 C278.485825,52.0637451 278.958155,52.0193922 279.377249,51.9306863 C279.796343,51.8431176 280.153139,51.7487255 280.447638,51.6463725 L280.447638,50.4533922 L278.678382,50.4533922 C278.550388,50.4533922 278.452977,50.4806863 278.388414,50.5364118 C278.323851,50.5921373 278.283074,50.7126863 278.264951,50.8969216 L278.015761,50.8969216 L278.015761,49.1216667 L278.264951,49.1216667 C278.283074,49.2786078 278.323851,49.377549 278.388414,49.4196275 C278.452977,49.4617059 278.550388,49.4821765 278.678382,49.4821765 L282.134207,49.4821765 L282.134207,49.7323725 C281.949579,49.7596667 281.834045,49.7926471 281.788738,49.8290392 C281.742298,49.8665686 281.719644,49.943902 281.719644,50.0655882 L281.719644,51.6327255 C281.719644,51.7259804 281.746828,51.7862549 281.80233,51.813549 C281.857832,51.8408431 281.921262,51.8738235 281.996019,51.9102157 L281.996019,52.1319804 C281.691327,52.3457843 281.370777,52.5209216 281.035502,52.6596667 C280.699094,52.7984118 280.358155,52.9075882 280.012686,52.9849216 C279.667217,53.0645294 279.321748,53.1134314 278.976278,53.1304902 C278.630809,53.1498235 278.292136,53.1589216 277.960259,53.1589216 C277.315761,53.1589216 276.727896,53.0781765 276.198932,52.9166863 C275.668835,52.7540588 275.214628,52.514098 274.837443,52.1945294 C274.459126,51.876098 274.166893,51.4871569 273.959612,51.0288431 C273.75233,50.5716667 273.649256,50.0508039 273.649256,49.4673922 C273.649256,48.8862549 273.75233,48.3653922 273.959612,47.9070784 C274.166893,47.449902 274.459126,47.0586863 274.837443,46.7345686 C275.214628,46.4115882 275.668835,46.1636667 276.198932,45.9930784 C276.727896,45.8213529 277.315761,45.7360588 277.960259,45.7360588 Z M318.420825,45.8193059 L318.420825,46.069502 C318.216942,46.069502 318.117265,46.1525216 318.117265,46.319698 L318.117265,50.4809137 C318.117265,51.0643255 318.303026,51.463502 318.67568,51.6818549 C319.049466,51.8990706 319.595421,52.0082471 320.314676,52.0082471 C321.031667,52.0082471 321.577621,51.8990706 321.951408,51.6818549 C322.325194,51.463502 322.510955,51.0643255 322.510955,50.4809137 L322.510955,46.319698 C322.510955,46.1525216 322.371634,46.069502 322.095259,46.069502 L322.095259,45.8193059 L324.307395,45.8193059 L324.307395,46.069502 C324.086521,46.069502 323.975518,46.1525216 323.975518,46.319698 L323.975518,50.4115412 C323.975518,50.9574235 323.898495,51.4077765 323.741052,51.7648745 C323.584741,52.1208353 323.350275,52.405149 323.035388,52.6178157 C322.7239,52.8304824 322.334256,52.9737765 321.867589,53.0488353 C321.403188,53.1216196 320.867427,53.1580118 320.259175,53.1580118 C319.650922,53.1580118 319.112896,53.1216196 318.648495,53.0488353 C318.184094,52.9737765 317.79445,52.8304824 317.480696,52.6178157 C317.169207,52.405149 316.932476,52.1208353 316.777298,51.7648745 C316.619854,51.4077765 316.540566,50.9574235 316.540566,50.4115412 L316.540566,46.319698 C316.540566,46.1525216 316.412573,46.069502 316.155453,46.069502 L316.155453,45.8193059 L318.420825,45.8193059 Z M263.630761,45.7357176 C264.118948,45.7357176 264.542573,45.7732471 264.901634,45.8471686 C265.261828,45.9222275 265.572184,45.9995608 265.834968,46.0825804 C266.096618,46.1656 266.318625,46.2452078 266.497589,46.3191294 C266.677686,46.393051 266.827201,46.4294431 266.947265,46.4294431 C267.076392,46.4294431 267.168139,46.4010118 267.223641,46.3475608 L267.389013,46.4567373 L266.435291,48.1921882 L266.298236,48.1364627 C266.278981,48.0079529 266.242735,47.901051 266.187233,47.8180314 C266.113608,47.7065804 265.991278,47.5974039 265.821375,47.490502 C265.65034,47.3858745 265.449854,47.2903451 265.219919,47.2061882 C264.988851,47.1231686 264.740793,47.0572078 264.473479,47.0060314 C264.206165,46.9548549 263.938851,46.928698 263.671537,46.928698 C263.469919,46.928698 263.260372,46.9457569 263.044029,46.9776 C262.826553,47.0105804 262.630599,47.0594824 262.456165,47.1231686 C262.280599,47.1879922 262.135615,47.2744235 262.021214,47.3801882 C261.90568,47.4870902 261.847913,47.6190118 261.847913,47.7748157 C261.847913,47.9977176 261.928333,48.1637569 262.090307,48.2752078 C262.251149,48.3866588 262.462961,48.4696784 262.725744,48.5254039 C262.988528,48.5799922 263.287557,48.6175216 263.623964,48.6357176 C263.960372,48.655051 264.302443,48.6766588 264.653576,48.7050902 C265.003576,48.7323843 265.34678,48.7812863 265.683188,48.8506588 C266.019595,48.9200314 266.318625,49.0314824 266.581408,49.1838745 C266.844191,49.3362667 267.056003,49.5421098 267.216845,49.8014039 C267.377686,50.0595608 267.458107,50.3973255 267.458107,50.8135608 C267.458107,51.2946196 267.331246,51.6881098 267.078657,51.9928941 C266.824935,52.2988157 266.510049,52.5399137 266.131731,52.715051 C265.754547,52.8901882 265.34678,53.0084627 264.909563,53.0687373 C264.471214,53.1278745 264.063447,53.1585804 263.686262,53.1585804 C263.160696,53.1585804 262.720081,53.1278745 262.36555,53.0687373 C262.011019,53.0084627 261.716521,52.9356784 261.482055,52.8458353 C261.246456,52.7582667 261.060696,52.6797961 260.922508,52.6104235 C260.78432,52.5421882 260.664256,52.5069333 260.563447,52.5069333 C260.498883,52.5069333 260.438851,52.5444627 260.38335,52.6172471 L260.18966,52.5069333 L260.949693,50.8283451 L261.08788,50.8977176 C261.08788,50.9807373 261.106003,51.0546588 261.143382,51.1194824 C261.207945,51.2309333 261.334806,51.3389725 261.522832,51.4458745 C261.71199,51.5516392 261.928333,51.6471686 262.172994,51.7301882 C262.416521,51.8132078 262.672508,51.8803059 262.939822,51.9314824 C263.207136,51.9826588 263.446133,52.0076784 263.657945,52.0076784 C263.814256,52.0076784 264.017006,51.9951686 264.266197,51.9724235 C264.514256,51.9496784 264.758916,51.9007765 264.999045,51.8268549 C265.238042,51.7529333 265.445324,51.6517176 265.62089,51.5209333 C265.795324,51.3924235 265.88254,51.2218353 265.88254,51.0080314 C265.88254,50.796502 265.80212,50.6384235 265.641278,50.5360706 C265.480437,50.4348549 265.268625,50.3609333 265.005841,50.3143059 C264.743058,50.2688157 264.442896,50.2381098 264.107621,50.2244627 C263.771214,50.2108157 263.42801,50.1892078 263.07801,50.1619137 C262.72801,50.1346196 262.384806,50.0879922 262.048398,50.0231686 C261.71199,49.9583451 261.412961,49.8503059 261.150178,49.6979137 C260.887395,49.5443843 260.675583,49.3362667 260.514741,49.0724235 C260.3539,48.8097176 260.272346,48.4651294 260.272346,48.0397961 C260.272346,47.7532078 260.339175,47.4700314 260.472832,47.1936784 C260.606489,46.9161882 260.811505,46.6705412 261.08788,46.4567373 C261.364256,46.2452078 261.714256,46.0712078 262.13788,45.9370118 C262.561505,45.8028157 263.058754,45.7357176 263.630761,45.7357176 Z M343.875,45.8197608 C344.382443,45.8197608 344.853641,45.8936824 345.290858,46.0415255 C345.729207,46.1893686 346.10979,46.4134078 346.43034,46.7147804 C346.753155,47.0150157 347.00801,47.3948588 347.191505,47.8520353 C347.375,48.3092118 347.46788,48.8494078 347.46788,49.4680745 C347.46788,50.0878784 347.375,50.6269373 347.191505,51.085251 C347.00801,51.5424275 346.753155,51.9222706 346.43034,52.2225059 C346.10979,52.5227412 345.729207,52.7479176 345.290858,52.8957608 C344.853641,53.0424667 344.382443,53.1175255 343.875,53.1175255 L339.286489,53.1175255 L339.286489,52.8673294 C339.499434,52.8673294 339.605906,52.7843098 339.605906,52.6171333 L339.605906,46.3190157 C339.605906,46.1529765 339.499434,46.0699569 339.286489,46.0699569 L339.286489,45.8197608 L343.875,45.8197608 Z M328.660987,45.8198745 L328.660987,46.0689333 C328.419725,46.0689333 328.300793,46.1530902 328.300793,46.3191294 L328.300793,52.6172471 C328.300793,52.7844235 328.419725,52.8674431 328.660987,52.8674431 L328.660987,53.1176392 L326.367298,53.1176392 L326.367298,52.8674431 C326.606294,52.8674431 326.725227,52.7844235 326.725227,52.6172471 L326.725227,46.3191294 C326.725227,46.1530902 326.606294,46.0689333 326.367298,46.0689333 L326.367298,45.8198745 L328.660987,45.8198745 Z M310.737702,45.8195333 C311.16246,45.8195333 311.571359,45.853651 311.967799,45.9230235 C312.363107,45.9923961 312.715372,46.1038471 313.018932,46.2562392 C313.321359,46.4097686 313.567152,46.607651 313.750647,46.853298 C313.934142,47.0978078 314.027023,47.4014549 314.027023,47.7619647 C314.027023,48.1963961 313.894498,48.5318863 313.627184,48.7684353 C313.358738,49.0038471 313.040453,49.1858078 312.673463,49.3154549 L312.673463,49.3438863 C313.107282,49.4735333 313.472006,49.6793765 313.771036,49.9614157 C314.071197,50.2434549 314.219579,50.6471804 314.219579,51.1748667 C314.219579,51.4523569 314.159547,51.7093765 314.040615,51.9447882 C313.92055,52.1813373 313.743851,52.3860431 313.509385,52.5623176 C313.274919,52.7385922 312.984951,52.8739255 312.644013,52.9717294 C312.304207,53.0683961 311.916828,53.117298 311.485275,53.117298 L306.413107,53.117298 L306.413107,52.867102 C306.671359,52.867102 306.800485,52.7840824 306.800485,52.6180431 L306.800485,46.3199255 C306.800485,46.152749 306.671359,46.0697294 306.413107,46.0697294 L306.413107,45.8195333 L310.737702,45.8195333 Z M286.63822,45.8198745 L286.63822,46.0689333 C286.564595,46.0689333 286.527217,46.1155608 286.527217,46.2088157 C286.527217,46.2816 286.620097,46.4112471 286.803592,46.5954824 L290.770259,50.7305412 L290.770259,46.3191294 C290.770259,46.1530902 290.650194,46.0689333 290.411197,46.0689333 L290.411197,45.8198745 L292.497605,45.8198745 L292.497605,46.0689333 C292.323172,46.0689333 292.234822,46.1530902 292.234822,46.3191294 L292.234822,52.6172471 C292.234822,52.7844235 292.323172,52.8674431 292.497605,52.8674431 L292.497605,53.1176392 L290.259417,53.1176392 L290.259417,52.8674431 C290.37835,52.8674431 290.438382,52.826502 290.438382,52.7434824 C290.438382,52.6786588 290.364757,52.5717569 290.217508,52.4227765 L286.002783,48.0113647 L286.002783,52.6172471 C286.002783,52.7844235 286.108123,52.8674431 286.321068,52.8674431 L286.321068,53.1176392 L284.275437,53.1176392 L284.275437,52.8674431 C284.449871,52.8674431 284.537087,52.7844235 284.537087,52.6172471 L284.537087,46.3191294 C284.537087,46.1530902 284.449871,46.0689333 284.275437,46.0689333 L284.275437,45.8198745 L286.63822,45.8198745 Z M271.880113,45.8198745 L271.880113,46.0689333 C271.639984,46.0689333 271.521052,46.1530902 271.521052,46.3191294 L271.521052,52.6172471 C271.521052,52.7844235 271.639984,52.8674431 271.880113,52.8674431 L271.880113,53.1176392 L269.586424,53.1176392 L269.586424,52.8674431 C269.825421,52.8674431 269.945485,52.7844235 269.945485,52.6172471 L269.945485,46.3191294 C269.945485,46.1530902 269.825421,46.0689333 269.586424,46.0689333 L269.586424,45.8198745 L271.880113,45.8198745 Z M245.638722,45.8197608 C246.145032,45.8197608 246.617362,45.8936824 247.054579,46.0415255 C247.492929,46.1893686 247.872379,46.4134078 248.195194,46.7147804 C248.516877,47.0150157 248.770599,47.3948588 248.955227,47.8520353 C249.139854,48.3092118 249.231602,48.8494078 249.231602,49.4680745 C249.231602,50.0878784 249.139854,50.6269373 248.955227,51.085251 C248.770599,51.5424275 248.516877,51.9222706 248.195194,52.2225059 C247.872379,52.5227412 247.492929,52.7479176 247.054579,52.8957608 C246.617362,53.0424667 246.145032,53.1175255 245.638722,53.1175255 L241.05021,53.1175255 L241.05021,52.8673294 C241.263155,52.8673294 241.368495,52.7843098 241.368495,52.6171333 L241.368495,46.3190157 C241.368495,46.1529765 241.263155,46.0699569 241.05021,46.0699569 L241.05021,45.8197608 L245.638722,45.8197608 Z M245.085971,47.0127412 L242.944061,47.0127412 L242.944061,51.9245451 L245.085971,51.9245451 C245.518657,51.9245451 245.895841,51.8870157 246.218657,51.8130941 C246.541472,51.7391725 246.808786,51.607251 247.020599,51.4184667 C247.232411,51.2285451 247.390987,50.9760745 247.49746,50.6621922 C247.602799,50.3471725 247.656036,49.9502706 247.656036,49.4680745 C247.656036,48.9870157 247.602799,48.5889765 247.49746,48.2750941 C247.390987,47.9612118 247.232411,47.7087412 247.020599,47.5188196 C246.808786,47.3300353 246.541472,47.1981137 246.218657,47.1230549 C245.895841,47.0502706 245.518657,47.0127412 245.085971,47.0127412 Z M343.322249,47.0127412 L341.18034,47.0127412 L341.18034,51.9245451 L343.322249,51.9245451 C343.756068,51.9245451 344.13212,51.8870157 344.454935,51.8130941 C344.777751,51.7391725 345.045065,51.607251 345.255744,51.4184667 C345.468689,51.2285451 345.627265,50.9760745 345.733738,50.6621922 C345.84021,50.3471725 345.893447,49.9502706 345.893447,49.4680745 C345.893447,48.9870157 345.84021,48.5889765 345.733738,48.2750941 C345.627265,47.9612118 345.468689,47.7087412 345.255744,47.5188196 C345.045065,47.3300353 344.777751,47.1981137 344.454935,47.1230549 C344.13212,47.0502706 343.756068,47.0127412 343.322249,47.0127412 Z M311.014078,49.8715725 L308.374919,49.8715725 L308.374919,51.841298 L311.014078,51.841298 C311.596278,51.841298 312.011974,51.7503176 312.265696,51.5706314 C312.518285,51.3909451 312.644013,51.1521216 312.644013,50.8564353 C312.644013,50.5596118 312.518285,50.3219255 312.265696,50.141102 C312.011974,49.9614157 311.596278,49.8715725 311.014078,49.8715725 Z M311.014078,47.0125137 L308.374919,47.0125137 L308.374919,48.6774549 L311.014078,48.6774549 C311.429773,48.6774549 311.772977,48.6240039 312.044822,48.5182392 C312.314401,48.4113373 312.452589,48.187298 312.452589,47.8449843 C312.452589,47.5038078 312.314401,47.2786314 312.044822,47.1728667 C311.772977,47.0659647 311.429773,47.0125137 311.014078,47.0125137 Z" id="Combined-Shape" fill="#F6931D"></path>
            </g>
        </g>
    </g>
</svg>