<?xml version="1.0" encoding="UTF-8"?>
<svg width="40px" height="34px" viewBox="0 0 40 34" version="1.1" xmlns="http://www.w3.org/2000/svg" xmlns:xlink="http://www.w3.org/1999/xlink">
    <!-- Generator: sketchtool 62 (101010) - https://sketch.com -->
    <title>E44C1495-2ABC-4EED-A084-624C49F2DB37</title>
    <desc>Created with sketchtool.</desc>
    <g id="Homepage" stroke="none" stroke-width="1" fill="none" fill-rule="evenodd">
        <g id="Homepage-Interaction-States" transform="translate(-255.000000, -1053.000000)" fill="#FF8E53">
            <g id="Card-1-Card-/-Segment-/-Standard" transform="translate(255.000000, 1050.000000)">
                <g id="icon-seg-9-icon/seg/9">
                    <path d="M34.0594483,27.2252943 L32.6593017,29.1045668 L34.5437622,30.5086806 L30.3985595,30.5086806 C29.8770141,28.4893324 28.0395508,26.9930556 25.859375,26.9930556 L14.140625,26.9930556 C11.9604492,26.9930556 10.1229859,28.4893324 9.60144047,30.5086806 L7.03125,30.5086806 C4.44641109,30.5086806 2.34375,28.4060195 2.34375,25.8211806 C2.34375,23.2363416 4.44641109,21.1336806 7.03125,21.1336806 L9.60144047,21.1336806 C10.1229859,23.1530287 11.9604492,24.6493056 14.140625,24.6493056 L25.859375,24.6493056 C28.0395508,24.6493056 29.8770141,23.1530287 30.3985595,21.1336806 L32.890625,21.1336806 C34.7695923,21.1336806 36.5463257,20.4049208 37.893982,19.0816786 C39.2520141,17.7483656 40,15.979872 40,14.1024306 C40,12.2249891 39.2520141,10.4564955 37.893982,9.12318251 C36.5463257,7.79994032 34.7695923,7.07118056 32.890625,7.07118056 L30.3985595,7.07118056 C29.8770141,5.05183243 28.0395508,3.55555556 25.859375,3.55555556 L14.140625,3.55555556 C11.9604492,3.55555556 10.1229859,5.05183243 9.60144047,7.07118056 L8.671875,7.07118056 L4.296875,3.78993056 L2.890625,5.66493056 L4.765625,7.07118056 L0,7.07118056 L0,9.41493056 L4.765625,9.41493056 L2.890625,10.8211806 L4.296875,12.6961806 L8.671875,9.41493056 L9.60144047,9.41493056 C10.1229859,11.4342787 11.9604492,12.9305556 14.140625,12.9305556 L25.859375,12.9305556 C28.0395508,12.9305556 29.8770141,11.4342787 30.3985595,9.41493056 L32.890625,9.41493056 C35.5184937,9.41493056 37.65625,11.5175916 37.65625,14.1024306 C37.65625,16.6872695 35.5184937,18.7899306 32.890625,18.7899306 L30.3985595,18.7899306 C29.8770141,16.7705824 28.0395508,15.2743056 25.859375,15.2743056 L14.140625,15.2743056 C11.9604492,15.2743056 10.1229859,16.7705824 9.60144047,18.7899306 L7.03125,18.7899306 C3.15429687,18.7899306 0,21.9442274 0,25.8211806 C0,29.6981337 3.15429687,32.8524306 7.03125,32.8524306 L9.60144047,32.8524306 C10.1229859,34.8717787 11.9604492,36.3680556 14.140625,36.3680556 L25.859375,36.3680556 C28.0395508,36.3680556 29.8770141,34.8717787 30.3985595,32.8524306 L34.5437622,32.8524306 L32.6593017,34.2565443 L34.0594483,36.1358168 L40,31.6805556 L34.0594483,27.2252943 Z M25.859375,10.5868056 L14.140625,10.5868056 C12.8482055,10.5868056 11.796875,9.53547501 11.796875,8.24305556 C11.796875,6.9506361 12.8482055,5.89930556 14.140625,5.89930556 L25.859375,5.89930556 C27.1517945,5.89930556 28.203125,6.9506361 28.203125,8.24305556 C28.203125,9.53547501 27.1517945,10.5868056 25.859375,10.5868056 Z M14.140625,17.6180556 L25.859375,17.6180556 C27.1517945,17.6180556 28.203125,18.6693861 28.203125,19.9618056 C28.203125,21.254225 27.1517945,22.3055556 25.859375,22.3055556 L14.140625,22.3055556 C12.8482055,22.3055556 11.796875,21.254225 11.796875,19.9618056 C11.796875,18.6693861 12.8482055,17.6180556 14.140625,17.6180556 Z M25.859375,34.0243056 L14.140625,34.0243056 C12.8482055,34.0243056 11.796875,32.972975 11.796875,31.6805556 C11.796875,30.3881361 12.8482055,29.3368056 14.140625,29.3368056 L25.859375,29.3368056 C27.1517945,29.3368056 28.203125,30.3881361 28.203125,31.6805556 C28.203125,32.972975 27.1517945,34.0243056 25.859375,34.0243056 Z" id="icon-seg-process"></path>
                </g>
            </g>
        </g>
    </g>
</svg>